<mxfile host="app.diagrams.net" modified="2022-10-25T10:42:08.645Z" agent="5.0 (X11)" etag="8dAQk9h58DSdoWFnLPfn" version="20.5.1" type="github">
  <diagram id="YpFmkFMYl4jWMilzAsp7" name="Page-1">
    <mxGraphModel dx="1422" dy="1989" grid="1" gridSize="10" guides="1" tooltips="1" connect="1" arrows="1" fold="1" page="1" pageScale="1" pageWidth="1654" pageHeight="1169" math="0" shadow="0">
      <root>
        <mxCell id="0" />
        <mxCell id="1" parent="0" />
        <mxCell id="D-sqYa0wRiz-SFtbxjmq-48" value="" style="group" parent="1" vertex="1" connectable="0">
          <mxGeometry x="60" y="320" width="290" height="290" as="geometry" />
        </mxCell>
        <mxCell id="D-sqYa0wRiz-SFtbxjmq-6" value="VIRTUAL MEMORY" style="swimlane;" parent="D-sqYa0wRiz-SFtbxjmq-48" vertex="1">
          <mxGeometry x="60" width="230" height="290" as="geometry" />
        </mxCell>
        <mxCell id="D-sqYa0wRiz-SFtbxjmq-15" value="L2 PAGE TABLE" style="rounded=0;whiteSpace=wrap;html=1;fillColor=#e1d5e7;strokeColor=#9673a6;" parent="D-sqYa0wRiz-SFtbxjmq-6" vertex="1">
          <mxGeometry y="260" width="230" height="30" as="geometry" />
        </mxCell>
        <mxCell id="D-sqYa0wRiz-SFtbxjmq-17" value="VIRTUAL PAGE" style="rounded=0;whiteSpace=wrap;html=1;fillColor=#dae8fc;strokeColor=#6c8ebf;" parent="D-sqYa0wRiz-SFtbxjmq-6" vertex="1">
          <mxGeometry y="140" width="230" height="30" as="geometry" />
        </mxCell>
        <mxCell id="D-sqYa0wRiz-SFtbxjmq-20" value="VIRTUAL PAGE" style="rounded=0;whiteSpace=wrap;html=1;fillColor=#dae8fc;strokeColor=#6c8ebf;" parent="D-sqYa0wRiz-SFtbxjmq-6" vertex="1">
          <mxGeometry y="110" width="230" height="30" as="geometry" />
        </mxCell>
        <mxCell id="D-sqYa0wRiz-SFtbxjmq-21" value="4 KB" style="text;html=1;strokeColor=none;fillColor=none;align=center;verticalAlign=middle;whiteSpace=wrap;rounded=0;" parent="D-sqYa0wRiz-SFtbxjmq-6" vertex="1">
          <mxGeometry x="-60" y="110" width="60" height="30" as="geometry" />
        </mxCell>
        <mxCell id="D-sqYa0wRiz-SFtbxjmq-22" value="VIRTUAL PAGE" style="rounded=0;whiteSpace=wrap;html=1;fillColor=#dae8fc;strokeColor=#6c8ebf;" parent="D-sqYa0wRiz-SFtbxjmq-6" vertex="1">
          <mxGeometry y="80" width="230" height="30" as="geometry" />
        </mxCell>
        <mxCell id="D-sqYa0wRiz-SFtbxjmq-23" value="4 KB" style="text;html=1;strokeColor=none;fillColor=none;align=center;verticalAlign=middle;whiteSpace=wrap;rounded=0;" parent="D-sqYa0wRiz-SFtbxjmq-6" vertex="1">
          <mxGeometry x="-60" y="80" width="60" height="30" as="geometry" />
        </mxCell>
        <mxCell id="D-sqYa0wRiz-SFtbxjmq-38" value="VIRTUAL PAGE" style="rounded=0;whiteSpace=wrap;html=1;fillColor=#dae8fc;strokeColor=#6c8ebf;" parent="D-sqYa0wRiz-SFtbxjmq-6" vertex="1">
          <mxGeometry y="50" width="230" height="30" as="geometry" />
        </mxCell>
        <mxCell id="D-sqYa0wRiz-SFtbxjmq-39" value="4 KB" style="text;html=1;strokeColor=none;fillColor=none;align=center;verticalAlign=middle;whiteSpace=wrap;rounded=0;" parent="D-sqYa0wRiz-SFtbxjmq-6" vertex="1">
          <mxGeometry x="-60" y="50" width="60" height="30" as="geometry" />
        </mxCell>
        <mxCell id="D-sqYa0wRiz-SFtbxjmq-40" value="VIRTUAL PAGE" style="rounded=0;whiteSpace=wrap;html=1;fillColor=#dae8fc;strokeColor=#6c8ebf;" parent="D-sqYa0wRiz-SFtbxjmq-6" vertex="1">
          <mxGeometry y="20" width="230" height="30" as="geometry" />
        </mxCell>
        <mxCell id="D-sqYa0wRiz-SFtbxjmq-41" value="4 KB" style="text;html=1;strokeColor=none;fillColor=none;align=center;verticalAlign=middle;whiteSpace=wrap;rounded=0;" parent="D-sqYa0wRiz-SFtbxjmq-6" vertex="1">
          <mxGeometry x="-60" y="20" width="60" height="30" as="geometry" />
        </mxCell>
        <mxCell id="D-sqYa0wRiz-SFtbxjmq-42" value="VIRTUAL PAGE" style="rounded=0;whiteSpace=wrap;html=1;fillColor=#dae8fc;strokeColor=#6c8ebf;" parent="D-sqYa0wRiz-SFtbxjmq-6" vertex="1">
          <mxGeometry y="170" width="230" height="30" as="geometry" />
        </mxCell>
        <mxCell id="D-sqYa0wRiz-SFtbxjmq-43" value="4 KB" style="text;html=1;strokeColor=none;fillColor=none;align=center;verticalAlign=middle;whiteSpace=wrap;rounded=0;" parent="D-sqYa0wRiz-SFtbxjmq-6" vertex="1">
          <mxGeometry x="-60" y="170" width="60" height="30" as="geometry" />
        </mxCell>
        <mxCell id="D-sqYa0wRiz-SFtbxjmq-44" value="VIRTUAL PAGE" style="rounded=0;whiteSpace=wrap;html=1;fillColor=#dae8fc;strokeColor=#6c8ebf;" parent="D-sqYa0wRiz-SFtbxjmq-6" vertex="1">
          <mxGeometry y="200" width="230" height="30" as="geometry" />
        </mxCell>
        <mxCell id="D-sqYa0wRiz-SFtbxjmq-45" value="4 KB" style="text;html=1;strokeColor=none;fillColor=none;align=center;verticalAlign=middle;whiteSpace=wrap;rounded=0;" parent="D-sqYa0wRiz-SFtbxjmq-6" vertex="1">
          <mxGeometry x="-60" y="200" width="60" height="30" as="geometry" />
        </mxCell>
        <mxCell id="D-sqYa0wRiz-SFtbxjmq-46" value="VIRTUAL PAGE" style="rounded=0;whiteSpace=wrap;html=1;fillColor=#dae8fc;strokeColor=#6c8ebf;" parent="D-sqYa0wRiz-SFtbxjmq-6" vertex="1">
          <mxGeometry y="230" width="230" height="30" as="geometry" />
        </mxCell>
        <mxCell id="D-sqYa0wRiz-SFtbxjmq-19" value="4 KB" style="text;html=1;strokeColor=none;fillColor=none;align=center;verticalAlign=middle;whiteSpace=wrap;rounded=0;" parent="D-sqYa0wRiz-SFtbxjmq-48" vertex="1">
          <mxGeometry y="140" width="60" height="30" as="geometry" />
        </mxCell>
        <mxCell id="D-sqYa0wRiz-SFtbxjmq-47" value="4 KB" style="text;html=1;strokeColor=none;fillColor=none;align=center;verticalAlign=middle;whiteSpace=wrap;rounded=0;" parent="D-sqYa0wRiz-SFtbxjmq-48" vertex="1">
          <mxGeometry y="230" width="60" height="30" as="geometry" />
        </mxCell>
        <mxCell id="D-sqYa0wRiz-SFtbxjmq-77" value="" style="edgeStyle=orthogonalEdgeStyle;rounded=0;orthogonalLoop=1;jettySize=auto;html=1;entryX=0.5;entryY=1;entryDx=0;entryDy=0;" parent="1" source="D-sqYa0wRiz-SFtbxjmq-30" target="D-sqYa0wRiz-SFtbxjmq-5" edge="1">
          <mxGeometry relative="1" as="geometry">
            <mxPoint x="740" y="744.9100000000001" as="targetPoint" />
          </mxGeometry>
        </mxCell>
        <mxCell id="D-sqYa0wRiz-SFtbxjmq-62" value="" style="group" parent="1" vertex="1" connectable="0">
          <mxGeometry x="570" y="440" width="280" height="200" as="geometry" />
        </mxCell>
        <mxCell id="D-sqYa0wRiz-SFtbxjmq-5" value="PHYSICAL MEMORY" style="swimlane;" parent="D-sqYa0wRiz-SFtbxjmq-62" vertex="1">
          <mxGeometry x="60" width="220" height="200" as="geometry" />
        </mxCell>
        <mxCell id="D-sqYa0wRiz-SFtbxjmq-7" value="VIRTUAL PAGE" style="rounded=0;whiteSpace=wrap;html=1;fillColor=#dae8fc;strokeColor=#6c8ebf;" parent="D-sqYa0wRiz-SFtbxjmq-5" vertex="1">
          <mxGeometry y="20" width="220" height="30" as="geometry" />
        </mxCell>
        <mxCell id="D-sqYa0wRiz-SFtbxjmq-18" value="PHYSICAL PAGE" style="rounded=0;whiteSpace=wrap;html=1;fillColor=#f8cecc;strokeColor=#b85450;" parent="D-sqYa0wRiz-SFtbxjmq-5" vertex="1">
          <mxGeometry y="80" width="220" height="30" as="geometry" />
        </mxCell>
        <mxCell id="D-sqYa0wRiz-SFtbxjmq-26" value="PHYSICAL PAGE" style="rounded=0;whiteSpace=wrap;html=1;fillColor=#f8cecc;strokeColor=#b85450;" parent="D-sqYa0wRiz-SFtbxjmq-5" vertex="1">
          <mxGeometry y="110" width="220" height="30" as="geometry" />
        </mxCell>
        <mxCell id="D-sqYa0wRiz-SFtbxjmq-14" value="L2 PAGE TABLE" style="rounded=0;whiteSpace=wrap;html=1;fillColor=#e1d5e7;strokeColor=#9673a6;" parent="D-sqYa0wRiz-SFtbxjmq-5" vertex="1">
          <mxGeometry y="140" width="220" height="30" as="geometry" />
        </mxCell>
        <mxCell id="D-sqYa0wRiz-SFtbxjmq-13" value="L1 PAGE TABLE" style="rounded=0;whiteSpace=wrap;html=1;fillColor=#e1d5e7;strokeColor=#9673a6;" parent="D-sqYa0wRiz-SFtbxjmq-5" vertex="1">
          <mxGeometry y="170" width="220" height="30" as="geometry" />
        </mxCell>
        <mxCell id="D-sqYa0wRiz-SFtbxjmq-61" value="VIRTUAL PAGE" style="rounded=0;whiteSpace=wrap;html=1;fillColor=#dae8fc;strokeColor=#6c8ebf;" parent="D-sqYa0wRiz-SFtbxjmq-5" vertex="1">
          <mxGeometry y="50" width="220" height="30" as="geometry" />
        </mxCell>
        <mxCell id="D-sqYa0wRiz-SFtbxjmq-24" value="4 KB" style="text;html=1;strokeColor=none;fillColor=none;align=center;verticalAlign=middle;whiteSpace=wrap;rounded=0;" parent="D-sqYa0wRiz-SFtbxjmq-62" vertex="1">
          <mxGeometry y="50" width="60" height="30" as="geometry" />
        </mxCell>
        <mxCell id="D-sqYa0wRiz-SFtbxjmq-25" value="4 KB" style="text;html=1;strokeColor=none;fillColor=none;align=center;verticalAlign=middle;whiteSpace=wrap;rounded=0;" parent="D-sqYa0wRiz-SFtbxjmq-62" vertex="1">
          <mxGeometry y="20" width="60" height="30" as="geometry" />
        </mxCell>
        <mxCell id="D-sqYa0wRiz-SFtbxjmq-27" value="4 KB" style="text;html=1;strokeColor=none;fillColor=none;align=center;verticalAlign=middle;whiteSpace=wrap;rounded=0;" parent="D-sqYa0wRiz-SFtbxjmq-62" vertex="1">
          <mxGeometry y="80.10000000000002" width="60" height="30" as="geometry" />
        </mxCell>
        <mxCell id="RWK8OXjm__JFOhkUaJIX-42" value="4 KB" style="text;html=1;strokeColor=none;fillColor=none;align=center;verticalAlign=middle;whiteSpace=wrap;rounded=0;" parent="D-sqYa0wRiz-SFtbxjmq-62" vertex="1">
          <mxGeometry y="110.10000000000002" width="60" height="30" as="geometry" />
        </mxCell>
        <mxCell id="D-sqYa0wRiz-SFtbxjmq-78" value="MISS" style="text;html=1;strokeColor=none;fillColor=none;align=center;verticalAlign=middle;whiteSpace=wrap;rounded=0;fillStyle=auto;" parent="1" vertex="1">
          <mxGeometry x="740" y="750" width="60" height="30" as="geometry" />
        </mxCell>
        <mxCell id="D-sqYa0wRiz-SFtbxjmq-83" value="" style="shape=image;verticalLabelPosition=bottom;labelBackgroundColor=default;verticalAlign=top;aspect=fixed;imageAspect=0;image=data:image/png,iVBORw0KGgoAAAANSUhEUgAAA70AAAM6CAYAAABNaCTMAAAABHNCSVQICAgIfAhkiAAAABl0RVh0U29mdHdhcmUAZ25vbWUtc2NyZWVuc2hvdO8Dvz4AAAAmdEVYdENyZWF0aW9uIFRpbWUAU2FsIDI1IEVraSAyMDIyIDExOjUwOjI0SwP4gQAAIABJREFUeJzs3XlYVVXbx/HvYZ5EEEXAeUIwzdnKMTXNeay0cqhMTbOsnM2y4Wl4Ksu3bC5Nc6wsZ5xn1HJORUUTEVRAmURmDuf9Az16AgcQOD74+1xX1yVrr7X2vc9eKfdZe69lMJlMJkRERERERERKIBtrByAiIiIiIiJSVJT0ioiIiIiISImlpFdERERERERKLCW9IiIiIiIiUmIp6RUREREREZESS0mviIiIiIiIlFhKekVERERERKTEUtIrIiIiIiIiJZaSXhERERERESmxlPSKiIiIiIhIiaWkV0REREREREosJb0iIiIiIiJSYinpFRERERERkRJLSa+IiIiIiIiUWEp6RUREREREpMRS0isiIiIiIiIllpJeERERERERKbHsrB2A3N22nkjgg9XheR6r4OFIo0qleK6FL072d+/3J5OXnGJ/RNJt1X2uuS+PN/bOV/8DZ4bg6WrP5/1q3bTeG0tP8ffZZJaOrJev/u9GJWFcQNGOjdsdF1CyxoY1BW8P5rNp0/I85uvnS/36DRgwaCBOTk7FHJmIiIhYk5Jeuam45Cz2hidRrpQ95Us5mMvTs7IJOZfMsoMXmbMritWj6+PhfHcOp0tpWcQlZ5p/NmbDmbg0HOxsqODhYFE3JSM73/0fOpuMt7v9LeuduJDKvjO3l2Dd7UrCuICiHRu3Oy6gZI0Na0pIiOfA/v2ULVuWct7XvqDISE/n+LFjBK1cxcIF81m8ZAmlS5e2YqQiIiJSnO7e30blrjLwAR8mdqpiUZacbmTiH/+waE8M/10dzge9a1gpupub0d/f4udLaVnUnLKLOr4urB3dwEpRlQz/y+MCNDZKqn5P9ufVMWMsylKSU3jrzTf5ffFipn/6KVPffttK0YmIiEhxu7ufPZS7mqujLVO7VQMg+J/EXMfjU7L46/Ql1oTEcSwq5Yb9pGdls/v0Jf4Mu0RaZs5sWkqGkQyjKc/6UZcy2ByaQERcWiFcxc3d7jVclZJhZPvJRE7EpGLKO/w8Fec1FbXCGhdw946N4hoXULLGhjW5uLowYfIkAP7ctSvX8YT4ePbu2cPG9RsIPR56077S09PZt3cve3bvIS0t576kpqSQmZmZq25MdDTbt20jMjKyEK5CRERECkIzvXJHXBxsMBgg+bpHP00mmLL0FLN3nrdITgJ8XPhhYAD+5V3MZXN2RTF5ySkysnLal3d3YPYzgXT6/CBDWvhazBIePpfM0J+P8c+FVHNZHV9X5g6pQ0UPx0K9rvxcw1ULd0cz5reTZF6pX7mME7OfCeQ+P9cbnqc4r6k43em4gLtzbBTXuICSOzasycXZGYPBQErytS8qTCYT/3nnHebPnWeRtPrX9ueLL7+kRs2aFn0snL+Ad956i4yMDAC8vb35+vvv6NuzFwMHDzLPIB8NCeHlF0cRFhZmbhsQEMB3M3/Ez8+vKC9TRERE/kUzvXJHVh2KxWSCutf9Av/TzvN8v/0cAx70YevYRux7vSkz+vtzOjaNcYv/MddbdvAiY387SS1vZz59vCaLht5Hx8AyPD0zJNd5jkWl0OWLgySmZvFx35osHVmPt7tXIzwujR4z/r7hzF9B3e41XHX0fApvLAtjwqNVWPxCXaZ0qUpcciY9vzpEfEpWnuco7msqTncyLuDuHRvFMS6K+5ruJWvXrMVkMhFYp465bP7cucye9RP9nnySVWvWsCV4Ox9Pm8aZ8DNMmfy6RfuglauYMnkyNWrU4P0PP2TWnNm0bd+Ooc8+Z1Ev9Hgoj/fpy6VLl3j3/fdY8MsiJk95nTMRZ+j/2ON5zgiLiIhI0dFMr9yWg5GXmb0zyvxz2pUFixbvv4CNAUa3q2g+tuFYPGVc7Xm3R3XsbQ0APNHEm43H41ly4AKpmdk429vw8dozlHa2Y9HQ+/C+shhS29qepGQYWbz/gsX5P157huxsE3+MqEftK7NpD1UvTRUvJ5756ShLD1zI96rLN3O713BVelY2n/evRe8G5QBoVdODamWdGDLnGN9sPcukf733ao1rKgpFMS6Au3ZsFMe4KO5rKokOHzrMgvnzzT+npaVx/Ogxli1dio2NDS+8ONJ8bMvmzXiW8WTKm29gZ5fzT2Lvvn3YumULK1esIDU1FWdnZwD+b/p03N3dmTlnNuXKXbmnrVuTmpLKsqVLzX1+/n/TMRqNzFu4gJq1clbvbtqsGRUrVWLk8BdYuXwFvfr0LvLPQURERHIo6ZXbsuFYPBuOxecqr17WmY/71qBR5VLmstnPBAJga5OTFJhMOSviHo9OIdsEmcZs0rOyOR6dQo/6Zc1JzVVPNitvkdhkGk2sOhxL29oe5gTgqs73eeHiYMuqw7GFmgTczjVcn9y4OdrS/f6ylrHV9cLV0Za/wi7l6t8a11QUCntcONvbkJCaddeOjaIeF9a4ppJoy+bNbNm8OVd51WpVeec//6F+/frmsq+/+w4AW1tbIOdx58iICE6eOEF2djZZWTkz8omJiZw8cYLOXbuYE96r+j7+uDnpzcrKYt2atbRq3dqc8F7VoWNHnF1cWLd2rZJeERGRYqSkV27LgAd8GNLC16KsgqfjDbej+W3fBYIOx3IsKoXI+DQyjCbsriQKkJMoAFTyzL1fZqCP5buOZxPSMWab2BueRLtP9+eqn2XM5nxiRr6v6VZudQ3X8y/vkuuYnY0Bv9IOhMfmXoDIWtdU2Ap7XMDdPzaKclxAyRkb1vRE/34MHDzYoszPz++G2xQtXbKE9WvXERp6nLORZ8nMzMTWztaiTmREBAAVK1bM1b52QG3zn8+dPYvRaOTAgQN079I1V92szEyizp/P9zWJiIhIwSnpldviXcr+lgvvXDVi/nGWHLhIoK8rnet6EeDjQl0/V77ZepZFe2KAnBkwwLxI0fUc7CyThMvpRgD8PBxpF+CZq367AM9C3wv2dq7helcfdf23tCwTrk62ucqtcU1FobDHBdzdY6OoxwWUnLFhTeXKlSMwMPC26r42+hVWrlhB7YDadOjYkVr+/gTWqcOsH37k98WLzfVcXd0AzAtYXc/B4doTCcnJyQD4+vjQpk2bXHXbtGmDu/YIFhERKVb6zUkK1fGoFJYcuEjXel7MGmz5S2f6dUmMX2lHHGwN/HMx9d9dcOqi5QxYNa+cGb8KHo5M6VI1j/qpONgV3ppst3sN1wu7mHvWLiXDSFRiOu3zSFyK+5qsLT+f6d06NopjXMC9Nzas6URoKCtXrODRTp348puvLY6lp6db/Ozj64O9vT1hp8L4t9Nhp81/rlKlKgC+fr6MnTA+z7oOjg65ykVERKTo6DcnKVTRSTmzIBX+taVKXHIm209e27PVyd6GLvW82JrH/qO/7Im2+NnV0ZZGlUux7UQC0ZcsZ1n+PnuZBz/cy5ebCm8PzNu9huvFJGWwJTTBomzh7hgyjSb6NMz97mVxX5O15eczvVvHRnGMC7j3xoY1xcTkvB/u62f5iH58XDy7du60KHNycqLjo48SHLw91567f/x+bUbYxdWF+vXrs3PHTmJiLGf/jxw+zCNt2/L9t98W5mWIiIjILSjplUJ1n68rTvY2/L7/AttOJHDyQiq/7Y2h64y/MVx50nPnqUukZWYzqm1FHOxs6PvtYf44cIHdpy/xxtJTFqsBXzW1W1XSs7Lp9fUhFu+/wL4zSczeGcWTPxyhtLMdL7XL/Z5dcVzDVc72Ngyfd5zZO6PYE57EjE2RvLnsFPUquNGlnlee5ynOa7K2/H6md+PYKK5xUZzXdK8LrBOIk5MTy5cuY0dwMKdOnWLpH0t4om9fDFdu6u4//yItLefLl2EvDMfBwZFBTw9gxfLl7Nu7l/feeZf58+ZZ9Dvx9cmkp6fzdL/+LFu6lIMHDrBg/nyGPPMs7u7uDH9hRLFfq4iIyL1MjzdLofJys+fzfv6M/e0kfb89DEApJ1vGP1qFJpVL0eOrvxk4M4RtYxtxfwU3Fg69jyFzjjJ87nEA3J3s+KhvDV779aTFAkAPVS/NoqF1eXlRKCPmHTeXB/i48NVTtfErbTn7VlzXUNsnZ3XdljU9qOXtzPjfT2K6soXqA9XcmfNsHRxu8F5ncV6TteX3M70bx0ZxjYvivKZ7XZkyZfjvJx8zZdJkBj09AAA3NzdGv/YqDRs2pP/jTzDs+ecJWruGWv7+3Fe3LjN/+omXRo7klZdeBqBUqVK8+5/3mDxxIna2Of+kNm3WjJmzZzNh3DheG/2K+Xz+tf2Z9tln+Pj6FP/FioiI3MMMJtPVX8VECs/ldCPHo1KwtTFQ28fFvI1LfEoWl9OyqFTm2sq8mUYTIedzFn+p6+fK4XPJdJh+gMmdq/BK+0q5+j4Tl0Z4XBrebg74l3cxz7JZ8xquOpeYzumLaZR3d6BGOefbPldxXZO15fczvRvHRnGOC7h3xoY1JScncyI0FFtbO2rWqmnelzchIYHLly/nWrE5KyuLY0ePAhBYpw5HQ0Lo1b0HY8aNZcSLL1rUjYyIICIigrJly1KzVi3zDLKIiIgUHyW9YjVjfj1J1KUM5jwbaN73FOD9oHCmb4hg9cv1LfZ5lXuHxobcjV6fNImY6Bi++f47876+ANM+/oSvv/ySxUuXWOwBLCIiIncHPd4sVlO9nBM//xnFSwtDeba5L8kZ2WwJTeCrLZE0qVKKhpWU1NyrNDbkblS1ajUWLVjI+DFjeXrgAFJSUgjevp0fvvueho0acf/991s7RBEREcmDZnrFarJN8M7KMGYFnyf1yuI/DrYGetQvy3u9auDpou9k7lUaG3I3ys7O5qMPP2Tez3NJTc3ZUsve3p4uXbvyxltT8fDwsHKEIiIikhclvWJ1KRlGwi6m4WBnQwUPB1wcbG/dSO4JGhtyN0pNSeF0eDgODg74+fri7OJi7ZBERETkJpT0ioiIiIiISImlfXpFRERERESkxFLSKyIiIiIiIiWWkl4R+Z+QnG4kIi6NlAyjtUMRERERkf8hWgJVisUP28+xeP8FyrnZM3NwIHbX7b161arDsXyxKZKX2lakS12vYo1v4MwQPF3t+bxfrWI9r9zc5XQjX2yK5Ne9MUTGp5vLq5V1ol+T8rz4cAUc7XJ/d/f5xkhm7ThPbHImJ999EAc7mzzL5N71zddfM2/Oz8THx7Pv74M4ODjkWSYiIiL/+/RbnxSLyIR09oYnsfpIHN9sOZtnnQtJmewNT+JCUmYxRweHziZzLCq52M8rNxYem0abafv5bH0EyelGOgSWYUSbCrQL8CQuOYsPV4fT/rMDRF/KsGj399nL/GfVaQAGPuCDjY0hz7LCFnQ4lhYf7WVzaEKh9y2F68jhw3zy348A6Pdkf2xtbPMsKwrr1q7l0faPsH3btiLpX0RERHLTTK8UKxsDfLz2DL0alKOip6O1w5G7lDHbxFM/HiEiLo1eDcry2eO1cHW8loQkpGYxakEoa0PiGPzTUVa/XN98LOxiGgCvtK/E4Id8blhW2C6lGTkRk8rltKwi6V8KT/jpcABGvjSKJ5966oZlRSEpKYl//vmHy5cvF9k5RERExJJmeqVYDWnhR2pmNhP/+OeWddOzsvN8f9OYbSIlw0hWtsmibmpmNgCX0rLYdjKBv05fIiMr21znTFwa64/Gc/T8zWd0UzKMbD+ZyImYVG61oVfUpQw2hyYQEZeW61iG0WSOP8NoYvvJRM4lpueqJ7ktOXiREzGpPOzvwXcDAiwSXgAPZzt+frYOjSqXYt+ZJDYeiwdyxkHalXHgZG9DSoYxz7LrhV1MY8OxeIL/SeRy+s3fF77R/b7+HGmZeY9bKT5nwsMJ3h5MQkLuWff09HTS0nPun6OjI6kpKXmWXS/8dDhbNm/mz127SE6++d8fMdHRbN+2jcjIyDzPnZ6e83dAelp6rvOIiIhI0dA+vVIs3loRxlebz7J4eF1+2hnF8r8vMmtwIF3rXXt3d/bOKMYtPsnHfWsy+CEfBv90lKDDscR80tKir3VH43j6xxA+e6IWTzcrD0Dvrw8Rk5TBlC5VeWnhCS5dmW2rXtaZFaPu58vNZ/lqS6Q5iX20ThlmPXPt3eIG7+7G292e55r7Mua3k2QacypWLuPE7GcCuc/P1SKGw+eSGfrzMf65kGouq+PrytwhdajokTOD/eHqcD5dH0Hw+MY881MIJ2JS+aK/P/2aeBfiJ1sytft0P4fPJbP+1QbcX8HthvW2nUyg7zeHaVXTg8Uv1OWxbw+z9YRlovNgNXd2hV2yKIv8sDmX040M/fk4205eq+9kb8MnfWvyxL/u0a3u97/PW9rZjhPvPliga5eC27VzJ6+98iox0dEAGAwGHnjwQT7/cgZlypQBYPCAAQRvD7Zo17RZU3b/tduiLCT0OMmXk3l51Ch27thhLndycuLd996jd98+FvWPhoTw8oujCAsLM5cFBATw3cwf8fPzy/Pc7u7u7Pv7YCFcuYiIiNyMHm+WYvd+r+psCU1g8pJ/eNjfI9csXkGdS8xg1MJQXmhdgda1PAg6EstXm8/S8uN92Bhg+hO1qFzGiW+3nmP1kVhm7TjP0JZ+5vZHz6fwxrIwJjxahYaV3dh/5jLTN0TQ86tD7J7cBE+XnP9djkWl0OWLg7g52vJx35r4l3fmQMRlPlp7hh4z/mbXpCY42F57Z3Toz8ewt7VhdLuK1K944wROcqRlZnPkfDLl3R1umvACtKzhgZO9DXvCL2Eyweh2Fanp7czM4PM818KXJlXcKedmT9CRWIsyO1sbRi86xoHIJKY/UYtGlUtx4XIG09dHMmphKLV9XMz36nbu9+h2Fanq5cScXVEMbelHs2ruxfFRyXX+3LWLZwYOokqVKkyYOJHqNWqwIziY//vsM/r26k3Q2jU4OTkxfMQIqlWvwdw5cxgwaBANGzXEy6ss69etsyizs7NjwvhxHPr7bz746L/Ur9+A2NiLfDXjS8aNGUMt/1rUrVcPgNDjoTzepy+urq68+/571KxZk0N//830zz6j/2OPs2HLZuzt7Rk+YgSVKldm4fwFDH72GRo3bmLlT01EROTeoKRXil15dwemdKnC+N//4cPV4bzbs3qh9JucbmRqt6q8+HBFABpVLsWs4PPEJWeydGQ9HqpeGgDvUg6sPhLLntNJDL1uEjk9K5vP+9eid4NyALSq6UG1sk4MmXOMb7aeZVKnKkDOO8nZ2Sb+GFGP2uVdAHioemmqeDnxzE9HWXrgAo83vjZT6OVmz8Ln78PetvAXTyqJwmPTMJlyZulvxWCAql5OHItKITopg1a1PIhNzmJm8HkerFaaXg3KAhCfYllmzDax5UQCjwSW4akrTwsE4ELNci48/eMR9oYnmZPe273f5xIzmLMrioequ9Pt/rJF9OnIjXzy0cc4ODrw09yf8fX1BaDe/fXw9PRk8sSJLJg3j2eHDKF5ixbEx8czd84cmjZrStdu3QBITEywKDMajezYHszDbdvy+BNPXDmLP9WrV+f554ZwYP9+c9L7+f9Nx2g0Mm/hAmrWylkBvmmzZlSsVImRw19g5fIV9OrTm+YtWhAVFcXC+Qto2qwZnTp3LvbPSURE5F6kd3rFKgY/5EuTKqX4Ifg8h84W3oIufRtdSzbtbQ1U8HDE08XOnPAC1PJ2xs3RNtf7tW6OtnT/V7LSua4Xro62/HXl8dhMo4lVh2Np7e9hToDMde/zwsXBllWHYy3KR7apoIQ3H9KNOe/GOtjd3mfmZJ/z19j172/fio3BgKOdDRuOxrFgdzQXL+esGO5b2oGNrzXkuRY5SVNB7rcUv3PnzrF/3z4eeaSDOeG9qlef3ri6urJi2fJ89WljY4ODgwNbNm/mt19/JTY25z6X9/Fh+aqVDBg0CICsrCzWrVlLi5YtzQnvVR06dsTZxYV1a9fewdWJiIjIndJMr1iFwQCfPl6L9p/tZ+xvJwl6ucEd9+lsb4OPu+W+mgYDeLjkHuZ57dHqX94l1/7BdjYG/Eo7EB6bs8jN2YR0jNkm9oYn0e7T/bn6yDJmcz7RcgudCh5apTo/qpRxAq6tuHwrpy6kYWdjyNfnbDDAtMdqMmnJP4xedAKA2j4utK/tSb8m3gT65rzDXZD7LcXv9JX3aGsHBOQ65uDgQLXq1Tl9+nS++jQYDLz3wQe8PXUqE8eNB6CWvz+t27ShT9++1A6oDcC5s2cxGo0cOHCA7l265uonKzOTqPPn83lFIiIiUpiU9IrVBPi48OLDFZm+IYLZO89jY7i9mb0sY95rr+WVyObHjWZj07JMuDrlvHd8dXVfPw9H2gV45qrbLsATD2fL/600x5s/pZ3tqODhSGR8GucTM/At7XDDusejU7iUlsV9fq7Y5nPv3R71y/LofWVYfvAi204msu1EAl9tOcu3287xeb9aPN7Yu0D3W4qfrW3O/58m8v67wWQyYWOb/78fOnftQrtH2rN6VRA7d+xgR3AwP37/PT/NnMl/P/6YXn16m1dz9vXxoU2bNrn6aNOmDe6lS+cqFxERkeKj39bEqsZ0qMTSgxd4b1U4w1r55Vkn25Szv+9VZ+KLZtufvGYWUzKMRCWm0/5KwlPNK2cWsoKHI1O6VM1V/9TF1DtOvgWGtvTjrRVhfLz2DJ8+XvOG9f675oy5fn7EXs4kPC6NWt4uPNbYm8euvIO9OTSB/t8f5vNNkTze2Fv3+39EtWrVAAg5ciTXsbS0NE6dOkVAHrPANxMXF0fEmTPUqFmTnr170bN3LwC2b9vGc4Of4dtvvqFXn95UqVIVAF8/X8ZOGJ+rn9Nhp3FwvPEXNyIiIlL09NuaWJWjXc4WMZfSsvh661mLY1dn0MIuXtsmJivbxC97YooklpikDLaEWm53s3B3DJlGE30a5iRFro62NKpcim0nEoi+ZPlY699nL/Pgh3v5clPu/TklfwY95IOnix0Ldkfz7bZzuY6bTDBtXQQr/r6IX2lHc9J6u/ZHXKbT5wf5da/lWHrY34MKnk64OuTMHBbkfmsPuOLnXb48Dz70EBvXb+B02GmLY4sWLCQ1JYVefXrnq8+/Dx6kb6/eLPn9d4vylq1a4efnh4tzzkJrLq4u1K9fn507dhITYzmejhw+zCNt2/L9t9/mPoEGioiISLHRTK9YXataHjze2DtXAtKsmjsLdkcz5reTTHi0MklpRmbtOG/eg7ewOdvbMHzecSZ1qsJ9fq7sOpXIh6vDqVfBjS7X7Sc8tVtVen99iF5fH2Jsx8pU83Li0NlkPlobTmlnO15qV7FI4ruXuDna8sOgAJ76IYQ3lp5izZFYWtfyoHpZZ0JjUth0PIHdpy/h5mjLrGcCLbaIuh2ta5WmvLsD7weFk2HMplHlUsQlZ7Hi0EUi4tIY0uLaYki3e7/drmy9NXtnFHY2BjrX9crz3FI0xo4fx9P9n+SZQYN4fujzVK9Rg507dvLdt99Qy9//uhWYb0/zFi3w9vZm2sefkJmZyf3165MQn8Dq1UFERkYycPAgc92Jr0/m6f5P8nS//rz0ymiqVKlCSEgI//fpZ7i7uzP8hRHmuq6uOe+LL5g/D1s7Wzp07Fg4H4CIiIjcULEnvadOneLA/pwFYZo98AAVK946QYg6H8WOHcEABNapQ2BgIDHR0Wzfvh1bG1vzY2f/i0rKddypd3tUY/3ROOJTriW0TzYtz65TifyyN4aeXx3CYMjZRuj/nqhFr68PFXoMLWt6UMvbmfG/n8R0ZRbmgWruzHm2jkVS9VD10iwaWpeXF4UyYt5xc3mAjwtfPVUbv9JauKowtKrpwfpXG/DG0lNsPZHA9pOJ5mN2NgYerVOG//SsTpUrjyDnh4OdDb8Nr8vI+aG8uSzMXO5kb8PL7SoyonUFc9nt3u82/h7U9nFh64kEDkZe5oSS3mLVoGFD5v+yiPGvjeGtN6cCYGdnR7t27flo2ic4OOTvEWMHBwfmzJvLa6+8ynvv/sdc7uTkxAsjRvDc88+by5o2a8bM2bOZMG4cr41+xVzuX9ufaZ99ho+vj7msZatW1PL3J3h7MIf+PkSHv5X0ioiIFDWDyWQq1oesTp44QacOOf/ID3pmMG++9dYt23zy0cd889VXACz45ReaNmvKtq1beXbQYBwdHTly/Fi+YoiJjiYzKwsPDw/zt+7WcifXca84m5BORHw6tcu74JnHSsyF7VxiOqcvplHe3YEa5W6+V+yZuDTC49LwdnPAv7wLt7kWl+RTTFIGx6NTiE/OwsvNnoDyLni52RdK36dj0ziXkI6roy01yjmbZ2zzcjv3O/pSBq6OtjftR4pWXFwcZyPP4l/bH0fHO/8S6kx4OFFRUbi4uFCtevWb/rsRGRFBREQEZcuWpWatWhhu8JdCTEwMrq6uVv83SERE5F5Q7EkvQM9u3Tly+DDe5cuzfecObGxu/mrxI23bcjrsNBUrVmTTtq0YDIY7Sha7PPooocdDeeudt817LVqLkl4REREREZGiY5WFrHr36QPkzLju3bP3pnWPhoSYFybp1ae3+VvzRo0bszxoFYuXLinSWEVEREREROR/l1WS3u49e2Brl/PoX9CqlTetu2rlKvOfe/a+tvqmq6srgYGB+d6GQkRERERERO4dVlm92cvLi1atWrN50yZWrwpiyptv3vAR59WrcpLe+g0amPdihJzFrbZt3YKNrS19H3sMAKPRyO+//QZA9549MRgMzJ83j507dtC1Wzd8fHw4Ex5OQkLOgjj79u7D0dGRmrVq0bBRI2Kio9myeTMAj/frl2c8WzZvJiY6msA6dahbr57FMWOWkVWrVrJn9x6ios6TlppKhYoVad26DY907ICdnRbLFhERERERKU5Wy8J69+3D5k2biImJYe+ePTRt1ixXnWPHjhEWlrOyap++fSyOnTgRyqQJE3F0dLRIeidNmAhA02YPMG7MGPbv2wdA3br12LplC0v/uPY49LKlS1m2dCkDBw+iYaNGnDx50twr1+6+AAAgAElEQVT+RknvzB9+IHh7MC++NMoi6Y2MjGRA/yeJjMy9R+svCxfRsFEjZnz1JeV9fHIdv1uEXUzj5Tl7SUrNtHYoUgguptmQYQQfl2xstMDWPSsrM4sydmkMa2CLrUGbw0rxaty0Cd7e+dtHW0REpLBZLel9pEMH3NzcuHz5MqtWrswz6Q1amfPos52dHV27dctX/++89Rb79+3Dz8+P++rWJSAwgDr31aFGjRrMnvUTsbGxtGvfjgYNG1Lv/vvv6FpMJhMjhg0nMjKS2gG1eeW11/D3r016ejp79+5h+rRP2b9vH+PGjGXOvLl3dK6i9PX6E/x5zoS2by5ZEjKs8haD3DXsACcOvfUuthdDrR2M3GP69O3LR9M+sXYYIiJyj7NaduPo6Ejnrl35ddEiVq8K4o2pU3M94hx05X3etu3a4eHpma/+t27ZwoRJk3h+2FCLLSMe6dCBFcuXExsbS+s2bQpl9eawsDCOhoTg6urK3PkL8CxzLVb/2v54enoyasRI/vxzF1lZWXftY87pmTl75NqTRdMKd2eMcnuysuGv8zl/rl3GgJezZvjuRelZBvZG59z7CVPepF5ZKwck95QXhg4lIyPD2mGIiIhYd0qvd5/e/LpoERcuXMj1iPPxY8c5deoUkLNqc3516tKZocOHFVqsN5MQH0+Hjh0JrBNokfBeVaNGDSDnnd/LSUn5TuCLm6eDkSWvPmztMOQOJKRm4f/GLgDGda1Nj/rKdu5FYRfTeODDPQDcV/c+WtT0sHJEci+xtdVe1SIicnewatLbtFkzKlSowNmzZ1m5wvIR56urOpcuXZq27drlu+/OXboUWpy30qhxY77+7ttc5dnZ2Zw7d445P80utlhERERERETkGqsmvQaDgZ69e/PVjBmsCQrizbeuPeIctCoIgK7duuHg4JDvvitUqFCosd5KdnY2WzZvZvu2bZw8cYKIiEjOnT1LVlZWscYhIiIiIiIi11j9xc1efXKS3gsXLrBn926aPfAAJ0JD+efkSfPxgrj+Pd7CZMrj1cj09HRGjRjJpo0bzWXOzs7UrFmT2oEBVK9eg8+mTSuSeEREREREROTGrJ70Vq9enfr163Pw4EFWrlhJswceIOjK3ryVq1ShUePGVo7QUlLSpVxl//3gAzZt3IijoyMjR42i3SPtCQgIMCfeJ0JDlfSKiIiIiIhYwV2xl0mvPjl78K4JCiI7O5tVV1Zt7tW7YLO8hcGYZcyz7Ez4mVzlfyz+HYBXx4zhxZdGERgYaDHTnJSUVHSBioiIiIiIyA3dFUlvt+7dsbOz4+LFiyyYN4+TJ04A0Kt3r2KNw82tlPnPkZGRuY6vW7uWxMREi7LU1FRzUlv9yirNebUTERERERGR4ndXJL2eZTxp0/ZhAD784EMAGjdpQuUqVYrkfHZ29gBER8dYlNcOqI2tXc4WC7NmzrQ4dvToUaa+8UauvpydnfH19QVgw/p1FseMRiM/z57DD999by7L1MJWIiIiIiIixeauSHoBevfOecQ5NSUFKPgCVrejWrVqAHz3zTd079KVWT/+CICjoyPde/QAYO6cOfTt2YvJEyfyeJ++9O7eAzt7ex7p0CFXf08+/RQAixYsZNDTA/jko4+ZPHEiHdq15+2pU+neowd2djmvT78+cSKrVqwssmsTERERERGRa+6apLfdI+1xd3cHwN7eni5duxbZuUa9/BIVK1XCaDRyNCSEM2euvaf7n/ffp0u3rhgMBg4ePMgvCxexf98+atSswZx5cynjVSZXf8NHjODZIUOwtbNlR3Aw33z1Fb8sXERKcjJvTJ3KtOmfMXDQIAA2btjI/n37iuzaRERERERE5BqDyZTXJjz3huioKLJNJrzLeZsfa74qMiKCo0ePkp6eTuXKVbi//v237C8mOpqjR4+SlJREhQoVqHf//eYZXsh5TzgxIYGatWrh6OhY6Ndzp0b/vJ8FB5Pxdkjn8PvtrR2O3IGE1Cz839gFwA8DA+hRv6yVIxJrCLuYxgMf7gFg8Qt1aVXTw8oRyb2kQd16PNy2LdO/+NzaoYiIyD3O6lsWWVN5H58bHqtYqRIVK1XKV3/e5cvjXb78jfusWJGKFSvmq08REREREREpuLvm8WYRERERERGRwqakV0REREREREosJb0iIiIiIiJSYinpFRERERERkRJLSa+IiIiIiIiUWEp6RUREREREpMRS0isiIiIiIiIllpJeERERERERKbGU9IqIiIiIiEiJpaRXRERERERESiy7oj7BxvUbSEhMAODRTp1wdXW9o/6OHTtGyJEjeHl50ebhh4u8nYiIiIiIiPzvKtKkNy4ujpEvvEBWVhYAWZlZPNG/3x31uXH9ej79ZBpNmjbJV/Ja0HYiIiIiIiLyv6tIH29eumSJOeEF+OP334vydCIiIiIiIiIWijTp/f3X3wDwr+0PwJ7duzl79mxRnlJERERERETErMgebz4aEsLRo0cBmPbZZ/Tt1ZuMjAyWLVnCiBdfLKrTSiG4kG5H7UkbrR1GkcnIyCA9PR0XZxds7WytHU6RMGEA7AEYPf8w4xZmWzcgK0lNTcVoNOLi4oKNzb23bl+26do4WLFsOSHOydYNSO4pGRkZ1g5BREQEKMKk97dffwWgcZMmBNapQ5uHH2bd2rUs+f2PWya9xiwjv/++mOBt20lIiKdipUp06tyZlq1aFXo7o9HI77/lzEh379kTg8HA/Hnz2LljB127daNnr17mupGRkSxbsoSQkBASExIpW7YsLVu3omevXtjZ5f1RxsTE8MvCRfxz8iSxsbF4eXnRpFlTuvfogbu7e6G1KQwu9gYATAZb4jNLZjIIgMEBnNy4ZAIyrR1M0Us22pFstHYUVmLnAHaQaATu1c/gil9+noVtfJi1w5B7jGcZT2uHICIiUjRJb1ZWFsuWLgWgV5/eAHTp1pV1a9fyzz//cOjvQ9S7v16ebePi4hg1YiR//fmnRfnC+Qvo92R/fH39CrWd0Whk0oSJADRt9gDjxoxh/759ANStey3GoJWrGD9uHKkpKRbtly9bxrIlS/jym29wc3OzOPbrokVMfePNXN92L1+2jC8//4LvZ/7IfXXr3nGbwjK2awCO9idJzijZs4JrglYTFxdHLX9/mjRtYu1wiszZxCyS0rOpXc4Bg8Ha0RQ/k8nEwvkLAHjgwQeoXqOGlSOyjmyjEb9SNjzx8k/WDkXuQb5+ef/bKyIiUpyKJOnduGED8XHx2Nvb06VrVwDat38ER0dH0tPTWbrkjzyTXpPJxOABAzkaEoKbmxuDn32G+vUbkJqWyoply1m0YCEVKlQotHb/9s5bb7F/3z78/Py4r25dAgIDAJg3dy5Tp7wBwEPNm9O1Wzc8PD04cvgIP8+eTfD2YAYPGMjiJX+Y+zp48CBTXn8dU7aJ555/ng4dO2JjYyAsLIxZP/7I8WPHGf3SS6zdsMH82GVB2hQmr1JOvNW3aBLqu8mxnyeREhJC64YDefvJ56wdjhSR7OxslkzOeVKj34CGPNH/fitHJCIiIiLWUCRJ7+Irjwu3a9+e0qVLA+Di6sLDbduyZvVqli9dxqTJr+d6n3LVypUcDQnB1taWGV9/TctWLc3HunbrxqgRI1kdFJTrfAVt929bt2xhwqRJPD9sKIYrU2OpKSlM//RTAJ4dMoTJU143H+vUuTN9HutLnx49OXjgAMHbg2nRsgUA61avwZhl5In+/Zg85XXzORo3aUKnzp15uGUrToedZkfwDnO8BWkjIiIiIiIiN1bo04WxsbFs3rQJuPZo81VdunU119m2bWuutnPn/AxAt+7d80zq3vvwgzwXHipou3/r1KUzQ4cPMye1APPnzSM+Lp6q1aoyfuIEi2MA1apVY9AzgwGY/dMsc3lo6HEAPD1zv8/k5ubGex9+wFvvvI23t/cdtREREREREZEbK/SZ3qV//IExy4iHhwcPt21rcaxdu3Y4OTmRlpbGkt//yHX81D//AND8ymzpv5UuXZr69Ruwb+/eQmn3b527dMlVtmf3HgDatm2Hvb19nu2at2jBl1/M4MC+/eayqtWqAxuZ+cOPZKRn0LFTJxo2amhe8OrRTp1y9VOQNiIiIiIiInJjhZ70Xn202b10aaZ9/HGu46U9PEiLimL9unUkJyfj6uoKQHJyMrGxsQA3ff82MDDQInktaLu85NU+4swZADZs2EBISEie7dJSU4GcxbTS09NxdHRk+IgXWLtmDZEREcyaOZNZM2fi7OJC48aNad2mNZ27dsXX19ein4K0kcIXHxePh6dHrll9KVlMJhMJ8QlaXVZERESkhCvUpPfI4cMcP5bziO6Z8HB++O77G9ZNS0tjdVAQfR97DACb6xKMmy3SVKpUKYufC9ouL3klOefPnwdyrudMePgt+4g6H0WVqlXw8vJi5eog5s+dx+qgIA4fPkRqSgrbt21j+7ZtfPDe+zw9cCCTp7yOg4MDQIHaSOHauH4DL44YwZQ33+DpgQOtHY4UEaPRyJhXXmXtmjXs3r/P/OWbiIiIiJQ8hZr0Xp3l9fD0pGXLGy+0tGvnTi5evMiS3/8wJ73OLi64u7tz6dIloqOjb9g2MTHR4ueCtrtdXl5eJCYm8vIro3lh5Mhb1r/+EWhXV1eGDh/G0OHDSElOYd++vWzbuo3Vq1Zx9uxZ5s6Zg6enB6NfffWO2kjhuJrwlvfxof0jHawdjhSRqwnviuXLeXrAACW8IiIiIiVcoS1klZmZybKlywB4ot8TTP/i8xv+1/+pJwH4c9cuos5Hmfu4uo/m1dnivISGhuYqK2i721G1ejUAzp87j4ODQ57/ZWZmEnr8OKHHj2MwGEhJTmHTxo1s2rgRk8kE5Kxe3bJVKya9PpmNW7bQoWNHADZtzFn0qyBtpPBs2byZUSNH4u3tzdz58/Dx9bF2SFIEjEYj48eOZcXy5TzRvx9T33nb2iGJiIiISBErtKR3w/r1JMTHA9CzV++b1u3WvTuQs4/msqVLzeV9HusLwO+LF2PMMuZqFxYWxqG//85VXtB2t6NJk6YArFu3jsuXL+dZ56eZs+jVvQdjXxsDQHp6OkOfG8LQ54aYF9m6nq2dLU2b5fTr4uJS4DZSOLZs3syIYcMpV64c8xYuoGKlStYOSYrA1YR36R9LeKJ/P/7z/vtFst+1iIiIiNxdCu03vt+vPNpcO6A2tQNq37RuzVq18K/tD8CSP343l/fo2RMXVxdioqMZP3YsRuO1BDY6Kooxr7xCRkZGrv4K2u52DBw8CO/y5UmIj2fC2HEkJSVZHF+zejUzPv8cgCFDnwfAs4wngYGBALz/n/dyJcsJCQnmR8EbNW5c4DZy55Tw3huys7OV8IqIiIjcowymq8/S3oGLFy/S4sEHMWYZmTBpEkOHD7tlm69mzODTT6YBsHzVSgLr1AFgR3Aww4Y8T1paGj6+PjRr9gAZGRls3bqFlOQU2rVvx8YNG2nStAkLf/3V3F9B22VkZFDHPydJX7zkD+o3aJAr1vXr1jF61Eukp6dTpkwZGjRqiFcZL0JCQjhy+DCQs8fvjK++MrfZsG49LwwbhslkwrOMJ/ffXx8/Pz/i4+PZtnUrycnJVKlahT+WLcPd3b3AbST/unfpytGQENq2b0/wtm1KeEuo7Oxs/KvnvPrQoGFDDuzfr4RXRERE5B5UKEnvj99/zwfv5fwiuTU4+Lbehww/HU77hx8G4Lnnn2fylNfNx4K3BzN+7Fiio66972tvb8/Y8eMoW64cY155NVfyWtB2t5P0Ahw9epRXXx7NyRMnLMqdXVx4bshzvPzKK9ja2locW70qiA8/+IDIiAiLcoPBQJeuXRk3cQIVK1a84zaSP1eTXhsbW3x9fZTwllDXJ72AEl4RERGRe1ShJL1FwWg0cmD/fs6ePYuTkxPNmjXDw/PW+2kWtN3tMJlMhBw5wunTp8nKzMKrbFkaNGyAm5vbTdudCA0lPDycy0mXKe9Tnho1a+Lt7V3obeT2tG3dhogzZ3B1dWPl6lW3lfCeOnWKg/sPEB8fR9Vq1WnTpg22dra3bCfWk5mZSWCtnNcomjZrxryFC26Y8O4IDub4sWM8O2TIDfu7cOECWzZvJj4unqrVqtK2XTvs7Ap9q3MRERERKWR3bdIrUhS2bN7MkGefA5OJnr17M+2zT29a35hl5OOP/ptrz+mKFSvy3Y8/mt9Nl7uL0Whk3JgxLFuSs1Deex98QL8n++dZ12Qy0aNLV+IT4tm+c2eedbZs3szI4S+Qnp5uLqtWrRq/LF6MZ5nC+VJNRERERIqGnvOTe8bVRavsr8zO3WqGHmDe3Ln88N33PNKhA2s2rOevfXuZ9tlnJCYmMmzIEFJTU4s6bMmnq6s0X014Ief1gH8zmUycDjvNpPETOHr06A37O3XqFK+89DIenp7MnjuXnbv/4o2pUzl9+jSjRo7Mc8V4EREREbl76Nk8uSdcv0qzs4tLrnezb+TrL7/E19eX/5vxBY6OjgD07N2LS5cu8fbUqWzZvJlOnTsXZeiSD9dvS/R4vyf4ddEveda7fPkyTRs2IjMz85Z9fv/NtyQlJfHdjz/QtFkzAAY/+wxnzoQze9ZPBAdvp3WbNoV6HSIiIiJSeDTTKyXev7clsre3v612Fy9e5MKFCzzUvLk54b3qoeYPAbBx/YZCj1cK5t/78L773ns3rOvo6Mjrb0zhrXfe5q133sbV1TXPetnZ2WzcsAE/Pz9zwntVj169ANigMSAiIiJyV9NMr5Rod7IP7/Xvb/5bcnIykPPoq1jfvxPe/7z//k3r29vbM2DQIPPPX34xI896EWciiI2NpUu3rrmO3X///dja2bJv7947C15EREREipRmeqXEupOEF8DPzw9XV1cOHjxIdna2xbG//vwLgISE+EKLVwomr4S3sLYliouLBcDTs0yuYwaDgdLupYmLiyuUc4mIiIhI0VDSKyXSn7t28cLQYZT38WHBr78UaB9eg8HAwMGD+efkSV6fNJmIM2dITExk2dKlfD59OjY2NtgY9L+QtU2ZNJmlfyzhqaef5r0PPijUfXgvX74MgJtb3o8/u7q5cTkpqdDOJyIiIiKFT483S4kUHx/PfXXr8vmXM/Dz8ytwPy+NfplzZ8/y66JF/Lpokbm8/1NPsnpVEGXLlSuMcOUOJKck8+yQIUye8nqeqzTfCffSpQFIupR3YpuUlETpK3VERERE5O6kpFdKpE6dOxfKqsqOjo58+n/TGTp8GIcPHcJgY0PjJk1wcnJi4fwFNGjYoBCilTvx+Yy838ctDF5eXgDExsbmOmbMMnIpMZFKlSoW2flFRERE5M4p6RW5AZPJxO6//sLT05PAOnUIrFPHfOzXX3K2wmncuIm1wpNiULFiRSpUqMDuv/4iOzvb4tHpPXt2k52dzQMPPmjFCEVERETkVvRCosgNGAwGXhwxgpdeHGVRbjQa+Xn2HDw8PXmoeXMrRSfFpX2HR4iLi2Pd2rUW5b8szHncvf0jj1gjLBERERG5TUp6RW6i/5NPcfLECf77wQfEREdz8sQJXh09mpAjR3ht7BhcXF2sHaIUsREvvkh5Hx8mjhvPgvnz2bN7D+++/TZLlyyhW/fuufbvFREREZG7ix5vFrmJl0a/TEJ8PN9/+x3ff/sdkPOe79gJ43nq6aetHJ0Uh3LlyvHt998x7PmhvDH5dXN58xYt+PDjj6wYmYiIiIjcDiW9Ijfh4ODAu++/x2tjx3LkyBEMBgN16tTBs4yntUOTQrRz9183PV63Xj02b9vKgf37iY+Pp0rVqgQEBBRTdCIiIiJyJ5T0itwGzzKetGzV0tphiBU5ODjQ7IEHrB2GiIiIiOST3ukVERERERGREktJr4iIiIiIiJRYSnpFRERERESkxFLSKyIiIiIiIiWWkl4REREREREpsZT0ioiIiIiISImlpFdERERERERKLCW9IiIiIiIiUmIp6RUREREREZESy87aAYiIiIiIWNPGDRtJSIi/4XF7e3uqV69OjZo1cXJyyrNOZGQkf/35Jw4ODnTr3r2oQi2QmOhotm/fjq2NLT179/qfiqEw7o2Ikl4RERERuad98X/TOfT3oVvWs7e3Z9gLwxk5ahSOjo4Wxw4eOMD4MWPxLON51yW9x48fZ/yYsTg6Olot6S1oDIVxb0SU9IqIiIiIAJ5lPPH3r21Rlp2dTXx8POGnT5OZmcmXX8zg4IED/PTzz1aK8t6keyN3QkmviIiIiAjQpElTvv7u2zyPxcbG8s7Ut1i5YgXbt23n98WL6dO3bzFHWDCNGjdmedAqDAaDtUMpsJJ6b6R4aCErEREREZFb8PLy4uNPp1G2bFkA1q9dZ+WIbp+rqyuBgYEEBARYO5Qi8b98b6R4aKZXREREROQ2ODg4ULdePTZv2sSxY8duWjcmJoZ5P//M0ZAQbGxsqVmrFk8NeBo/Pz9znT937eJMeDiOTk706Nkzz36MRiO///YbAPUbNMS/tr/FOX5ZuIh/Tp4kNjYWLy8vmjRrSvcePXB3dzfXizofxbatW7CxtaXvY4/leZ4D+/ezauUqTp8OA+C+++6jVevWNGrcOO+4soysWrWSPbv3EBV1nrTUVCpUrEjr1m14pGMH7OyKN8241b25k3hXBwWxYf16YqKj8fX1o83DD9OpS2cizpzhz1278Cpbjnbt2+VqFxkZybIlSwgJCSExIZGyZcvSsnUrevbqVeyfz71On7aIiIiIyG26fDkJAFcXlxvWOXL4MIOeHkBiYqK5bP26dXz/3bd88913tG2XkyCdDjvN65MmAdCwYUMqVa6cq6+//vyTSRMmArA8aJW5/NdFi5j6xptkZGRY1F++bBlffv4F38/8kfvq1gXgxIlQJk2YiKOjY66k12g08uknn/Dt199YlG9cv4EZn3/B8BEjGDt+nMWxyMhIBvR/ksjIyFzx/rJwEQ0bNWLGV19S3sfnhp9RUbjRvSlovKmpqUwaP4EVy5dblP/266+0e6Q9HTp2ZNKEiTRp2iRX0hu0chXjx40jNSXFonz5smUsW7KEL7/5Bjc3twJfq+SPkl4RERERkdtw4cIFQkJCAKhZq1aedVKSUxj09AAcHByYMGkSNWvV5OKFC/w0axbHjx1nzCuvsnbjBsqWLUvnrl14e+pUMjIyWB20mqHDh+Xqb/WqIABqB9QmMDAQgIMHDzLl9dcxZZt47vnn6dCxIzY2BsLCwpj1448cP3ac0S+9xNoNG7CxufnbjKNfeonVq4KwtcuZBX6oeXNMJhOrVqxk/bp1fPPVV9SpU4cu3boCYDKZGDFsOJGRkdQOqM0rr72Gv39t0tPT2bt3D9Onfcr+ffsYN2Ysc+bNLfBnnV83ujd3Eu+YV15l7Zo12NvbM2DgQJo+0AyTycTmjZv49ZdfCD12PM9Y5s2dy9QpbwDwUPPmdO3WDQ9PD44cPsLPs2cTvD2YwQMGsnjJH0X0aci/KekVEREREbmFgwcP8s7Ut0hJzpm5e+a5Z/Osl56eTtmyZVketMriEeMOjz5Kq4eac+nSJTasW0+/J/vj7u5Ou/btWR0UxOqgoFxJb3Z2NmtWrwagd59rCzOtW70GY5aRJ/r3Y/KU183ljZs0oVPnzjzcshWnw06zI3gHLVu1vOE17du7l9WrgjAYDEz77DOLrZZ69OzJpPET+PWXX/i/6dPNSW9YWBhHQ0JwdXVl7vwFeJbxNLfxr+2Pp6cno0aM5M8/d5GVlVUsj/He7N4UNN5Dfx9i7Zo1ALzzn3d5vF8/c7tHO3WilLs7M3/4IVcsqSkpTP/0UwCeHTKEyVNeNy8g1qlzZ/o81pc+PXpy8MABgrcH06Jli0L+NCQvSnpFRERERIDt27bxcMtWFmXZ2dnExsaSnp5uLhv0zGDqN2hww34mTJpkkfACeHh4ULdeXXb/tZuIiAhzec/evVgdFMTBAwc4d+6cxTu/e/fs4eLFi9ja2tKjZw9zeWhozgyjp+e1BO4qNzc33vvwAy7ExODt7X3T6/3yixkAtGjZIs+9hYeNeIFff/mFf06eJCE+Hg9PTxLi4+nQsSOBdQItEsiratSoAeS8Q3s5KQmPPGIsiILem4LGO+/KtkcNGja0SHivGj9xAsuXLuXChQsW5fPnzSM+Lp6q1aoyfuKEXCtmV6tWjUHPDObLL2Yw+6dZSnqLiZJeERERERFy3uHM671PAIPBQKXKlRnx4kgef+KJm/bTpGmTPMtLl/YAID0tzVz2cNu2eHh4kJCQwJrVq3n2uefMx4JW5bzD27xFC7zLlzeXV61WHdjIzB9+JCM9g46dOtGwUUPzLOWjnTrd+mKB3bv/AqBrt255Hq9WrRpbgrcD4Hrl/dNGjRvnuXVQdnY2586dY85Ps2/r3PlV0HtT0HhPnToFcMOk1M7OjoeaN2fZ0qUW5Xt27wGgbdt22Nvb59m2eYsWfPnFDA7s25/ncSl8SnpFRERERMhJVl8bOzZXub29PbX8/W9r4SFnFxeLBPV6ee2Ta29vT5euXZk/bx5rgoLMSa/JZGJ10JVHm/v2sWgzfMQLrF2zhsiICGbNnMmsmTNxdnGhcePGtG7Tms5du+Lr63vTOOPi4syPA1epWvWG9SpUqJCrLDs7my2bN7N92zZOnjhBREQk586eJSsr66bnvBN3cm8KEm/46dMA+Pnlvv6rAgIDcyW9EWfOALBhwwbzO8b/lpaaCuTcg/T0dBwdHW94DikcSnpFRERERABPzzI0e+CBO+rDySn/CUyvPr2ZP28ee/fsJSY6Gu/y5dm/bx8x0dG4uLrQoWNHi/peXl6sXB3E/LnzWB0UxOHDh0hNSWH7tm1s37aND957n6cHDmTylNdxcHDI85znz50z/zk/qwinp6czasRINm3caC5zdnamZs2a1A4MoHr1Gnw2bVo+P4FbK+i9KWi8VxcAs7HJ/UXFVaXcSxl0Z08AACAASURBVOUqO3/+PABnwsM5Ex5+y/iizkdRpWqVW9aTO6OkV0RERETEiho1bkylypWJOHOGtWvWMGDQIIKurNrcuXMXnJ2dc7VxdXVl6PBhDB0+jJTkFPbt28u2rdtYvWoVZ8+eZe6cOXh6ejD61VfzPKeXV1nzn6/fWulW/vvBB2zauBFHR0dGjhpFu0faExAQYJ7FPhEaWiRJb0EVNF4fXx8uXLhATMyFXMeuyutz8/LyIjExkZdfGc0LI0feMr4bPQIthevma5iLiIiIiEiR69W7F4D5keY1QTlJ778fbU5JTmHTxo1s2rgRk8nE/7N333FVlv8fx9+HKYIDcaDinuRO1L65K82Zq2z8XGVWmg1z59ZKG1qZ9e1rpWVaaq5Uhgs1R6bmluFGUVRUVFBE4JzfH8jJE6CIHA4cXs/Hg0d4X/d1X59zP3hIb6/rvm5JKuheUM2aN9foMe8rePNm88zwxuCNGY5XyruU3O68zzYsNDTdc65du6a+vXqpb69eunz5siRp+dJlkqQhQ4fqzbcGy9fX12LZdmxs7IN9cCvLar2V72xwFR4eluG1j4YfSXOsYuVKkqSoc1FycXFJ9ysxMVFHwsN1JDw83SXvyH6EXgAAAMDGunTtJknatXOngjcE69y5cypdunSaJb0JCQka8Ep/DXilv04cP57mOo5OjmrUuJEkqeCdUJseg8Gghg0bSpJWr1qd7jn+q1dr29ZtCgsNk5eXl+Lj480hMTUU/tu6tWvv80lzzsPUm/qKqPVr1ynmSkya9pgrMdryxx9pjvv5pdz7devWKS4uLt1r/zhnrrp2fkbD3ht6/w+BbEHoBQAAAGysYqWKqle/vpKTkzX+zrt3u3TrZn62NJVnMU/5+vpKkj764MM0werq1ataumSJpJRl0/cybMRwGQwG7d+3T59+/LFFW1hYmD77+BNJ0v/17iUp5VnY1A2yNqxfZ3F+cnKyfv5pnr6f/Z35WKIVN7bKjIept2mzpipXvrxu376twYMGmTf9klJmwIcPHaorV66kGbN33z4qWaqUrsbEaOSw4WlmktcEBWnWzJmSpP4DXn34D4lM4ZleAAAAIBfo2q2b9u/bp/NR5yVJ3bp3S/e8d997T2+89po2b9qk1i1aqG7deipTpoxiYlJmH2/cuKEKFSvotTdev+d4tevU0YDXX9Psb/+n//33Wy1ftlxNmjTRzfib+mPTZiUmJqpKlSoa8Po/13nx/17SjM+ma9GvC3Xm9BnVrVdPV65c1o4/d+h0RISe6dJFAf7+SkpK0phRo9S1W3d16NQx+27SA8pqvQaDQd/Onq1eL72ov3bsUMvmzdS4cRO5uLho69YtirkSY34O+25ubm6a/MEUvTP4La0JCtKunTtV/9EG8irmpZCQEB0+dEiS1K5D+/u++grZh9ALAAAA5AKdOnfWB1MmKzkpWXXr1VWVqlXTPe/JNk/pq6+/1rSpUxV55ow2b9pkbjMYDOrYqZOGjxqpwoUL33fMEaNGqVbt2hr3/hhdvHBBq1aulJSye3GHTh310bRpFhtpvT5woGJirmreTz9q+7Zt2r5tmySpePHiGjdhgvr06ysvLy/NnTNHwRuCVaFCRZuG3oept0bNGvr5l1/09qA3deLECa0JSnne2tHRUe8NG6qkpCTN/OJLFShQwGLMp9q00ZIVyzXk7Xd07OhRBa/fYG5zK1hQr/R/RW+/+24O3QFIksGU+gQ8kE907tBRoSEh+r/evTVpymRblwMrMRqNql455fmdj6ZNU88XnrdxRQAA3N+TrVop4lSEPvjoI73w0ov3Pf/okSOKiIhQXGycSnmXUpWqVVWyZMkHHvf27dvau2ePzp8/rzJlyqpWrVoq6J7xM8EXL1xQaGioYmNjVbZsWdWpW1dOTv/Mp0VGRura1auqWq1arngP7cPUazKZdOjgIZ0+HSEnJyfVq1df3qW9NWXSJP0090e169Bes775Js2YJpNJIYcP69SpU0pKTJJX8eKq36D+A70iCtmDmV4AAAAgFziw/4AiTkWooHtBde7yTKb6VKteXdWqV3/osV1cXNTksccyfX7JUqVUslSpDNt9fHzk4+Pz0HVllwetNzQ0VEfCw+Xl5aVmzZurTt06qlO3jkWfnTv+kvTP5lX/ZjAYVKt2bdWqXTsbPgEeBqEXAAAAyAVmf/utJKnHs8/K3d3dxtXkb0fCwjV0yBA5Ozsr+I/N5g2xUi1fukyhd1719FSbp2xRIh4AoRcAAACwkd9XrNCOP3co5soVrV+3Ts7Oznr1tddsXVa+17bd0/L+xFvno87rue7dNXDQIFWtVk3Xr1/X9m3btODn+ZKkF156UT7lytm4WtwPoRcAAACwkbORkfpt0SJJKRskjR4zRmXLlrVxVXBzc9PCxYvVv9/LOn78uCaMG2/R7ujoqH6vvKxR779vowrxIAi9AAAAgI2069BBrq6uKujuLj8/v2x5PhfZw6dcOfmvCdK2rVu186+/dPXqVXkW9VQZn7Jq07atSpQoYesSkUmEXgAAAMBGKleurMqVK9u6DGTAyclJLVu1UstWrWxdCh6Cg60LAAAAAADAWgi9AAAAAAC7RegFAAAAANgtQi8AAAAAwG4RegEAAAAAdovdmwEAAIBcIikpSSt//12S5GBwUOcuz8jR0fGefYICA3Xz5k3VqFFDtWrXzokyH1jI4cMKCwtTyZIl1ax5c1uXg3yG0AsAAJDPnThxQvv27pUkNW7SRD4+Pvftcz7qvLZv3yZJ8n3kEfn6+lq1xvwiPj5eI4YOM//5+vXr6tOv7z37TPvwI0VGRuqNgQNzbehdExSkr7+apabNmhJ6keNY3gwAAJDPGZOTNWLoMI0YOkxzvv8+U33m//yzuU9cbJyVK8y/Znz2mS5euGDrMoA8jdALAACQz1WtVs08QxgUGCSj0XjfPkGBAZIkHx8f+TXys2p9+VlcXJymTJ5s6zKAPI3QCwAAAHXr3l2SdPHCBf29++97nhsaEqJTJ09Jkrp27yaDwWDt8vKl1GXAgf4B2rxpk22LAfIwnukFAACAOnd5RlM/+lDJSckKDPBXo8aNMjw3wD/A/H2Xbt1yorx86dmezykpKUk7/vxTE8aNV9C6tSpQoECm+1+8cMEclp97/vl0z9m8aZMuXrgg30ceUe06dSRJZ06f1o4//1SxYl56ss1TOh91Xgvmz1d4eJhcXV3VsKGfXur1f3JxcZEkBa/foIAAf0VfvChv79J6tmfPe/78SNK+vXu19LclOn06QoUKFVbjJk30XM/n5FawYIZ9IiMjtXLFCoWEhOja1WsqXry4mrVori5du8rJKW2sSU5O1rIlSyRJnbt0kcFg0C8LFujP7dvVsVMndena9b73EPaB0AsAAAB5eXmpefMW2rRxo4ICAjV2/Hg5OKS/KDAoICX01qtfX5UqVcrJMvMVg8GgKR99qI5Pt1PkmTOaNfMrDRsxPNP9jx07ptEjR0nKOPTO+f57bdu6TW++Ndgceg8cOKDRI0epfoMGMhgMenvwYN26dcvcJ9A/QKtXrdL8X3/Rpx9/rJ/m/mhxzaVLlui9YUM1aPDgdMf8ZtYsfT59hkwmk/lYUGCgFi9cqG+/my2fcuXS9An0D9CI4cMVf/OmxfFVK1dq5YoV+vrbb+Xh4WHRlpycbP78jRo30fChQ7V3zx5JUu3addKtDfaJ5c0AAACQJHXrcWeJ88WL+nv37nTPCQsL08mTJyVJ3e+cD+upVKmSOTx+P3u2jh09mmNjn42M1NuDB6twkSIaM36cZn//vXr16SMpZaa2w9Pt9NPcH9WyVStN/+JzTf/ic/MM7xczPtf+ffvSXHPf3n2a8dl0+TXy02czZuj7uXM0bOQIFS9eXGFhYer57HOKj4+36LNg/ny99eabir95U/95/HF98NFHmvXfbzTwzTfl4eGhbVu3qW+v3vf8LJMnTtTePXtUpkwZtWnbVjV9a2bTXUJewEwvAAAAJElPtWkjDw8PxcXFKcDfX40aN05zTqC/vyTJyclJHTt1yukS86XXB76hVStX6vixYxo3Zox+WbQoR56jjo6Olndpb/kHBalIkSKSpCeeelKRZ85o08aNOh0Roe49eujjzz4119O+Qwc1/8/junz5sgIDAlSvfn2La964cUN169XVvAUL5OzsLElq1bq1WrVurZ49eujihQuaP+9nDXj9NUlS/M2b+mLGDEnSy/376/2xY8xjtWvfXt2f7aHuz3TR/n37tG3rNjVt1jTdz/LH5s0aOXq0Xn1tAM+g50PM9AIAAECS5OrqqvYdO0qSggIC093FOfDO87ytn3hCRT09c7S+/MrZ2VkfTp0qg8GgXTt3aemd51Rzwqj33zcH3lQNHn1UkuTg4KCR74+2CJEuLi5q8p/HJEnnzp1L95ofTp1qDrypatasqb79XpYkzZ83z3z8lwULFHMlRhUrVdSIUSPTBNZKlSqZ32P8049zM/wc7Tq014DXXyPw5lOEXgAAAJh1656yMVV0dHSaJc7hYeE6ceKEpJRdm5Fz/Br5qecLKc/lTvtoqq7GxOTIuI82bJjmWIECrpKk8hXKy8vLK027p2cxSVLi7cQ0bSVKlJDvI4+kO1bqLO25c+fMzxDv3pXyM9i69RNpgnKqx5um9Nu3Z2+Gn6N9hw4ZtsH+sbwZAAAAZo0aN1bZsmV19uxZ+a+2XOIcGJCytLlIkSJq/cQTtiox3xo5erQ2rFuvS5cuadpHUzXt00+sOp6bm5tKly6dYXuhQoXSPe7gkPFsao2aGT9LW6ZMGUmSyWTS6YjTql6jus6cPi1J2rBhg0JCQtLtd+vOM8BXrlxRQkKCXF1d05xTtmzZDMeF/WOmFwAAAGYGg8H8GqI1gZZLnAMDAiVJHTt1Mr+uBjmncOHCGjdxgqSUHZJ37dz50Ne8awPlNAq4Fcj25cCFCqcflCXJwdHxn+/vBOeoqChJ0umICP21Y0e6X/v37zf3Ox91Pt1rs6w5fyP0AgAAwELXu5Y47961S5J09MgRHT92zKIdOa9jp05q2aqVTCaTxo0Zq6SkpIe6Xmzs9WyqLHOuX7uWYdvFCxfM35e+M+ubunz67XffUciR8Pt+la9Q3rofAHkSoRcAAAAWKleurHr16kmS/FenLGkOvPNu3vIVKqT7nCdyzqQPpsjNzU3Hjh7V97NnZ6pPclJyusdOR5zO7vLu6ejRYxm2hYeHS5JKliwpd3d3SVLFyinvgY46FyUXF5d0vxITE3UkPFxHwsOZ0UW6CL0AAABIo2v3lHfwpi5xDriza3PXbszy2pqPj4/eGTJEkjRr5leKyWBTKw+Pf5YSR0ZGpmlft3atrt1j5tUaLl64oL927Ei3bfHChZKk7j16mI/5+aW893fdunWKi4tLt9+Pc+aqa+dnNOy9odlcLewFoRcAAABpdOrcWU5OTrp06ZJ+XbBAx44elSR17dbVxpVBkl5+5RX5PvKIbt26pRs3bqR7To2aNeTolPKc7Nw5cyzaQkNDNWHcOKvXmZ6Rw4br+PHjFsc+mTZNBw8clIODg557/nnz8d59+6hkqVK6GhOjkcOGKzY21qLfmqAgzZo5U5LUf8Cr1i8eeRK7NwMAACANz2Keatm6lTasW69pU6dJkhr6+al8hQo2rgyS5OjkqI+mTVOPrl3TfZ+ylPLe5c7PPKMVy5Zr/rx5Orh/v2r41tTRI0d18MABeRUvrqfatNH6detyrO7qNarr2NFj6vh0O7Vo2UJFihbVnr//VsSpCDk4OOiTzz5ThYr//Iy5ublp8gdT9M7gt7QmKEi7du5U/UcbyKuYl0JCQnT40CFJKe/hfa5nzxz7HMhbmOkFAABAurp1S1niHH/zpiQ2sMpt6tStoz79+t7znA8++kgdOnWUwWDQ/v37tXjhIu3ds0dVqlbRvAXzVcyrWA5Vm6J+gwaa8eUXcnd3V/CGYC1fukwRpyJU1NNTn86Ynu7P2FNt2mjJiuWqWq2arly5ouD1G/Tb4sU6fOiQ3AoW1JtvDdaXX32Vo58DeYvBZLrXRuWA/encoaNCQ0L0f717a9KUybYuB1ZiNBpVvXIVSdJH06ap5wvP36cHAODfbt++rcf8Gun69etydnbWjt27VKRIEVuXhSyIPHNGoaGhSkhIUPnyFVS3Xl2b1hMXF6f9+/br0qVoeXt7q36DBum+X/duJpNJIYcP69SpU0pKTJJX8eKq36C+PDw8cqhq5FUsbwYAAEC6XFxctOfA/vufiFzPp1w5+ZQrZ+syzDw8PNS0WdMH6mMwGFSrdm3Vql3bSlXBXrG8GQAAAABgtwi9AAAAAAC7RegFAAAAANgtQi8AAAAAwG4RegEAAAAAdovQCwAAAACwW4ReAAAAAIDdIvQCAAAAAOwWoRcAAAAAYLecbF0AAAAArOva1Wvq/kwX3Yi/KW9v7xwbNzY2VgVcC8jZxTnHxgRgXZ6envp0xnQVL17c1qVkGqEXAADAjplMJg0eOFARpyMkSZeio3NqZEmGHBoLQE7avGmTejz7bLZdLzIyUoULF1bhwoWz7Zp3I/QCAADYsdWrVunPP/80/7lL165yK+hm9XGNRqMWL1ykatWrqaGfn9XHA2BdJpNJi35dKElKTkrO1mt/PfMrlS5TWm+/+262XjcVoRcAAMDOFS9RwjzDO2LUSJXKgSXOiYmJWrxwkR77z380YdIkq48HwLqMRqM59Gans2fPasXy5SpQoID6vvyyihQpku1jsJEVAACAHev8zDOa+vE0W5cBAOma9eVMJSYmKjY2Vj/NnWuVMQi9AAAAdsRkMmnVypVavWqVrUsBgHtKneVNNfeHObp27Vq2j0PoBQAAsBOJiYkaNuQ9DXn7HU3/9DNblwMA95Q6y5vKWrO9PNMLAABgB5KSkjRi6HCtWvm7JKlYsWL69OOPJUkRERG2LA0A0vj3LG+quT/MyfZnewm9AAAAdiDA398ceCVp/7592r9vnw0rAoCM/XuWN1XqbG927uTM8mYAAAA7EHv9uiTJYDColLe3xVdRT08bVwcA/8holjdVdj/by0wvAABAHpWUlKTPp0/XtWvXVK1aNUmSwcGg7374weK8Xbt2aspEXhsEIHfIaJY3VXbP9jLTCwAAkAeZTCaNGTVa//vvt1r4y69KTk62dUkAcF/3m+VNlZ2zvYReAACAPOjAgQNaumSJJOmZLl3k7Oxs44oA4P7uN8ubKjt3cib0AgAA5EGFCxdW+44d9N6woZr+xedycOB/6wDkbqcjIrR82bJMn59ds7080wsAAJBHxMbGat3atbqdcFuS1LRpM0nSol8Xaveu3bYsDQDu65tZXyspKSnT52fXs72EXgAAgDzAaDSq10sv6fDBQ7YuBQAe2OmICC1fnvlZ3lTZ8d5e1sEAAADkcrdv39Z777xL4AWQZ30z62slJz34hnvZ8WwvM70AAAC53KGDB7V61Srznxv6+WngoEEW52wKDtb8+fNzujQAuK+7Z3mrVa+ups2aqkaNGqpStaqKFy+uvr37qGTJkvr4008VHX1RR48eVejhEG3ZskWRZ87oxzlz1e+VV1S4cOEsjU/oBQAAyOUKFy6sps2a6vjxkzofdc7W5QDAA1ny2xK9Ofgt9XjuWZUtWzZNu6ODg5ydnVWxUkVVrFRRjRo3NrcdP3ZMixct1vKly9T35X5ZGp/QCwAAkMtVrVZNP82fr369+xB6AeQ57743JMs7zFepWlWjx7wvo9GY5fF5phcAACCXSU5K0pjRo9W3Vy8dCT9i63IA4KFkxyvVHuYazPQCAADkMuPGjNXiRYskSVFRUSrlXUqSHuhVHwCAFIReAACAXGTMqNHmwCtJ/fv1s10xAGAHWN4MAACQi/y1Y4etSwAAu8JMLwAAQC5iMBgkSTV9ffVog0ct2oKDg3X+fJQtygKAPIvQCwAAYEPJycma8dlnOnTwoMaOH28+XqJEcdWuW8fi3J27dkrnc7pCAMjbCL0AAAA2YjQa9dagN7V2zRpJUnz8LRtXBAD2h2d6AQAAbCQhIcEceAe8/prq1qtr44oAwP4w0wsAAGAjLi4u+urrr+Xu4a4WLVvauhwAsEuEXgAAABtxdHRU+44dcnTM/37zjdzd3a0+jtFolCTt3bNHn378sdXHA2BdJpPJ1iVkGaEXAAAghyQnJWni+AkK8PfXyNGj1fOF53O8hvnzfs7R8Q4dPKRDBw/l6JgAcDdCLwAAQA4Z9t5QrVq5UpLkVtAth0c3STIoaN1alShZ0uqjJSYm6jG/Rur54gsaOWqU1ccDYF1Go1GN/vUatbyC0AsAAJBDDh08KEnq0q2rOnXunMOjp7z/t1ChQipSpIjVR0tMTJQkubq45Mh4AKwr9ZGFvIjQCwAAkEPGTZygmzdvqk2bNjIYDLYuBwDyBUIvAACAlSQmJup8VJTcPTxUrFgxdmgGABvgPb0AAABWYDQaNeSdd9S6RUt99sknti4HAPItZnoBAACsYNbMmQoKCJQkeXkVz7FxTSZp3959FsdOHD+RY+MDQG5D6AUAALCCY8eOSZKee/55vTvk3Rwb12Q0avzYMTk2HgDkdoReAAAAKxg/caJGjBwpn3LlcnRcg8GgQW8Otjh26tQp+a9elaN1AEBuQegFAADIBiaTSWcjI+Xu7iHPYp4qXjznljTfzeBg0NPt21kc27VrJ6EXQL7FRlYAAAAPKTkpSWPff1+tmrfQ9M8+tXU5AIC7EHoBAAAe0gdTpmjRrwslSZUrV7ZxNQCAuxF6AQAAHlJ0dLQk6ZkuXfRy//42rgYAcDee6QUAAHhIEydP1shRo1SmTBkZDAarj3c7IUGX7gTtVHFxcVYfFwDyIkIvAADAQ8qpTatuxcdLkg4ePKhRI0fmyJgAkNcRegEAAPIIV9cCkqSyZX302H8es2g7cfy49u7da4uyACBXI/QCAADkEQaHlKXT3qW91b5DB4u2TcHBhF4ASAcbWQEAAAAA7BahFwAAAABgtwi9AAAAAAC7RegFAAAAANgtNrICAADIRRISEiRJe/fu04njJy3aLl2KTq8LAOAemOkFAAAAANgtZnoBAAByEVdXV0lSgwb11b5DR4u2OT/8oGNHj9qiLADIs5jpBQAAAADYLUIvAAAAAMBuEXoBAAAAAHaL0AsAAAAAsFtsZAUAAJCPjB0zRgUKFLD6OEajUZL0x+bNeuvNN60+HgDrMplMti4hywi9AAAA+cjunbvk4JBzi/3On4vS1ZirOTYeAPwboRcAACAfCVq3VqW8va0+TmJionyrVVfPF1/QhEmTrD4eAOsyGo2qXrmKrcvIEp7pBQAAAADYLUIvAAAAAMBuEXoBAAAAAHaL0AsAAAAAsFtsZAUAAGBPTNK2LVstDh0/fsxGxQCA7RF6AQAA7IjRaNTH06baugwAyDUIvQAAAHbE4OCgSZOnWBwLDw/Tgp9/tlFFAGBbhF4AAAA7YjBI9RvUtziWmHTbRtUAgO2xkRUAAAAAwG4RegEAAAAAdovQCwAAAACwWzzTCwAAkMdcvx6rkJAQi2NR56NsVA0A5G6EXgAAgDwiPv6mJOnokXDN+CzcxtUAQN5A6AUAAMgj3NwKSpIqV66itk8/bdF2+NAhbdnyhy3KAoBcjdALAACQx3gW85RfIz+LY3Gx17Vli40KAoBcjI2sAAAAAAB2i9ALAAAAALBbhF4AAAAAgN0i9AIAAAAA7BYbWQEAAOQiqa8l+nP7n9q9a7dFW0JCgi1KAoA8jdALAACQizg5OUuSinoWlXfp0hZtp06cVFxcnC3KAoA8i9ALAACQizg7p4ReX19fte/Q0aJtzg8/6NjRo7YoCwDyLJ7pBQAAAADYLUIvAAAAAMBuEXoBAAAAAHaL0AsAAAAAsFtsZAUAAJCPvNLvZfNmWdZkMpkkSQGr/bV3z16rjwcAGWGmFwAAAABgt5jpBQAAyEfm/DhXpby9rT5OYmKifKtVV4dOHTVh0iSrjwfAuoxGo6pXrmLrMrKEmV4AAAAAgN0i9AIAAAAA7BahFwAAAABgtwi9AAAAAAC7xUZWAAAAdsRkNGnpb0ssjkVGnrFRNQBge4ReAAAAO2IymfTTj3NtXQYA5BqEXgAAADvi4GDQ/7773uLYgQP79dWXM21UEQDYFqEXAADAnhgMad7DW/TMaRsVAwC2x0ZWAAAAAAC7RegFAAAAANgtQi8AAAAAwG7xTC8AAEAeYTKZJEmXoqP1x6bNFm1Hjx61RUkAkOsRegEAAPKIW7fiJUkRERGaN+8nG1cDAHkDoRcAACCPcHMrKEny9fXVs889Z9G2e/cuBQYE2qIsAMjVCL0AAAB5TEF3d1WoWNHi2MkTJ2xTDADkcmxkBQAAAACwW4ReAAAAAIDdIvQCAAAAAOwWz/QCAADkQklJSYqPj7c4Zkw22qgaAMi7CL0AAAC5yI24G5KkP7f/qT+3/2njagAg7yP0AgAA5CIFChSQJJUr56PKVapYtB3Yf0AxMTG2KAsA8ixCLwAAQC7i6OQoSapYqZKebtfeou3s2XOEXgB4QGxkBQAAAACwW4ReAAAAAIDdIvQCAAAAAOwWoRcAAAAAYLfYyAoAACAfademrRwccm7eY/GvC7Vyxe85Nh4A/BuhFwAAIB/xa9zI/FokazIajVoTGCTvMqX1SK1aVh8PgHWZTCYFBQTauowsIfQCAADkIx98+KFKeXtbfZzExET5VquuFi1basKkSVYfD4B1GY1GVa9c5f4n5kI80wsAAAAAsFuEXgAAAACA3SL0AgAAAADsFqEXAAAAAGC32MgKAADAjphMJn096yuLY9EXL9qoGgCwPUIvAABALnTu7DmdP39e3g+407LJaNKawCArVQUAeQ+hFwAAIBeKjIzUzC++kGexYvL1ranadepmqp+Do4NWrFxlcWzXrp2aMpHXVUT4TgAAIABJREFUBgHInwi9AAAAuVjMlSvavm27tm/bLidnZ0lSXGycjasCgLyDjawAAADyiKTERElSeHiYRo0YqV9//UVHjx61cVUAkLsx0wsAAJAHXboUrQ3r1mvDuvUqXryEihcvZuuSACBXYqYXAAAgj7t0KVphYeGSJGOyUd/9738KORxi46oAIHdgpheA3ZsyaZI+njrV1mUAQKbExaU8r3s7ISHL11i1cqVWrVypUqW81bhJYxUrXjy7ygOAPIfQC8AuGQwGeXh4KC4uTvHx8YqPj7d1SQDwQEzZcI0LF87Lf/Vq+ZTzyYarAUDeROgFYJcMBoN++HGudu/abetSAOCBfD97tmJiYuTk5KSkpKQsXcPBwUE1atZU02bN1LRZU504cYJXFgHItwi9AOxWQz8/NfTzs3UZAPBAlixerJiYGDk6Oj5Q6DUYDDKZTOZ/9PPy+mdJ84kTJ6xRKgDkCYReAACAPMpgMKhK1ary8/NTYkKCli5bJoODwSLwAkB+R+gFAADIYzw8PNSpc2f5+fmpqKenJGlTcLCNqwKA3InQCwAAkMsZDAaVr1BBN+Ju6NKlaNWoWVNPtWlj67IAIE8g9AIAAORGJpNKly6tKlWrqmrVKnL38NDKFb/buioAyHMIvQAAALlI6nt6E27fVlRUlKKiorR1yxYbVwUAeRehFwAAIBcpWLCgJKlatWqqVbuORdv2bVt18eJFW5QFAHkWoRcAACAXcXBwkCR5l/ZW4yaNLdoOHTpI6AWAB+Rg6wIAAAAAALAWQi8AAAAAwG4RegEAAAAAdotnegEAAPKR2NhYFXBzs/o4iYmJklJ2ob527ZrVxwNgXUaj0dYlZBmhFwAAIB9p16Ztjo63+NeFWvzrwhwdEwDuRugFAADIR3r16S13d3erj2M0GvXd/2ardp3aatqsmdXHA2BdJpNJs7/9n63LyBJCLwAAQD4ycNAglfL2tvo4iYmJ+u5/s9Xg0Uc1fORIq48HwLqMRmOeDb1sZAUAAAAAsFuEXgAAAACA3SL0AgAAAADsFqEXAAAAAGC32MgKAADAjpiMRo0fO8bi2HXekwsgHyP0AgAA2BGTDIqKOm9xLCEhwUbVAIDtEXoBAADsiIODQd/98IPFsV27dmrKxEk2qggAbItnegEAAAAAdovQCwAAAACwW4ReAAAAAIDdIvQCAAAAAOwWG1kBAADkEcnJyZKkEyeO69v/fmPRFn3xoi1KAoBcj9ALAACQRyQlJUmSYq/HKjQk9F9tibYoCQByPUIvAABAHuHq6ipJqle/vgYOGmTRtik4WPPnz7dFWQCQq/FMLwAAAADAbhF6AQAAAAB2i9ALAAAAALBbhF4AAAAAgN1iIysAAIBcxGQySZIuRV/SoQMHLdriYuNsURIA5GmEXgAAgFwkNi4l2IaGhio0NPQ+ZwMA7ofQCwAAkIsU8vDQ5UuXVLtOHTVu3MSibU1QoM6ePWujygAgbyL0AgAA5CIGg0GS5OlZVFWrVbVo++OPgrYoCQDyNEIvAOQBwRuCdfVqTIbtzs7Oqly5sqpUraoCBQrkYGU5Z9fOXTpz5nSW+jZr1kwlS5XK8tghhw8rLCxMJUuWVLPmzTPd7+KFC9q6dascHRzVpVvXLI8PAACyjtALAHnAV19+oYP/2tAmPc7Oznrtjdc1aPBgubq65kBlOWfhr7/o9+UrstR37ryfHir0rgkK0tdfzVLTZk0fKPSGh4drxNBhcnV1JfQCAGAjhF4AyEM8i3mqevUaFseMRqNiYmIUceqUEhMT9fVXs7R/3z79+PPPNqrSOkp7l1b1GtXTHL8ac1UXL16UJFWpWlWOjmnfxlewIEtCAQDIrwi9AJCH+Pk10n9n/y/dtsuXL2vyhInyX71aW7ds1bKlS9W9R48crtB6ho0coWEjR6Q5Pn/ePE0cP0GStGT5MhUqVCinSwPylPCwMEVHR1t9nKSkJEkpfzcdOnj/lSoAcjej0Wi1a7d+8kl5Ffey2vUJvQBgJ7y8vPTpjOn6a8cOXbp0SevXrrOr0Asge7zS7+UcHS9gtb8CVvvn6JgA8pYx48Za9fqEXgCwIy4uLqpdp442bdyosLCwNO3JSckKCPDX7l27df58lG7Fx6usj49atGipp9q2kZNTxr8WggIDtWH9el28cEGlS5dRy1at1K5De505fVp/7dghr+Il9MSTT6TbNzIyUitXrFBISIiuXb2m4sWLq1mL5urStes9x7SWh7kPkrRv714t/W2JTp+OUKFChdW4SRM91/M5uWVhGXVuuzewfyNGjVLhwoWtPk5ycrImjBunx/7zH3Xq3Nnq4wGwLpPJpHFjxti6jCzhtykA2Jm4uFhJkvu/AlhkZKR6vfCiIiMj0/RZvHCRGjz6qGZ987VKeXtbtMXHx2v0iJFavWqVxfElv/2mJ556Um3attXokaPk18gv3dAb6B+gEcOHK/7mTYvjq1au1MoVK/T1t9/Kw8MjS581K7J6H1J9M2uWPp8+QyaTyXwsKDBQixcu1LffzZZPuXKZriW33RvkD126dsnw5zs7JSYmasK4capWvZpeeOlFq48HwLqMRiOhFwBge9HR0QoJCZEkVa1WzXzcZDJp4GuvKzIyUjVq1tC7772n6tVrKCEhQX//vVtfTJ+hvXv2aPjQYZq3YL7FNYe+O0Rr16yRs7OzevXurUZNGstkMmlT8Eb9tnixjoSFZ1jPgvnzNWHsOEnSfx5/XB07dVJRz6I6fOiwfv7pJ23buk19e/XW0hXLrXA30nqY+yBJ+/bu07at29SocSM9/8KLKupZVGFhYfrxhzkKCwtTz2ef04ZNG+Xm5nbfWnLbvQEAwF4RegHATuzfv1+TJ0zUzRsps4b9Xvnnub2TJ08qNCRE7u7umv/Lr/Is5mluq16jujw9PTV44CD99dcOJSUlmZfVHjxwUGvXrJEkTf5gip57/nlzv6fbtVOhwoU15/vv060n/uZNfTFjhiTp5f799f7YMTIYDJKkdu3bq/uzPdT9mS7avy8lSDZt1jQb70b6snofUt24cUN169XVvAUL5OzsLElq1bq1WrVurZ49eujihQuaP+9nDXj9tXvWkRvvDQAA9irtex0AALnW1i1b1KpZc4uvFo83Va0aNdWjS1ft37dPktSnX1/Vq1/f3O9qTIzatG2r/gNetQh6qapUqSIp5VnXuNhY8/EFd157VL9BA4vAm2rEqJEqUaJEurX+smCBYq7EqGKlihoxaqQ51KWqVKmS+vTrK0n66ce5D3AXsi6r9+FuH06dag68qWrWrKm+dzYHmj9v3n3ryI33BgAAe0XoBYA8JD4+XpGRkRZf586dU0JCggwGg8pXqKCpn3ys8RMnWvR7tGFD/Xf2//T2u+9aHDcajYqMjNS8H39Kd7wTJ05IUoYzjU5OTvrP44+n27Z7125JUuvWT6QJiakeb5py3X179qb/gbNZVu9DqhIlSsj3kUfSbUu9R+fOndOtW7fueZ3ceG8AALBXLG8GgDzEr5Gf3hs2LM1xZ2dnVate/Z6bHhmNRm3etElbt2zRsaNHdeZMpM6dPWt+l2Z6Ik6dkiSVKVM2w3Nq+vpq5e+/pzl+5vRpSdKGDRvMzxn/2634eEnSlStXlJCQIFdX1wzHyS5ZuQ+patSsmWFbmTJlJKU8N3w64rSq16ie4bm59d7APhiNJg3o39/iWEJCgo2qAQDbI/QCQB7i6VlMjZs0eeB+CQkJGjxwkDYGB5uPubm5qWrVqqrhW1OVK1fR59Onp+nn4OBw57+GNG2pChUulO7xqKgoSdLpiAidjoi4b43no86rQsUK9z3vYWT1PqTK6LNKkoOj4z/f3+N+Sbnz3sB+GGRS6dKWuzNfv3ZNV2NibFQRANgWoRcA8oGPp07VxuBgubq6atDgwXriqSdVs2ZN87OkR48cSTfseZf2VnR0tC5ejM7w2teuXUv3uJeXl65du6a3331HbwwadN8aM1rmm52yeh9SXc/gs0rSxQsXzN+XvjPrm5HceG9gPwwODpr8wYcWx3bt2qkpEyfZqCIAsC1CLwDkA8uXLpMkDRk6VK++NiBNe2wGmzZVrlJFBw8cVHh4WIbXPhp+JN3jFStX0okTJxR1LkouLi7pnnPjxg2dvPPccO06de75GbJDVu9DqqNHj2XYFh6e8uqmkiVLyt3d/Z7XyY33BgAAe8VGVgBg5+Lj481hrvKd3Yn/bd3ateke79a9hyRp/dp1irmSdmlkzJUYbfnjj3T7+vk1Srn2unWKi4tL95wf58xV187PaNh7Q+/9IbLBw9yHVBcvXNBfO3ak27Z44UJJUvcePe5bS267NwAA2DNCLwDYOTc3N5UuXVqStGH9Oou25ORk/fzTPH0/+zvzscS7NnRq2qypypUvr9u3b2vwoEHmdwBLKcuahw8dqitXrqQ7bu++fVSyVCldjYnRyGHD08yirgkK0qyZMyVJ/Qe8+nAfMhMe5j7cbeSw4Tp+/LjFsU+mTdPBAwfl4OCQ7qud/i233RsAAHIDo9GorVu26shdq8hu376tLz//XF06ddZLz7+gzz75VNevX3+g67K8GQDygRf/7yXN+Gy6Fv26UGdOn1HdevV05cpl7fhzh05HROiZLl0U4O+vpKQkjRk1Sl27dVeHTh1lMBj07ezZ6vXSi/prxw61bN5MjRs3kYuLi7Zu3aKYKzEqV768eTfiu7m5uWnyB1P0zuC3tCYoSLt27lT9RxvIq5iXQkJCdPjQIUlSuw7t9VzPnrn6PqSqXqO6jh09po5Pt1OLli1UpGhR7fn7b0WcipCDg4M++eyzTG04lRvvDQAAtnT40CG989ZbOnXylCZOnmR+C8KHk6dowfz55vN2/vWXAgP8NW/BApUtm/HbJe5G6AWAfOD1gQMVE3NV8376Udu3bdP2bdskScWLF9e4CRPUp19feXl5ae6cOQreEKwKFSqaw16NmjX08y+/6O1Bb+rEiRNaExQkSXJ0dNR7w4YqKSlJM7/4UgUKFEgz7lNt2mjJiuUa8vY7Onb0qILXbzC3uRUsqFf6v5LmnbnW9DD3QZLqN2igQYMHa8LYcQre8M8O0EU9PTVuwnh16do107XktnuDvCEpMVGSFBoaqimTJ1u0xcU+2MwHAOQW169f16svv6Lo6GgVLVpUJUqWlCSdO3dOvyxYIElq07atGjVupKVLlig8LFyfffyJPp/5ZaauT+gFgDxg+cqVD9Xf0dFRY8aN1YDXBig0NFSxsbEqW7as6tStKyenlF8FY8aPU99XXta1q1dVtVo1i/41a9bUmg3rdejgIZ0+HSEnJyfVq1df3qW9NWVSyo6wHoXSf52Pr6+vAteuUcjhwzp16pSSEpPkVby46jeof8/3CmdWrz591KtPn0ydm9X7MGToUA0Z+s+zta1at9b+fft16VK0vL29Vb9Bg3Tfo9u8RQsdO3Uyw3qsfW9gf4y2LgAArOD35SsUHR2tGjVraNGSJebfgYH+/jKZTCpbtqxmffONHJ0c1f3ZZ9WyaTOtXrVKo8eOUck7AfleCL0AkI+ULFVKJUuVyrDdx8dHPj4+5j+HhobqSHi4vLy81Kx5c9WpW0d16lruJLxzx1+S/tmcKT0Gg0G1atdWrdq1H/ITZI8HvQ//5uHhoabNmmZLLbnt3iB3c7nz+ipfX18N/NfrrjYFB2v+XUsAASCv+Hv3bklS/wEDLP7R94/NmyVJHTp1lKOToySpaNGiata8udYEBenE8eOEXgDAwzkSFq6hQ4bI2dlZwX9sNm8ElWr50mUKDQ2VJD3V5ilblAgAAPK41E0xK1asaD6WlJSkPX/vkSQ1bdbM4vxixYpJks5Hnc/U9Qm9AIAMtW33tLw/8db5qPN6rnt3DRw0SFWrVdP169e1fds2Lfg5ZVbphZdelE+5cjauFgAA5EWenp6SpOTkfx7i2Ltnj+Lj4+Xo5KhHH21ocX5kZKQkqXDhwpm6PqEXAJAhNzc3LVy8WP37vazjx49rwrjxFu2Ojo7q98rLGvX++zaqEAAA5HVVqlaVJK1bu1aNGqc8LhUUGChJqlOnrgq6FzSfGxsbq0OHDkqSylcon6nrE3oBAPfkU66c/NcEadvWrdr511+6evWqPIt6qoxPWbVp21YlSpSwdYkAACAPe+HFF/TtN9/oxzlzdONGnIoWLWpeTdaufXtJkslk0onjx/XhlA/Mr0z898abGSH0AgDuy8nJSS1btVLLVq1sXQpg94x3lvedOROpzZs2W7TFXImxRUkAYFUlS5XSpCmTNXbMGC36daH5eLny5fXS//2fJGnTxo0a8Ep/SSmbQI56f3Smr0/oBQAAyEVuxt+UJJ06eVKnTmb8yisAsCfPPf+8qteooXVr1urIkXBVrFRZbwwaaLG0WZJ8H3lEQ957T0889WSmr03oBQAAyEU8PDwUHR2tRo0bqWWr1hZtvy1erIhTp2xTGABYWb369VWvfv1025o0eUy79uyRZzHPB74uoRcAACAXKlCggPm1HKmc77ynFwDym4LuBdPM+maWQzbXAgAAAADAQ0tISFDEqQiZTKaHug6hFwAAAACQK2zbuk2v9e+vxo82VK0aNfVkq1ZKTEzUoYMH1a5NW/22ePEDX5PlzQAABa/foKvXrkqSnm7XTu7u7g91vbCwMIUcPiwvL68H2vE5q/0AAEDeFhsbq369emv//v0ZnnPs6FGNHjFSf2zerC9mzpSjo2Omrk3oBZAjTpw4oX1790qSGjdpIh8fn/v2OR91Xtu3b5OUslOfr6+vVWvMr65cuaJBb7yhpKQkSVJSYpJ6vvD8Q10zeP16zfhsuvwa+T1QeM1qPwAAkHclJSXpzTcGav/+/SpUqJD69Ourx5s21SdTp5lDcKXKlTVk6FDNmjlTgf4Bqnznz5nB8mYAOcKYnKwRQ4dpxNBhmvP995nqM//nn8194mLjrFxh/vX7ihXmwCtJy5cts2E1AAAgv1mxfLm2b9umQoUKafnKlRoydKiaPPaYCri5mc9xd3fXm28N1hdfzZQkzflhjuLiMvf/h4ReADmiarVqqlW7tiQpKDBIRqPxvn2CAgMkST4+PvJr5GfV+vKzZb8tkSRVr1FdkrR71y6dPXvWliUBAIB8ZOsfWyRJvfv2VcVKFe957tPt2umRWrUUf/OmDtxjKfTdCL0Acky37t0lSRcvXNDfu/++57mhISE6dfKUJKlr924yGAzWLi9fCg0JUWhoqCRp+uefy8XFRSaTSStXrLBxZQAAIL+4fPmyJKlW7VqZOr9WrZTzoqOjM3U+z/QCyDGduzyjqR99qOSkZAUG+KtR40YZnhvgH2D+vku3bjlRXr605LffJEkN/fzk+8gjatmqldatXasVy5Zr4Jtv3rNvclKyli1bqm1bturq1Rj5lCundu3bq1nz5tnaLzk5WcuWpMxGd+7SRQaDQb8sWKA/t29Xx06d1KVrV4vzIyMjtXLFCoWEhOja1WsqXry4mrVori5du8rJKf1fexcvXtTihYt0/NgxXb58WV5eXvJr3Eidn3lGhQsXzrY+AAAgrSJFikiSrl29lqnzL126JElydsrcu8sJvQByjJeXl5o3b6FNGzcqKCBQY8ePl4ND+gtOggJSQm+9+vVVqVKlnCwz30hKStLK33+XlDKbLkkdOnXUurVrdfz4cR08cFB16tZJt++VK1c0eOAg7fzrL4vjC3/5Vc+/+IJKly6Tbf2Sk5M1euQoSVKjxk00fOhQ7d2zR5JUu7ZlfYH+ARoxfLjib960OL5q5UqtXLFCX3/7rTw8PCzaflu0SBPGjdft27fT9Pl65lf6bs4P5qX5D9MHAACkz/eRRxQUGKjVq1bpued73nOFX2xsrPbtS9kctVLlzP0/IqEXQI7q1qO7Nm3cqIsXL+rv3bvVqHHjNOeEhYXp5MmTkqTuPbrndIn5RvCGDYq5EiNnZ2d16NhRkvTkk0/J1dVVCQkJ+n3F8nRDr8lkUt9evRUaEiIPDw/1fbmf6tWrr/hb8Vq9cpUW/bpQZcuWzbZ+d5s8caL27tmjMmXKqFbt2qrpW9PctmD+fE0YO06S9J/HH1fHTp1U1LOoDh86rJ9/+knbtm5T3169tXTFcnOf/fv3a+yYMTIZTXrl1VfVpm1bOTgYdPLkSc394QeFh4Xrnbfe0toNG8z/QJOVPgAAIGNdunbRt//9r7Zv26apH36kEaNGprs6Ky4uTiOHDVfMlRhVq15dvo88kqnrE3oB5Kin2rSRh4eH4uLiFODvn27oDfT3lyQ5OTmpY6dOOV1ivrH0zpLhJ5580rysqKB7QbVq3VprgoK06veVGv3+GDk6Wb4DL8DfX6EhIXJ0dNSs//5XzZo3M7d17NRJgwcOUlBgYJrxstrvbn9s3qyRo0fr1dcGWPwrcPzNm/pixgxJ0sv9++v9sWPM7e3at1f3Z3uo+zNdtH/fPm3buk1NmzWVJK0LWqPkpGT1fOF5vT92jPl6Df381K59e7Vq1lynTp7S9m3bzfVmpQ8AAMiYT7ly+viTT/T24MGa8/332rhhg1q1bq2oqChJ0rfffKOoc1Fat26drsbEyNXVVZ/P/DLT1+efoAHkKFdXV7W/M6sYFBCY7i7OgXee5239xBMq6umZo/XlF5cvX9amjRsl/bO0OVWHTh3N52zZ8keavvPn/SxJ6tS5c7qh7sNpU9ME5Yfpd7d2HdprwOuvpVn29MuCBYq5EqOKlSpqxKiRadorVaqkPv36SpJ++nGu+fiRI+GSJM90fs48PDz04bSpmjh5kkqWLPlQfQAAwL116NRRk6ZMlmcxz5TVU3Pm6HREhCRp5hdf6rfFi3U1JkalvL315ayvVLNmzftc8R/M9ALIcd26d9NvixYpOjo6zRLn8LBwnThxQlLaMIbs8/vy5UpOSlbRokXVqnVri7YnnnhCBQoU0K1bt7Ri2fI07SeOH5ckPX5ntvTfihQponr16mvP35Y7dGe1393ad+iQ7vHdu3ZLklq3fkLOzulvavF406b6+qtZ2rdnr/lYxUqVJQVrzvc/6HbCbbVt104NHm1gXlL1dLt2aa6TlT4AAOD+/q93b3Xv0UO/LFig3bt268zp04qKipKXl5cqVq4kP79G6t23j9zuen9vZhB6AeS4Ro0bq2zZsjp79qz8V1sucQ4MSFnaXKRIEbV+4glblWj3Upc2Fy5SRNM//TRNe5GiRXXr/HmtX7dON27ckLu7uyTpxo0b5tcK3Ov5W19fX4vwmtV+/5ZR3zOnT0uSNmzYoJCQkHTPuRUfLyllM62EhAS5urrq9YFvaO2aNYo8c0Zz58zR3Dlz5FawoBo2bKgWLVuofceOKl26tMV1stIHAABkjlvBguo/YID6DxiQbdck9ALIcQaDQV26ddM3s2ZpTWCgxk+cYN7wJzAg5ZnOjp06ycXFxZZl2q3Dhw4pPCxlie7piAh9P/u7DM+9deuWggID1ePZZyVJDnctG77XJk2FChWy+HNW+/1bRrs5pj7zczoiwrwU6l7OR51XhYoV5OXlJf+gQP0yf4GCAgN16NBBxd+8qa1btmjrli2a+uFH+r/evfX+2DHmn8es9AEAe2U0GnXy5EmdPHFCZcuWVbXq1TN8PRxgK/xEArCJrt1TQm90dLR279qlxk2a6OiRIzp+7Ji5HdaROstb1NNTzZplvNHSjj//1KVLl7Ri2XJz6HUrWFCFCxfW9evXdeHChQz7Xrtm+Z69rPbLLC8vL127dk1vv/uO3hg06L7n370E2t3dXQNef00DXn9NN2/c1J49f2vLH1sUFBCgs2fPav68efL0LKp3hgx5qD4AYG+OHT2qkcNHaP++feZj5cuX18effZruRpWAJP2+fIXeH5XyKsKlv69QzZo1tXTJEo0fM/aBr3U4PCxT57GRFQCbqFy5surVqydJ8l+dsqQ58M67ectXqKBHGza0WW32LDExUSt/XylJ6vl8T33x1cwMv1546UVJ0l87duh81HnzNSpXqSJJ5tni9Bw5ciTNsaz2y4yKd97TF3UuSi4uLul+JSYm6kh4uI6Eh8tgMOjmjZvaGBysjcHBMplMklJ2r27WvLlGj3lfwZs3q03btpKkjcEpm35lpQ8A2KPLly+r14sv6cCB/RbHIyMj1a93n3v+XY/8LdmYrISEBCUkJJh/lxqT/zn2IF+ZxUwvAJvp2r279u/frzWBgZowaaIC7uza3LUbs7zWsmH9el2NiZEkdel67/vcqXNnzZr5lYxGo1b+/rtee+N1SVL3Z3to3969WrZ0qYa8916aHZdPnjypgwcOpLleVvtlhp9fIwWv36B169ZpTNw4eXh4pDnnxzlz9fn06aparZqC1q1VQkKCBrzSX5K0Zv06Vala1eJ8RydHNWrcSOvWrlXBggUlKUt9AMAefTF9hi5fvmwOLamMRqMSExM1cfx4/bp4kY2qQ27WrFkzzZ33k6SUlQGS1LxFS/Mxa2CmF4DNdOrcWU5OTrp06ZJ+XbBAx44elSR17dbVxpXZr2V3ljbXqFlDNWrWuOe5VatVU/Ua1SVJK5YvMx9/pksXFXQvqIsXLmjEsGFKTk42t104f15D331Xt2/fTnO9rPbLjN59+6hkqVK6GhOjkcOGKzY21qJ9TVCQZs2cKUnqP+BVSZJnMU/5+vpKkj764EPFxcVZ9Ll69ap5KXjqyoOs9AEAe7Rr1640gTeV0WjUnr//tvh7HkhVslQpNW/RQs3/n737Dm+63ts4fiddUFZbVhFoWS2UjbJxgYJsENzKEtlTcIAoiIB7IiCioAxFVEBAhozK1HMoR/Ys2JZVpLQFSge0SZ4/kD5UGaUk+SXp+3VdvZTf+tyey1N795t8c++92RtlBpcJzj52K1+5xUovAMMEBgXqvub3a92atXr7rbclSXfVr6+Q0FCDk3mmM2fOaMOGDZKkzg93ydUM5EFwAAAgAElEQVQ97Tt00IcHP9Chg4e0f98+RVSvrsKFC2v6jBnq2/s5LfnpJ/33v/9Rw4aNdOnSJW3cuEFpqWlq8UALRa6LzPGsvN6XGwULFtQbEydo2OAh+mXVKkVt3aq6d9ZT8aDi2rdvn/bu2SPp8uf8PvrYY9n3DR8xQv379tWG9evV/N57Vbt2Hd1xxx1KTk7Wpo0blZqaqtAKodmr3Hm9BwA8jbe3t2QySdcpvl5eXjfcuBC42pLFPykuLk7VIqqp1UMP2f35/JsIwFAP/12+0tPSJLGBlSNd+Wxes9msDh075uqedu07ZP/94kWLs/++abNm+vzLL1U6OFin4k9p6ZIlWrVypTIvZWr0mFfUrkOHaz0uz/flxoMtW+rHnxarSliYkpKSFLl2nX74/nvt3bNHBf39NWjIYH3y6ac57nmg5YP6dOpUlStfXslJydqwfr3mf/utVq1cqbS0NLVr316z581T0aJFb+seAPA0ze6++7qF12w2q9ndd193x33gn5b/vEyTP/5YP131s4Y9sdILwFAtHnwge1dfHx8ftW3XzuhIHisvn3kXWiFUh2Njrnmu2d3NtHHLZu3Yvl0nTpxQgQIF1LBhQwUEBkqSOnW+9svUb/U+X1/f62b4p4iICK1c/Yv27d2r2NhYZWVmqXiJEqpbr+413+crXV79bd22jaIPHVJcXJwupFxQ6eDSqlylikqVKmW3ewDAkwweOkTLly3T6dOnZbVas4+bzWb5+PpqzGuvGZgO7qZJ06aKXBepvXv2yGaz2f0XJpReAIby9fXVH//Y+RHuw8vLS3fVr6+76td3yn25YTKZVKNmTdWoWfOW7gsLD1dYeLjD7wEAT1CkSBHNmz9fo156UduitmUfD61QQe++/54qVKxgWDa4n6eeeUbLf16uHdu3a+YXX+q5vrf2S/qbofQCAAAAuGUVKlbQ/O+/19G4ozocHa1y5curSpXK8vKmYuDW2Gw2vffhB5rw+ni9/eab2rlzh9q0aas7yt5xw1XfOnXr5ur5/BsJAAAAIE9MJpNCK4QqtAKbUCLvli1ZotEvj8r+88rlK7Ty74+yvJHcvv2JjawAAAAAAB6LlV4AAAAAgGG6PPKIOj3suE/woPQCAAAAAAzj5eUlLy8vhz2flzcDAAAAAAyz/Y8/NH7cOG3auDFX1381c6bGjxsnS5YlV9dTegEAAADkybKlS9Wrew/d3biJnnr8CX096ytZsrKMjgU3czg6WnNnz9HuXbtydf2iHxdq7uw5SkhIyNX1vLwZAAAAwC17ceRILV64SGazWVarVX+dPq2t//2vVq5Yrnnz58vHx8foiHBRqampWrxwYfaf//jfH5KkHdu3a96cOTe896+/TuvQoUOSJLP5+h9ndDVKLwAAAIBbsmjhQi1euEiSZLVaJUm2v//6v23/08cffqgXX37ZsHxwbWfPntXrY8f963jkukhFrovM1TPKh4SoVOnSubqW0gvALjIzMzV00GAdOHDAqXPT09Pl7e3Nb5MBD1KsWDF98NGHqlylitFRAFzHDwsWyGwyyWqzXfP8gvnfUXpxXT7e3gqvGp7957Nnz+n0X3+pePHiKl6i+A3v9fb2UcWKFTVk2NBcz6P0ArCLw4cPa83q1UbHAOABjkla/csvGmDH0puYmKi01FSVDwmx2zOB/CzhdMJ1C68knTt3ThaLxaE78sJ9lSpdWit++SX7zz8sWKDRL49Sj149NXDwYLvPo/QCsAur5f93z+vStatKlirplLmzv/5aZcqUUauHHnLKPACONWf2HKWnpclisdr1uV/OmKHkpGS9/d67dn0ukF9VqlxJR48ezX5p89VMJpPKlS9H4UWuhYSGqtPDnRVetapDnk/pBWB33Xr0UK3atZwy6/sFCxQeXpWXUAEeYuEPPyo9Lc2uz0xOStY38+bpYsZF9Rs4QBUrVrTr84H86Lm+ffVr5K8ymaR/LvjabDb16z/AmGBwS40aN1ajxo0d9nxKLwAA8GgzPp+utNTLRfrzaZ+x2gvYQcNGjTTypRf14XvvyyarzDLJpsuF99HHH9fjTz5hdES4oYSEBEWuXadjx47pYkbGTa8fM/a1XD2X0gsAADzWlVXeKxYvWsRqL2An/QcMUJOmTbV44SIdjo5W+ZAQtW7TWvfdf7/R0eCGfo2M1Mjhz+v8+fO5vofSCwAA8r2rV3klyWKxsNoL2FGdOnVUp04do2PAzZ08eVL9+/aVJcsik8mkahERKlWqlHx9fe3yfEovAADwSP9c5b2C1V4AcC3fzp0nS5ZFpYODNW/+t3b//my269MAAABcxD9Xea+4stoLAHAN0YejJV1+ybwjfiFJ6QUAAB7nequ8VyxetEgxMTFOTAQAuB7b3x99VT6kvEOeT+kFAAAe53qrvFew2gsAriOienVJUmxMrEOeT+kFAAAe5WarvFew2gvcvvS0NG3csEFfzZqlNatX62xystGR4IaefuYZFfT31xczZujcuXN2fz6lFwAAeJSbrfJewWovcHv++5//6KEHW+rZHj016Y0JGtC3n1rcd7+WLllidDS4mVKlS2vylE917uxZtWvdWj8vW6aTJ0/KZrPZ5fns3gwAADxGbld5r2AnZyBvjsbFqc+zvZWRkZHj+IULKXrh+REqXbq0GjVubFA6uJt1a9bqs2nTVKRIEZ2KP6XhQ4ZKkgoWLKgCBQtc976oP/7I1fNZ6QUAAB4jt6u8V7DaC+TNxx9+pPT0dFn/3oDoCqv18srcpAkTjYgFN5WUlKgd27crISEhx/H09HQlJyVf9yu3WOkFAAAe4VZXea9gtRe4dXv27LnuS0+tVqsO7N8vi8UiLy8vJyeDO2rcpIk+mfKpw55P6QUAAB7hVld5r7iy2vv2e+86IBXgmQoV8pfZZJL1OsXXz8+PwotcKx8SovIhIQ57PqUXAAC4vcTERM2be3mVNyIiQk3vvlvVq1dXWHiYihcvrqGDBys5+azmffuNEpOSdOTwYe3ft0+/bdmivXv2avHiRRo4eJBCQkMN/icB3MODLVtp967d1zxnMpnUslUrJyeCJ7p48aJOxZ9SSGiITCZTnp9D6QUAAG5v2ZKl6tuvnx597DEFlwn+13mz2SyTyaRSpUurVOnSioiIUPsOHSRJZ86c0aIfF2rJT0s0ZNhQZ0cH3FKffn3187Klij4UneO4yWRSsWLF9MprrxqUDO5uy+Ytmv3VLO3YvkNJSUmSpH2HDurQwYN6YcRI9e7znB597LFbeialFwAAuL2ez/bK870lSpRQ3/797JgG8Hy+vr6av2CBJk2cqKU/LZHFYpHZbFbTZs008c1JKlGihNER4WZSUlLU85lu2rlz53WvORwdrdEvvayNGzbo48mTc/0SenZvBgAAAHDLAgID9d4HH2jXvr1avmqVtu/epa/nzlG58uWNjgY3k5WVpUH9B2jnzp0qUqSIBg0ZrG++m686depkX1OxUiU9P3KkfHx8tHL5Ck3++ONcP5+VXgAAAAB55ufnp6rVqhodA27sp8WL9duWLSpSpIgWL12qChUrSJIKFCyYfU2hQoU0aMhgVQmrokH9B2jWzFnq06+fChcufNPns9ILAAAAADDM5o2bJEndevTILrzX81Dr1qpeo4bS09K06wYvhb4apRcAAAAAYJjExERJUo2aNXJ1fY0al69LSEjI1fWUXgAAAACAYYoVKyZJOnf2XK6uP3PmjCTJx9snV9dTegEAAAAAhomoXl2S9POyZbLZbDe8NiUlRTt2bJckVaxUMVfPp/QCAAAAAAzTqXMnFfT3129btuitSW8qKyvrmtdduHBBL7/wopKTkhUWHp5dlm+G3ZsBAAAAAIYpV7683nn3XQ0dPFizvvxSv65bp/ubN1d8fLwkafq0aYo/Ga81a9bobHKy/Pz89NHkT3L9fEovAAAAAMBQbdu3U3Jykj7+6CPFxMQoJiYm+9zkj/+/4JYODtb4CW+oWrVquX42pReA3X02daqCigc5ZVZaWpr27d2rV195xSnzADjWhQsXJOmm7+kCAHiep7t1U5euXfXtN99oW9Q2HTt6VPHx8SpevLgqVKqo+vUbqFuP7ip41ef35galF4Ddrf7lF6fOO3bsmL77dr5TZwJwLIvVYnQEAIABCvr7q3efPurdp4/dnknpBWB3i5cuVa3atZwyq8Gdd6phw0aaOv0zp8wD4FiN6zfQmTNn5O3FjygAAPtg92YAAAAAgMei9AIAAAAAPBalFwAAAADgsSi9AAAAAACPxS4RAADA4wUEBPIxSACQT1F6gXzs+PHjKleunNExAMDhPpr8iawWq9ExAAAG4OXNQD42bPAQ3dfsbk0YP17boraxCgLAYxUoUED+hfyNjgEA+d7OnTt17ty523pGelqaXhk1KtfXU3qBfO7EiROa/dXXeuLRR3X/3fdQgAEAAOAwRw4fVq/u3XXhwoU83b93zx51bNde33+3INf3UHoBZKMAAwAAwNF27dylZ3v0VFpqWq7vsdls+nLGF3rk4S6KiYm5pXmUXgDXRAEGAACAvRUqVEiS9Mf//qfnnn1WGRkZN73n9OnT6tmtm95+801lZmZKkp546slcz6T0ArgpCjAAAADs4aHWrdW7Tx9J0tb//lf9+/TRpUuXrnv9ujVr1a51a23ZvEWSVLx4cc2YOVMT33wz1zPZvRn51vY//tB777xjdAxDxcfH3/I9Vwrw7K++VtmyZfVgq5Zq07adChTwc0BCAAAAeJrRY16RJM384gtt3rRZg/oP0GczPpe39//X04yMDL016U19M3du9rEHWj6ot955R0FBQbc0j9KLfMfLy0uStG/vXu3bu9fgNO7t6gJc5o4yRscBgFw5cviwSpUurSJFikiSVq1YqU2bNqps2bJq176DQiuEGpwQADzf1cX318hIDRs8RJOnTJGXt5cOHDig4UOG6nB0tCTJv5C/Xn1trB574vE8zaL0It/p3rOHPp/2mS79/X6A/OzUqVPKvMHLSXKjSliY2rZrq2oRERrYr7+dkgGA/WVkZGhA337atHGjFv60WHXq1tWihQv10sgXsq+ZMf1zfTFrlho0bGBgUgDIH64uvr+sWqWRzz+vuvXq6d23385+yXO9O+/UBx99qJDQvP9CktKLfKdL167q0rWr0TFcQtfOD2vnjh23fN+Votu+Y0dVqlRJ0uXt4wHAlY0d86o2bdyo1m3bKDg4WJI0bcoUeXl56Z333pOvr6/Gvvqqxo8dq2UrV8hkMhmcGAA839XF9+dly/TzsmWSJC9vLw0ZOkwDBg3MfqVmXlF6AeTKtYouALiL9LQ0LV2yRPc3b64p06ZJkg4dPKTYmFi1eKCFOnd5WJK0a9dOfTnjCx07evS2VhUAALl3dfGVpIIFC+qb775T7Tq17fJ8Si+A66LoAvAU8adOKSsrSw0bNco+9p/ff5ck3Xf//dnH6tarJ0k6SukFAKe6uvimp6dr2dKllF4AjkHRBeCJCv/9uZBZWf+/n8Pvv/0mSWrctGn2sfPnzkuS/PzYkR4AnO3q4vvVzJny9y+o50eOvO3nUnoBUHQBeLySpUqpRIkSWrdmrfr1H6CEhARt3rxZpUqXVuXKlbOvW7tmtUwmkyryvRAAHOLIkSP6fcuW654vV66cQkJDdTQuTlM/naLz58/n+D59tWe6d8/VTEovkI/16v2satWqzcdzAPB4JpNJ/QcO1MQ33lDTRo2UmpqqjIwM9ezVS5K0LWqbPps6VRvWr9fd99yjEiVKGJwYADzTzh079PrYcbm+fu7sOdc9R+kFcFPtO3QwOgIAOE3PZ3vJbDbrhwULdPLkSbVu20aDhgyWJP22ZYs2rF+vu+rX19vvvmtwUgCAPVF6AQBAvtG9Zw9179njX8c7duqkh1q3VtVqVQ1IBQD5R8dOndSyVSunzqT0AgCAfCUtNU3Lf16mI0eOKP5kvEaPGaNz58/pbHIypRcAHMzb21tFihRx7kynTgMAADDQVzNnavLHnyglJSX72LARz2vf3r167ZUxat6ihT6dNlUFChQwMCUAwJ7MRgcAAABwhh8WLNCkCRNVvERxTXhzUvZHY0jSPffco9Zt2+jXyEiNv4UNVgAAro/SCwAA8oWpU6aqdHCwfli4SE8+9ZQqXfURGOXKl9eUadPUtFkzLVq4UImJiQYmBQDYEy9vBmB3r499TYULF3bKrAspKdq2LUo9nnnGKfMAONb5c+ckSVar1a7PTUxM1PFjx/R0t24KDAq87nWduzys37ZsUfShQyrepIldM7iK4UOHytfX1+FzbDabJGntmjX688gRh88D4FhX/j/tjii9AOzu1Km/5Oub7JRZFqtNaWnpOnr0mFPmAXCsLDuX3SvMpssvbityk1/IXSmD7vzD3c2cOHFSXl5eDp9z5X/DlJQLfI8GYChKLwC7mz5jhmrVruWUWQ3uvFMNGzbS1OmfOWUeAMdqXL+Bzpw5I7PZvu/ACgwKVNmyZRUZuU7DR46Qt/e1fwT6bcsWSVJE9ep2ne9Kflj4o0oHBzt8TmZmpiLCwvVwl4c1bvx4h88D4FhWq1XhlSrf/MJc2L9/v12eExERkavrKL0AACBf6NCpk6ZPm6bhQ4dqwsRJOc5lZWVp3py5+mHB92rYqJECAgIMSgkAnq9Dm7Z2ec7h2JhcXUfpBQAA+cLzI0do966dWrVipdasXq0SJUpKkp7r9awSEhKUnpamwKBAffDxRwYnBQDPVr9BfW2L2ua0eZReAACQL3h5eWnW7Nla8tNPmvXFl4o+HC1JOhoXp4DAQHXp2lXDnh+uoKAgg5MCgGf77ocfdOTIEfV/ro9iYi6v1k58801FVM/dy5VvFaUXAADkG15eXurStau6dO0qi8WiU6dOqZC/vwICr7+jMwDA/ipXrqwZs2aqZfMWkqSw8DDVqVvXIbMovQAAIF/y8vJS2bJljY5hdzarTb+sXJXjWGxsrDFhAOAGKlasqIiICLttbHU9lF4AAOCRdu/aLavVoojq1eXr66v9+/bp0qVLubrXUasNzmCz2TR1yqdGxwCAXKlQqSKlFwAAIC96PPOMzp8/r8gN6xUSGqoBffvp+PHjubo3tzuCuiKz2aT3P8q5Gde+vXv15YwvDEoEANfXrXt3NWrUSOVDQhw2g9ILAAA8UucuDysjI0OFixSRJLXr0F7JyckGp3ICk0lVqoTlOJQv/rkBuKWGjRqpYaNGDp1B6QUAAB5p7Ouv5/jziy+/bEwQAIChzEYHAAAAcLS42Dg1adBQfZ97zugoAAAno/QCAACPV6pUSV24cEG7duw0OgoAwMkovQAAwOMV9PfXq2PHKjk5Wd/MnWt0nDyz2WySpPPnU7Rv374cX/Gn4g1OBwCuiff0AgCAfCG4TLC6PvqIxr02VhvWr9edd92lAgUKXvPans/2cnK63MlIT5ckRR86qA/fP2hwGgBwD5ReAACQL4x79bXsjyyKXBepyHWR173WVUtvgYKXS3qlSpXV6qGHcpzbu2ePNm3aaEQsAHBplF4AAJAvjHjxBaWmphod47aYTCZJUmBQoOo3qJ/j3IWU89q0yYhUAODaKL0AACBf6Nipk9ERAAAGYCMrAACQL0Sui9SO7dtveE1MTIyW//xz9oZRAAD3R+kFAAD5whvjxmnunDk3vOaXlSs1bPAQJSUlOSkVAOCf6tWqrZbNW+Q49miXrqpdo4ZSUlJu+Xm8vBkAAHisd99+WxdSLkiSkpOTtXPHDo0d8+o1r7VYLfr1782tfHx8nJYRAJBTWnqa0jPScxzLyMhQWmpanp5H6QUAAB5r8cJFSkhIyP5zakyqYmNib3hPm3ZtVbRoUQcnu760tMs/6G3auEmbNrIzFQDcLkovAADwWNO//EJZmZmSpMEDBqpqtWoaMmzoda8PCAxU5cqVnRXvmny8L/94FlwmWCEhITnOHThwUOfPnTMiFgC4LUovAADwWHXq1Mn++/ubN1eVsCq6q379G9xhPB/fyy+tDgsLU5u27XKcmzVzJqUXAG4RpRcA4HLS09N18MABWSwWVa1WTYULFzY6EjzAW+++I0m6dOmSjhw5oksXL1732jp16zorFgDAwSi9AACXYbFYNPOLL/XJRx/p4t+FxOxlVp++fTV0+HD5+fkZnBDuLCUlRaNfellr1qyWJctyw2sPx8Y4KRUAwNEovQAAlzH544819dMpMpn+/5jVYtXnn03X2bNnNemtt4wLB7f3yqhRWrVypYoVK6a7GtRXsWLFZDbx6Y0A4OkovQAAlxATE6PPpk6TJNls/z6/YP536tmrl8LCw52cDJ7gwoUL+mXlKlWqVEmLly1VoUKFjI4EAHASSi8AwCVs27pVVqv1htfs2L6d0os8OX36tKxWq1q1bp3vC++jXR+Rl5eXw+fY/v7t1eJFi7X+1/UOnwcA10PpBQC4BJP55i8z9fLmP1vImzLBwTKbzcr8++OL8rOyZe+Qr6+vw+fYbDYdP3ZMRYoUVkhIeYfPA+BYNptNx44eNTpGnvDTAwDAJTRo0FBms/mGq721a9d2YiJ4koL+/ur0cGct/PFHPde3j0qWLGl0JMN8PHmySgcHO3xOZmamIsLC9WDLlho3frzD5wFwLKvVqvBKxn6OeV5RegEALiG0Qqj69Ourzz+bfs3zXR95RFXCwpycCp7k+ZEjdejgIbV7qLV69+mj6jWqq0SJEsqxc9rfIiIiDEgIAHAESi8AwGU8P3KkzGYvfT79M1ktl1d8TSaTnnjySY0eM8bgdHB3Tz32uI4fPy5Jeu+dd254LR9ZBADGOXj48L+OLVuxPM/Po/QCAFyGt7e3Rr74grr37KHdO3fJYrWoRs2auuOOO4yOBg/QslUrJSUnGR0DAOBklF4AgMspWbKkWjz4gNEx4GHGjH3N6AgAAANQegEAADyIzWbT7K+/ynEsPj7eoDQAYDxKLwAAyFfSUtO0/OdlOnLkiOJPxmv0mDH66/RfOpucrPvuv9/oeLfNZrVp4Q8/Gh0DAFwGpRcAAOQbX82cqckff6KUlJTsY8NGPK99e/fqtVfGqHmLFvp02lQVKFDAwJS3x+xl1rxv5+c4tv2PP266eRcAeCqz0QEAAACc4YcFCzRpwkQVL1FcE96cpNFjXsk+d88996h12zb6NTJS48eOMzClfRQuXDjHV4GC7lviAeB2UXoBAC4lISFBE8aPV5eOndSpfQeNGT1aR+PijI4FDzB1ylSVDg7WDwsX6cmnnlKlypWzz5UrX15Tpk1T02bNtGjhQiUmJhqYFABgT5ReAIDL2Llzp1q1eEBzvp6t3Xv2aN/evfp+/ndq0+ohbVi/3uh4cGOJiYk6fuyYHmzZUoFBgde9rnOXh2WxWBR96JAT0wEAHIn39AIAXEJ6erqGDByktNRU2Ww2yWbLPncpM1Mjhz+vyI0bVLRoUQNTwl2ZTZd/z1+kcOEbXufr6yvp8g7IAAD7sGRZtGXLZq1bu05//O9/SkpK0oWUFBUrVkzFSxRXo8aN9cCDD6pBw4YOmU/pBQC4hM2bNunkiRPXPGezWnX27Flt2xrF5/ciTwKDAlW2bFlFRq7T8JEj5O197R+BftuyRZIUUb26M+Pl2pUyfiYhQRvXb8hxLjo62ohIAHBDyUnJGjRggLb+97+SJC9vLxUrWkxBxYsrJSVFp/bs1e5du/XljC/UoWNHvfXuO3bfTJDSCwBwCadPn77pNcePH3dCEniqDp06afq0aRo+dKgmTJyU41xWVpbmzZmrHxZ8r4aNGikgIMCglDeWkZEhSYqLi9OcObMNTgMAN5aZmalHu3ZRXGycej7bSx07dVat2rVkMpmyr7FkWbRtW5S+/26Blvz0k5KTk/T13Ll2zUHpBQC4hNDQ0JteU7lKFSckgad6fuQI7d61U6tWrNSa1atVokRJSdJzvZ5VQkKC0tPSFBgUqA8+/sjgpNdXsGBBSVJERIQeefTRHOe2bYvSyhUrjYgFANcUuW6dYmNiNfb119W9Z49rXuPl7aVGjRurUePGKhZQTHO+nq1DBw8pvGq43XKwkRUAwCU0btJEVatVk/mq3/5eYTabVbZcOd15150GJIOn8PLy0qzZs/XuB+8rrEqYzpxJkCQdjYuTn5+fnu7WTb+sXasyZcoYnPTm/AsVUmiFCjm+igcVNzoWAOQQF3v50xfatGubq+vbtmsvSYqNjbFrDlZ6AQAuwdvbW598OlnPPPW0ziQkyGQ2y2SzySapUKFC+uCjj7JXuYC88vLyUpeuXdWla1dZLBadOnVKhfz9FRB4/R2dAQB5Exh4+a0i0YcOqWTJkje9/tChg3/fF2TXHJReAIDLqBIWptXr1mrWl1/qj//9IYvFopq1aql3n+dUqlQpo+PBw3h5eals2bJGxwAAj3Vf8+by8/PTSy+8oI8+mawGDRtc8zqr1ao1q1fr3bfeVungYNWpW8euOSi9AACXUrRoUQ0fMcLoGAAA4DaVKlVKU6d/puFDhurJxx7THXfcobp31lNgYJAKFy6klPMpSkxMVNTWrUpKSlJwmWBNnzEj++Pj7IXSCwAA4IIyMjKUlJSU41hmZqZBaQAgb+5v3lyLli7RF9M/V+S6dVrx8/J/XVO2bFl179lDAwYNytXLoG8VpRcAAMCFpKamSpKitkYpamuUwWkA4PZVqlRJb737jqxWq47GHVVycpIuXLigosWKqXjx4ipXrpxD51N6AQAAXIhfAT9JUoWKFVW1arUc57ZFRSkx8YwRsQDgtpnNZlWoWEEVKlZw6lxKLwAAgAvx9rr841n58uV03/335Th35MhhSi8A3CJKLwDA5cTFxmnnzh2yWqyqUbOGwsLt9wH1yH/S09P1+2+/a/++fQoMClSDBg2u++/U998t0J9/HtGoV15xckoAgKNQegEALiM9PV1vTpio7+bPl81myz7etpVhDS8AACAASURBVH07vTFxogICAgxMB3e0f/9+DR04SDExMdnHzGazevd5Ti+PHv2v61etXKmNGzZQegHADr6aOVMzv/zylu/b/Pvvds1B6QUAuIw3Xh+vHxYs+NfxlctX6OLFi/r8iy8MSAV3denSJQ0eMEBxsXG697771LRZM50+fVqLFi7UF5/PULGAAPUfMMDomADgsapWq6bAgEDt379fklSoUCH5+/s7PQelFwDgEvbt3XvNwitJNptN69as1a6du1S7Tm0nJ4O7WrliheJi4/R0t24aP+GN7OO9n+utdm3a6uMPPlTLVq1UuXJlA1MCgOdq2qyZlq5YrpdfeFGLFi7Uiy+/pGe6d3d6DkovAMAl7Nq566bX7N5N6UXuHTxwQJLUvUfOH7BKBwdr4qRJGjxwoN6cMFEzv/7KiHiGada4iVPnzZ09R3Nnz3HqTACuw2QyacDgQVq0cKFhGSi9AACXULBgwZteU7RoUSckgadIT0+XJAUEBv7rXOu2bfRgy5Zau2aN/vP772rcxLlF0EidOndSQSe8vNBqter77xYoLDxMd9Wv7/B5ABzLZrNpwfzv8nRvaGiovL2Nq56UXgCAS2jStIl8fHyUlZWpq/awymb2MqtevXrODwa3FRpaQZIUtXWrWrdp86/zY157VRs3bNC4V1/T0hXL5efn5+SExnhp1CiVDg52+JzMzEx9/90CNW7SROPGj3f4PACOZbVa81x6zWaztu3Ybtj3WbMhUwEA+IdSpUvrpdGjZLNJJvP//+fJZLr81+f69FG58uUNSgd31LFzJ/n4+Gj82HGK2rr1X+fLh4Ro+IgROnLkiEYMG65Lly4ZkBIA8ofChQvLx8fHkNmUXgCAy+jZq5fefPttFSlcOPuYn18BvTRqlEa+8IKByeCOgoKCNOz54UpISNCTjz2upo0aa+qnU3Jc81zfPmrXvr1+WbVKrVo8oAN/vw8YAOA5eHkzAMBlmEwmPfbE4+r66CP688gRZVksCgsLM/R9QHBv/QcOVOUqVfTVzFnasX27jsbF5ThvNpv18aeTVbNWLX05Y4YSExMNSgoA+c+xo0c1Y/rn2rNnt44fP67KlSurfoOGGjBooAoVKnTNe06ePKmWzVtIkvYezN0vKvkpAgDgcry8vBQWHm50DHiIlq1aqWWrVpKkixcv/uu8yWRSn3591b1nD+3etVuxsTHOjggA+c7K5Ss06qWXlJqamn1sW9I2bYvapiWLF2vm118rvOq/fxaw2WzX/F5+I5ReAACQb9xoExU/Pz/Vb1Bf9Ru4907DVqtV77z9Vo5jSUlJBqUBgH/769QpvfzSi0pLTVOxYsXU6eHOKl68hA5HR2vVypWKj49Xvz59tHjpEgUEBNz2PEovAACAJ7FJO7fvyHEoKyvLoDAA8G9TJn+qtNQ0lQ8J0aKfflJg0P9/tNyAg4P09JNP6NjRo3pr4iS98/57tz2P0gsAAOBBzF5mfbtgQY5jUVFbNeF1PjYIgGvYuXOnJOnlUaNyFF5JCq8aro8++UQ9u3XXooUL9XS3bqpdp/ZtzWP3ZgAAAACA08T8+ackqXbdOtc8f/c996hd+/ay2Wx6a9LE257HSi8AAPBI63/9VQcPHMzTvf0G9LdzGgDAFf7+/kpPT5evr+91rxk15hVFrlunqK1RWrN6dfaGhHlB6QUAAB5p5fIVWvjjj3m6l9ILAI5TsVJFJSYmaut//qu27dtd85oyZcqob//++uSjj/T62HFq1LixihYtmqd5lF4AAOCRXnt9nOrdeafenDRRaalpql6jhlq3aW10LADI9x557DFti9qm18eOVdlyZVWnbt1rXte3fz+tWL5c0YcO6fmhw/TZjM/zNI/SCwAAPFLhwoX1xFNPqmjRoho6eLAiIiI0cPBgo2PdFovFIkk6ceL4v1axj8bFGREJAG5Z+w4dNOWTyTp+/Lgef+RRNWnaVI0aN1LzFg+oarWq2df5+fnpo8mf6NGHu2jD+vV6tEtXPfb4Y7c8j9ILAAA8WsuHWsnb2zN+5MnMypQknYo/pZXxKwxOAwB5U6BAAc2c/bUG9uuvI4cPa9PGjdq0caN8fHxylF5Jqlatmr5dsEB9nn1We/fs0bg9e255nmf8FwAAAOA6fHx8VC0iQkWKFjE6ym0r4FdAklSnbl0927t3jnObN23SD99/b0QsALhllStX1rIVy7VyxQqtW7tWJ44dv+57dmvVrqWVq1dr7pzZmjdnrpKSkm5pFqUXAAB4vJ+WLTU6gl15e3urUKFCOY753WAXVABwRb6+vurUubM6de5802sDgwI1dPhwDR0+XKf/+kt//v2xR7lB6QUAAAAAuI1SpUurVOnSub6e0gsAAPIdm82mX9dF6o8//tDJEydUtlw5dercSVXCwoyOBgCwM0ovAADwSJs3bdaro0erd58+6taje/bxlJQUjRw+XJHrInNc/9nUqerYqZPeevcd+fn5OTsuAMBBKL0AAMAjZWSk6/jx40pJOZ/j+FuTJilyXaRCQkPVrXs3lQ8JUWxMrObOnq2lS5YoIDBAY19/3ZjQkmSzSZKSk8/qcPThHKfS09KMSAQAbo3SCwAA8o0TJ07ox+9/UMWKFbV0+c8q6O+ffe7pZ57Ww506a/4332r4iBHX3UXU0S6kpkqS9uzerT27dxuSAQA8CaUXAADkG3v37JHValXvPn1yFF5JKujvr/4DBuiFESO0a+dO3X3PPYZkLORfSAlKUEREhOrVuzPHucjISJ06FW9ILgBwV5ReAACQb6Snp0uSyoeEXPN8SOjl44lnEp2W6Z9MZpMkqUTJEqpZu1aOc1ujtkqnjEgFAO7LbHQAAAAAZ6larZok6cD+fdc8HxMTI0kKCAxwWiYAgGOx0gsAADzaip+XKy0tXZUrV1alypVUq3YtzZo5Sx06dszxOY9nk5M1Y/rn8vX1Ve3adQxMDACwJ0ovAADwSCVKlFCNmjUVFxur6dOm/ev89M8+y96led6cOfr0k8lKTExUr2efVWBQoJPTAgAchdILwO7+OnVKAQHFnDLLarEoPS1Nx44edco8AI5ltVjs9qy69eppyc/LJElJSUmKjYlRXGyc4uJiFRcbp0qVKmVfu337dqVnpKt3nz56efQou2VwRSdPnNClS5ccPicrK0uSdCElhe/RgAewWq1GR8gzSi8Au+vft69T523cuFHN773PqTMBOFZmZqZdnxcUFKSgoCDdeddd1zw/eOhQvfXOO/L19bXrXFf0aNdHnDpv8aLFWrxosVNnAsDVKL0A7K5b9x4KLhPslFlTJk9W+fIh6vRwZ6fMA+BYUz/9VGlpafLx8XHq3IoVKzp1npEGDByowkWKOHyOxWLRh++/r3p33qkHW7Z0+DwAjmWz2fT+u+865NmrVq5UkSJF1ezuZg55PqUXgN11eaSrav3jYzYc5csvZqhipYrqN6C/U+YBcKyvZs5UWlqa0TE82jPdu6l0sON/MZmZmakP339fNWvV5Hs04AGsVqvDSu+H772v0sHBDiu9fGQRAAAAAMAwVqtVNpvNYc+n9AIAAAAAPBalFwAAAADgsSi9AAAAAACPxUZWAAAgX8nIyND6X39VjRo1VD4kRJIUuS5SpUqVVM1aztmEz5GsVptGDBue41hqaqpBaQDAeKz0AgCAfOXc2bMaPGCgNm/enH1szKhR+vabbwxMBQBwFFZ6AQAAPIjZbNKHn3yc41hU1FZNeH28QYkAwFis9AIAAAAAPBalFwAAAADgsSi9AAAAAACPRekFAAAAAHgsNrICAABwE5asLEnSn38e0fTPpuU4l3D6tBGRAMDlUXoBAADcRJbFKklKOZ+i/fv25zyXlWlEJABweZReAAAAN+Hn5ytJqlO3rgYMHJjj3PrISM2bN8+IWADg0nhPLwAAAADAY7HSCwAA8pXiJUpo2coVKhMcnH1szjfzVLhIEQNTAQAchdILAADyFW9vb0VEROQ4FhYeblAaAICj8fJmAAAAAIDHYqUXAADAhVhtNknSqfhT2vrfrTnOnT93zohIAODWKL0AAAAuJC01VZIUHR2t6Ohog9MAgPuj9AIAALiQwoUKKSEhQTVr1VLDho1ynPtl1UqdOHHCoGQA4J4ovQAAAK7EZJIkBQYGqEpYlRynNm70NyIRALg1Si8AAPAo8fHx2rljh86fOy+/An6qWq2awsPDZTazfycA5EeUXgAA4BFSUlL0/NBhWv/rr9nHCvr7Kz0tTUWLFtWQYUPVo1cvyi8A5DOUXgAA4BGGDByozMwsLfl5mQoXLqKNGzZo7uzZmvb5dB04cEBTJn+qqK1Rmvb5dKOjAgCciNILwO527tip8+fPO2VWZmaWEs8kasvmLU6ZB8CxLmVm5um+tNQ0bd60WZEb1iskNFSS1K1Cd+3YsV2bNm5Ur969dfc99+ieps0UFxun0Aqh9oztVqK2RikwKMjhc7KysiRJ8Sfj+R4NeADb3x+n5o4ovQDs7vWxrzl13rZtUerxzDNOnQnAkWzKvMXya7VZZTKZVNA/50ZP/gX9derUX5KkgIAABQYEKDk5KV+X3uFDhzp13to1a7R2zRqnzgSAq1F6Adjdiy+9rJDQEKfMGvXSSwoLC1fvPs85ZR4Ax3pl1CilpKTIx8fnlu4rXLiwatSsqUlvTND4iRNUtGhR7dyxQytXrNCb77ytixcvasH873TmzBmFh1d1UHr3MHHSJBULCHD4HIvFouFDh+re++7To4895vB5ABzLZrNp6ODBRsfIE0ovALtrencz1apdyymzxr72qkoHl1abdm2dMg+AY40fN04pKSl5uvf9Dz9Qn97PqX7devL19dXFixf1yKOPqtVDD+nrWV/p3bff1huTJsq/UP7+2J/mD7RQ6eBgh8+5slofWiGU79GAB7BarUZHyDNKLwAA8AhVwsK0et1abYuKUmJiosLDqyq8argkqU3bNmrfsYNKlChhcEoAgLNRegEAgMfw8fFRk6ZNcxxLT0/X3r37tH/fPgUGBapBgwYKCw+/5v3ff7dAf/55RKNeecUZcQEATkDpBQAAHmv//v0aOnCQYmJiso+ZzWb17vOcXh49+l/Xr1q5Uhs3bKD0AoAHofQCAACPdOnSJQ0eMEBxsXG697771LRZM50+fVqLFi7UF5/PULGAAPUfMMDomAAAB6P0AgAAj7RyxQrFxcbp6W7dNH7CG9nHez/XW+3atNXHH3yolq1aqXLlygamtD+rxaqnHn88x7Ern5kLAPmR2egAAAAAjnDwwAFJUvce3XMcLx0crImTJikrK0tvTphoRDTHMkl16tXN8VWxciWjUwGAYVjpBQAAHik9PV2SFBAY+K9zrdu20YMtW2rtmjX6z++/q3GTJs6O5zBms1kvj8r5fuWoqK2asHe8QYkAwFis9AIAAI8UGlpBkhS1des1z4957VX5+vpq3Kuv6eLFi05MBgBwJkovAADwSB07d5KPj4/Gjx13zeJbPiREw0eM0JEjRzRi2HBdunTJgJQAAEej9AIAAI8UFBSkYc8PV0JCgp587HE1bdRYUz+dkuOa5/r2Ubv27fXLqlVq1eIBHfj7fcAAAM9B6QUAAB6r/8CB+mzG52rYqJHOJifraFxcjvNms1kffzpZL48erfT0dJ3+6y+DkgIAHIWNrAAAgEdr2aqVWrZqJUnXfO+uyWRSn3591b1nD+3etVuxsTHOjphrmZcyJUn79+/XhDfeyHHuQsp5IyIBgMuj9AIAgHzDz8/vhufqN6iv+g3qOzHRrTGZjE4AAO6H0gsAAOAmvH18JEkREREaMHBgjnPrIyM1b948I2IBgEvjPb0AAAAAAI9F6QUAAAAAeCxKLwAAAADAY1F6AQAAAAAei42sAAAAXEhWVpYk6dix49qwfkOOc8lJyUZEAgC3RukFAAAe7/PPpivl/Hm98PJLRke5qSufJRwbE6PYGNf9zGAAcBeUXgAA4PHW/xqppKRktyi9hQoVkiQ1aNhA993fPMe5H77/XnGxsQakAgD3RekFAABwQQUKFFBQUFCOYz5/f04vACD32MgKAAAAAOCxKL0AAAAAAI9F6QUAAAAAeCze0wvA7lb/8ov27tnjlFkXMy7q2LFj+u7b+U6ZB8CxMjIyjI7g8Zb8tERFixZ1+ByLxSJJij4UzfdowAPYbDajI+QZpReA3X02dapT5+3bu1evvvKKU2cCcKzMzEyjI3isd99+26nz/vP77/rP7787dSYAXI3SC8Du3v/wQ1UJq+KUWd2fflo1atbSy6NHOWUeAMfq+Uw3nT13jl2KHWjW118pqHhxh8/JysrSIw93Udv27dS3Xz+HzwPgWFarVV06dTY6Rp5QegHYXeUqVVSzVi2nzPLy9lbRokWdNg+AY3lTdh2uarVqKh0c7PA5V1brixcvzvdowANYrVajI+QZG1kBAAAAADwWpRcAAAAA4LEovQAAAAAAj8V7egEAADzMhQsXcvw5I52PggKQf1F6AQAAPIjVYtVTjz9udAwAcBmUXgAAAA9iMpvUpWvXHMfi4+P12+YtBiUCAGNRegEAADyIyWRSj569chyLitpK6QWQb7GRFQAAAADAY1F6AQCA24uJiZHNZrutZ/z55592SgMAcCWUXgAA4PZ27dyptg+11tzZcxQfH5/r+xISEvTdt/PVuUNHbVi/3nEBAQCG4T29AADA7bXv0EHTPp2i8ePG6Y3XX1fVqlVVs1YthVcNV6nSpXXu3Dmlp6dpxc/Ldfr0aUVHH9Ke3Xu0f98+Wa1WlSpVSk8+9ZTR/xgAAAeg9AIAALfn5eWlgYMHa+Tzz8tms+nAgQM6cODAv64bOnjwNe/v27+/ChQo4OiYt+3ixYuSpJ07dmjYkCE5zmVlZRoRCQBcHi9vBgAAHqF9xw6qXLnyLd9XsmRJPfHUkw5IZH9e3pfXK4oULaKI6hE5voKDgw1OBwCuiZVeAADgEa5e7b0V/QYMcItVXkny9vKSJFWqVFn9BwzMcW59ZKTi4uYZEQsAXBorvQAAwGPc6mqvO63yAgDyhtILAAA8xpXV3txyp1VeAEDeUHoBAIBHye1qL6u8AJA/UHoBAIBHye1qL6u8AJA/sJEVAADwOO07dtC0KVN05MiRa5535VXezMzLHz0UHR2ti4sX5Th3+vRpIyIBgFuj9AIAAI9zs52cXXmVNzMzS5J0Kv6UTsWfMjgNALg/Si8AAPBI11vtdeVVXkny9y8oSbrn3nvUpm27HOdmzZypw9HRRsQCALfFe3oBAIBHut57e115lRcAYH+UXgAA4LH+uZOzq6/yAgDsj9ILAAA81j9Xe1nlBYD8h9ILAAA82pXVXlZ5ASB/YiMrAHbX7amn5OXl5ZRZ58+fV+TatbqrTl2nzIMxLBaL0tLT5evjIz8/P6PjwIFSUlLs/swrq73Jycms8kr6bNo0FSpUyOFzrFarJGn7H3/ovXfecfg8AI5ls9mMjpBnlF4AdlG0aFGZTCbZbDZduHDBqbMzs7J07tw5p86EMTIsFmVkZBgdA05QrFgxuz6vfccOysrKsusz3dW8OXOdOm/P7j3as3uPU2cCwNUovQDsonxIiKZ9Pl1/HvnTqXMtFovMZrNMJpNT58K5Nm/apN9/+03FihVT3/79jY4DBytUyF+PPv64XZ/p5eXltFeguLpVa1arZKlSDp+TmZmpxvUb6LEnn9DLo0Y5fB4Ax7JarWpQ706jY+QJpReA3bRs1croCPBQqamp+v2331S4cGH1G0DpBW5HkSJF7L6Sfi2ZmZmSJD9fX6fMA+BYV96y4I7YyAoAAAAA4LEovQAAAAAAj0XpBQAAAAB4LN7TCwAA4ElsNh0+HJ3jUPzJkwaFAQDjUXoBAAA8iNVq04hhw42OAQAug9ILAADgQUwmkwYOGpzjWGxsrJb/vMygRABgLEovAACABzGZTXqoTescx6KitlJ6AeRbbGQFAAAAAPBYlF4AAAAAgMei9AIAAAAAPBbv6QUAAHAzWVlZSk1NzXHs4qVLBqUBANdG6QUAAHATGRkZkqSdO3Zo2JAhBqcBAPdA6QUAAHATvr6+kqTgMsGqV+/OHOeOxsVp7969RsQCAJdG6QUAAHATZvPl7VjKli2nro88kuPc+shISi8AXAMbWQEAAAAAPBalFwAAAADgsSi9AAAAAACPRekFAAAAAHgsNrICAABwIRcvXpQk7dm9W/Hx8TnOnThx0ohIAODWKL0AAAAuxSZJSk/PUFJiUo4zWZcyjQgEAG6N0gsAAOBC/PwKSJIaNGygNm3b5Tg3a+ZMHY6ONiIWALgt3tMLAAAAAPBYlF4AAAAAgMei9AIAAAAAPBalFwAAAADgsdjICgAAIB95dcwYFShQwOFzrFarJGnjhg0aMmiQw+cBcCybzWZ0hDyj9AIAAOQj27ZGyWx23ov9Tp2M19nks06bBwD/ROkFAADIR1atWa3SwcEOn5OZmamIsHA99uQTGjd+vMPnAXAsq9Wq8EqVjY6RJ7ynFwAAAADgsSi9AAAAAACPRekFAAAAAHgsSi8AAAAAwGOxkRUAAIAnsUlbNm3OcejIkcMGhQEA41F6AQAAXFBaWlqe7rNarXrn7bfsnAYA3BelFwAAwAXt2b1HRw4fUfUa1VWzVm2Fhobm6j6T2azxb0zIcezgwQP6Zu5cR8QEAJdH6QUAAHBRZ8+e1W9bftNvW35TQEBAru4xmaS69ermOJaZdckR8QDALbCRFQAAgBs4e/aszp49K0navWuX5s//VtHR0bLZbAYnAwDXxkovAACAm7l06ZLWrVmrdWvWKigoSPXuulNeJi+jYwHANa3+5RfVb9BAQUFBebr/5MmTij50SPfdf3+e7melFwAAwI0lJSVp3Zq1Wr36F0mSzWbTvr37WAEG4DKsVqvuadJUI4YN14qflyslJeWm9yQlJWnhjz+qf5++an7vvQoIDMzzfFZ6AQBuI/lssl595RWjYwAOdebMGUlSVlZWnu63WW0a9dKLKlmypBo3aaJmd99DAQZgqIdat9aUipO1dMkSLV2yRGazWeXKl1fVqlVVvERxJScn61LmJY0ZPVp/nfpLhw4e1MmTJ7Pvv795c9WpUyfP8ym9AACX5+19+WWbaalp+u7b+QanAZzDYrHc1v0JCQlatnSpli1dqqCgvK+QAMDtMplMGjx0qAYPHCjp8srv0bg4HY2Ly77m3LlzWjD/u2veP2T4sNuaT+kFALi8Dp06aet/t+rChQtGRwEcLvrQIV28eFFmk0nW21ih9TJ7KbxaVTW7+24VKVpEH73/gR1TAsCteahNa0VERGj//v23dF/zFi1ua5VXovQCANxAxYoVNW/+t0bHAJyiZfMWiomJkY+vry5evHjL95tMJvXu00f33HuvAv9+D1xU1FZ7xwSAW2IymTRoyJDs1d7cGjxs6G3PZiMrAAAAN2Y2m1UlLEz176ovSTKZTerYqVN24QUAV3FltTe37LHKK7HSCwAA4HZMJpMqV6mi+vXrq0HDhipWrJjWR0Zq2/+2GR0NAK7LZDJp0NAhGjwgd6u99ljllSi9AAAAbsFsNsvXz08Z6emqVbu2hg67vY1dAMAID7XO3Xt77bXKK/HyZgAAAJdlNpsVWqGC2rXvoJdHj1a5cuUkST4+PgYnA4C8ubLaezP2WuWVWOkFAABwKenp6ZIkq9WmYkWLKeX8ef3+2xb9/tsWpZxPMTgdANy+m6322nOVV2KlFwAAwKWYvS5/LnXhwv4qXrK4gooHZX95+7LCC8D93Wy1156rvBIrvQAAAC7Fz9dXklSzVi21adsux7lZM2fqcHS0EbEAwK6ut9pr71VeiZVeAAAAAICTXW+1196rvBKlFwAAAABggCurvVc4YpVXovQCAAAAAAzwz9VeR6zySrynFwAAIF85cOCAEhISHD4nKytLkpSYmKg9u3c7fB4Ax7JabQ557pXV3uAyZRyyyitRegEAADxeYmJi9t/37tnLqbNX/LxcK35e7tSZABzryJEjdnuWyWTS4GFDFVymjN2e+U+UXgAAAA927vw5/bBggdExAHiQgv4F7fq8h1q3tuvz/onSCwAA4MF+3/KbEk4nyNvbW08987Tq1qtnt2efOX1Gb06aqA4dO6r5Ay3s9lwAxkhKTNTENyZIkl5/4w3VrVdXknTmzBk91+tZSVLnLg9ryFDHvPfWUSi9AAAAHqxSpUrq+ugjatCg0f+1d+dhVVX7H8ffgICAmogKToHihLM5lWOakOaYZZNTao4/S8ux6dbtVmpl3ZtaZqWZWjaY86w44FTOqQzODCrgAIiAjPv3B3qKDjggcDjweT3PeR5ce++1vmfR+ba/7LPXpl79ennat7OTCwBu5ctTs2atPO1bRApeVOnSpp+9qlenQcOGAMTHxzNi1Ei8vLzo++yzlgov11T0ioiIiBRhtevUoXadOpYOQ0SsWOnSpZk4ebKlw8g1PbJIREREpCgx4MP33+ezGTMsHYmIWLHFCxcyqH9/Ii9GWjqU+6YrvSIiIiJFSIaRwd49e6hSpYqlQxERK7Zp40YAUlNTLBzJ/VPRKyIiIlKU3HyUZmJSEsOGDs3XodLT0gH49ZdfWLd2bb6OJSL5LyM9Pcu/R44eTbUHH7RQNHlHRa+IiIhIEeBYMusjRGKuXi2wsa/Hx3M9Pr7AxhOR/Ddo8IuMnzjB0mHkCRW9IiIiIkVAi5YtiIuLIyHhep72e/bMGYKDg2nfoQMuLi5m21NTUrF3sM/TMUUk/5w7d5agwCDsHewZksO3QapUrcoL/foVcGT5R0WviIiIiJWKjorm0xkzSEpKZPrHH9Ola5c8H2P9uvUEBwfzeJcuuLu753n/IlKwNm3ckFn02tszcfJkUlJSGPHSMP48coRpH3+Er5+fpUPMcyp6RURERKxQQkICn332KZcvX8LW1hYbbCwdkohYodcnt+xo0AAAIABJREFUTSZgxw5Lh5GvVPSKiIiIWKHIyEguRUdjb2/P0JeG4VjS0dIhiYgV2rZ1K5B5D+9jnTtbOJr8oaJXRERExAp5uLszctRoKlWqRJWqejyRiOTO9E8+xsnJmTZt21g6lHyjoldERETEypwICeGrOXMKZKwrV64AMP+bb3FwdCiQMUUk/9z6TN/S2dfXQpEUHBW9IiIiIlYgJiaG8PBwAOLj4wkMDCzQ8U+dPlWg44lI/rKxsbV0CAVGRa+IiIhIIRcXd42vvviC5Bs3sLWzxadePWxs8m7hqosXLnDl8hXqN2xg1q9hGCQnJ1OyZMk8G09E8tfFCxe5cvkypUqXol379qb2P37/gyuXLwMwePAQS4VX4FT0ioiIiBRycbExXIuPx9bWloGDXqR27dp52v+qlSvYc3kPzz33PHZ2dnnat4gUvDWrVrPr8k48PCoxc/ZsU3vTho0AeGn4MMaNf9VS4RU4Fb0iIiIihVz5CuV54YV+lClbhgcf9LR0OCJipT6a8QlAkV2lOScqekVEREQKodTUVK5evUqZMmVwdnahQaOGlg5JRKyMYRiEh4VRukwZypYti6+fn6VDsojic/eyiIiIiBU5eOAgn3z0EREREZYORUSs1MULF+nYvgPzvvnW0qFYlK70ioiIiBQmhgFASkoKNrY2nD55iuio6HwdMioyCoB9f+zD1lbXRESsXWRUJACJiQkAuJZztWQ4FmdjGDczq4iIiIhYnG/HTpw9e9bSYYhIETFo8Iu8+fbbxfoPWsX3nYuIiIgUQl27ddMKyiJy30rY2TF46BDefuedYl3wgq70ioiIiFhcYkIiV65cpqK7O46OjpYOR0SsUEZGBucjIkyLVslfinfJLyIiImJhEeHh9O7Rg47tO3Ds6FFLhyMiViglJYXXxo7TolU50EJWIiIiIhaSmprK00/24fLly5QqVQp3d3dLhyQiVmjyhImsXrUKgBo1alg4msJHV3pFRERELCQtLc1U8H638HuqVqtm6ZBExApFRmau1jx+4gR693nSwtEUPrqnV0RERERERIosXekVERERKUAxV2PYtXMXFy9etHQoImKl0tPT2bN7N0GBgZYOxSqo6BUREREpIOFhYfTt04dB/fuzeeMmS4cjIlYoOTmZca+8woAX+vHpJzMsHY5VUNErIiIiUkBGDR/BuXPnKFmyJE2aNrV0OCJihf732WesW7MWgFYPP2zhaKyDil4RERGRApKcnIytrS0z/vsZDRs1tHQ4ImKFkpOTAXj2+ed4afgwC0djHbSQlYiIiIiIiBRZutIrIiIikk9OnzrFV1/OYfu2bZYORUSsVFJSEt/M/ZrFCxdaOhSrVcLSAYiIiIgURdFRUQweOIgLFy7wzHPP0uHRRy0dkohYmfT0dMaPe5WNGzbg7uFBvwEDLB2SVdKVXhEREZF88NH06Vy4cAF7e3se7djR0uGIiBVau2YNGzdsAMDXz8/C0VgvXekVERERyQce7h40atyICZMm0bpNG0uHIyJWyMXZhQYNG+L3uB+jx4yxdDhWSwtZiYiIiIiISJGlK70iIoWA/xZ/YmNj7np/BwcHuvfoAWTeN7hz507sbO3o9WTv/AoxT6SlpbFyxQoAGjdpgre3t4UjyjvW9HuQ/BEdHc2ypb/hU8+H9h06WDocq5OWlsbyZcsIPH6ckydOcvnyZVxdXalatSpt2rbF73E/nJydLR1moRMcHEzg8eO4ubnd033jyseFU3paGkt+/BFA9+/mIV3pFREpBJ7s2ZOjfx696/1dy7my7+BBAAJ27GDwwEE4OjpyPCQ4v0I0iY6KIjUtjbJly+Li4nJPx8bHx9O0YSMA3n3v3/QfODA/QrSIgv49SOESei6UIS8OIvRcKM+98Dzvf/ihpUOyKsePHWPyhIkEB+f82alQoQIfTJ1Kp86PFWBkhd8Xs2bx6SczaN6iOUt++eWuj1M+LnySkpIYO2YM/lv8qVSpEgF7dls6pCJDV3pFRAoRFxcXqlStcsf9ypQpUwDRZO/FgQM5EXKiyJ0kidyPjz+aTui5UBwdHenV27quLFlazNUYBvUfQGxsLKVKlaJHz560aNWSMmXKcOnSJfbs2s3aNWu4dOkSo0aOYMHChTz8yCOWDlskz61dswb/Lf4A9H32WQtHU7So6BURKURat2nDl3O/uqdjHmrWjFXr1mJjY5NPUYnInTz44IM0aNiQESNH0qJlS0uHY1U+mj6d2NhYKlSowMIfFlOzVq0s2/s+8wzDRo6g37PPce3aNT547z+sWrfWQtGK5B/Xsq40aNiQFi1b8sq4sZYOp0hR0SsiYuVcXFzw8fGxdBgixdqkKVMsHYLV2r51KwB9nn7KrOC9xcfHh9fffIPXJ08hKCiIiIgIqlatWpBhiuS7Tp0f09f384mKXhERKxd5MZKAHduxtbPjqaefNrWnp6fz26+/AtCjVy9sbGz4YfFi9uzeTbfu3U1fwYyOjubnJT9x+tQprly5gpubG81btqBHz55Zvkb9+969hIWGEhsbB8DBAwdxdHSkZq1aNH3ooQJ7vxEREaxcvpzAwEDiYuMoX748bdu3o1fv3pQo8df/1nZs305UZCTOLi506949x/5WLFtOSkoyPvXq0aBhw1yNJSK5c+3aNaKjowGoX7/Bbff9++JgZ06fzrboze1n9vChQ6xds5Zz587ejKU+7dq356FmzXI8JigoiJXLl3PmzBlSklOoVq0avo/70a59e7N9w8PC2LtnD+XKufGYb2eio6P5YdEiAgMDsbWxpWatWrzQvx+VK1fOdqz0tHR++20puwJ2EhsbQ9Vq1ejStStt27XLMb6CoHws1kL/hYiIWLmTJ0/w+uQpODo6mhW9r0/OvPrUomUrJo4fz6Gbi181aJB5MvHLTz/xztv/IiUlJUufq1auZPbnM/l63rfUb5B5IvrzTz+xYtly0z4rV6xg5YoVDBg0sMCK3nVr1jJp4kSSEhPN4l25fDmz58yhVKlSAAQGBvLJ9I+wsbGhRYsWVHR3N+vv5IkTjH/1VQAWL/kx12OJSO64OLvg5OREUlISR44c4Ynu3XLc193Dg1M3i9Ls5OYzm56ezqeffMJXX87J0u6/eQuzPp/JiFGjmDBpotlY87/9lqkffEhGRkaW9h8WL+bJp/rwwdSpODg4mNr//PNPXp88hSZNm2JXwo6X/29Mljg3b9rE13O/Ys7cuXTs1ClLn1evXmXMqNH88fvvWdqX/PAjzz7/HJUqZV8o5zflY7EmKnpFRIqB9959l0MHD1K5cmXqN2hAXZ+6HDlyhLfefBMjw2DISy/h6+eHra0NZ8+eZf633xISHMLYl19m45Yt2Nra0vWJJ/D29mbB/O+4cuUKnR7rRJOmTWnYqFGBvIfFixbxzltvA/BI69Z0696dsq5lOX7sOAsXLGDXzl0M6j+ApcuXAdCrd29mfPQxhmGwadMm+vXvb9bnqpWrAKharRotW7XK9Vgikjt2Jexo3KQJe/fs4bt587gWF0f/gQPwqVcPW1vbu+4nt5/ZsS+/zPq167ArkflNmUdat8YwDNauXsPmTZuY88UX1KtXL0sx/tG0acyd8xU2Nja8OGQwnX19cXBwYP++/XwxaxbLlv7G+YjzLF7yo9laC+cjIhgzajRlHniA1yaMp3r16oSFhjHnyy+Jjopi/LhX2ei/hfLlywNgGAaD+g8gKDCQUqVKMWjwizRu3ISkG0msXrmKn35cQpUqd178MK8pH4vVMURExOJ69+hheHt6GZ06dDCmfvDBbV+//vJLlmN3bN9ueHt6GfVq18nSnpycbHh7eplec+d8ZWRkZJi2fzxtuuHt6WW8PnmyWTzx8fFGs8ZNDG9PLyNgR0CWbV39/AxvTy9j4YIF9/w+r127ZornXo5PTEgwmjdtanh7ehnvv/efLO/DMAzjzJkzRpMGDQ1vTy9jZ8BOU3v/518wvD29jIH9+mXb76Pt2hvenl7GzP99ft9j5fR7EJHbO3XypOkzdevVpEFDY/DAQcasz2cae3bvNhITEnI8Pref2QP79xvenl5GTa/qxqqVK836nTJxkuHt6WX4PdbZ1BYWGmrU9vY2vD29jG/mzjU7ZveuXUbdmrUMb08vY+3qNab21atWmd5bm4cfNmJjY7Mcd/r0aaOmV3XD29PLWPLDj2bH1a7hbZaLDcMw/m/kKFO/zz79dI5zlB3lYylO7v5PaCIiku9Cz4Xyzdyvb/vavHHTPffb5YmuDBsxPMtVhxMnQgBwdXU1279UqVJ8MG0q7773bypWrJj7N5RHfli8mJirMXhV92LSlMlmV0+qV6/OwBcHAbDgu/mm9t59ngRg7969xMbGZjnmyOHDhIeFYWNjQ5+nn7rvsUQkd7xr1uTX5ct4zLczdiXsgMxnyO7Yvp3PZsyg//Mv0LRRY0YMG8ae3ebPLc3tZ3b2zFkAtGnbhu49epj1O3zUSABOnzpFbEwMAF9+8QXpaenUq1+focOGmR3zSOvWPHPzUTMzP/9ftu93yhtv8MADD2Rpq1GjBnXr1gUgPDzc1L7o+4UAdO/Rg7bt2pr19cG0qaY5KyjKx2KN9PVmEZFCxN3DgxYtWtx2n4aNGt52e3a6PvGEWZtX9RqAP/O++ZaU5BT8unSh6UNNTQuCPN6lyz2NcfTPo6SkJJu1e3p5mb6ql1v79+0HoGPHTtjb22e7T+s2bZg9cxaHDx4ytXXp2pV33/4XSUlJ+G/ZQp+n/jqZWrVy5c3jWmdZPCa3Y4lI7nl7e/PV118TFxfHvj/+4MD+/RzYf4Cjf/5JamoqaWlpbNm0Gf/NW3hl3DheHvuK6djcfmb37fsDIMeFlapXr872XTsBcLl5v+i+3zOPya5IvqVbj+4sXrSIEyEnuHbtmtlz1XNaHKtCxYoEBQWRfOOGqe3M6dOZ8bdtk+0xDzzwAI0bN+HggQNZ2pWPRbJS0SsiUog0atSI/878PM/7ze6erxGjRrJxwwYiwsOZP28e8+fNw8nZmWbNmtG+Q3u6dutGpUqV7nqMl0ePJiIiwqx96vRp9L155SO3wsPCANiyZQuBgYHZ7nMjKQnIXPQlOTkZR0dHXFxc8PXzY+WKFWxcv8F0kpWRkcHa1WsAePqZZ/JkLBG5fw888ACdfX3p7OsLwI0bN9i7Zw/r165j2bLfSE9L5/P//peHH3mEFi0z/0CYm89sQkICiQmZiyJ5ennlGM/fc2d6errpKmyt2tk/WgmgVq3app/PnT1Ho8Z/rXvg5OSUY179Zx5JSEjgypUrZnH8k4+Pj1nRq3wskpWKXhGRYuCfXwkDcHNzY836dfywaDHr163j2LGjJCUmsjMggJ0BAUz94EP6DRjAG2+9mWUVUku4ePEiAGGhoYSFht5x/8iLkXh6eQLw5FN9WLliBQE7dpCUmIiTszO/791LdHQ0pUuXxu/xx/NsLBHJWyVLluTRjh15tGNHBr44iGeeepobN27w05IfTUVvbj6z16/Hm/59t6v+Xr9+nbS0NCDz+eg5cSn117bY2Jis78epZLb5ODu2f9vvdot6lS5d+q76yyvKx2KNVPSKiBRjLi4uDBsxnGEjhpOYkMjBgwcI2BHA+rVrOX/+PIu+/x5X17KMvfkYidtZs2G92eM7IPOk9X65ubkRFxfHK+PGMnL06Dvu//evwbVu04YKFSpw6dIltm/bTpcnupq+StezVy+zqwL3M5aI3Jvx415lq78/HR/rxIzPPrvtvvXq16ezry+rV63i1MlTpvbcfGajIqNM/46Li7urWB944AHKlCnDtWvXuHzpco77Xbp0yfRztQcfvKu+s+Pk7GwaLyoqKsf9sotf+VgkKy1kJSJSDCUmJLLV35+t/v4YhgGAs4szbdu14/U338B/+3Z8/fwA2Oq/9a76dHFxoXTp0mavvDgJ8apRHYCLFy7i4OCQ7Ss1NZUTISGcCAnJciXFzs6Onr17A7Bh/XpSU1PZsG49AE/17ZunY4nIvalQsQLXrl1jz+49d7V/2ZsL793KW5C7z6y7hztOzs4ABAcFZTtWXFwcg/r3Z1D//qavGVevnjnW3j05x3trsS27EnZUq1btrt5XTmp4ewMQEhyS4z4nTpwwa1M+FslKRa+ISDGUnJzMsCFDGTZkqGmhlL+zK2Fn+uqg880TQ0tq3jwzlk2bNnH9+vVs9/lu3nx69+jJhNfGm227tWroVn9/tmzaTFxcHLVq185yr11ejSUid8+nXj0AoqOiWLb0t9vum56Wbioo/35PbW4+szY2NjS7uaDU6lWrsz1mzerV7Nq5i+CgYNzc3ABMKwuvXbOGmKsxZsekp6fz85KfgMwrl7cWBsytW+P9tnQp6WnpZtvPnj3L0T//vK8x7pXysVgjFb0iIsWQazlXfHx8APjw/Q/MTiZiY2NZ+uuvgPlKoyVKZF4piIqKvq8Yzp8/z7GjR2/7Onv2LAADBg2kors7sTExTJ4wkfj4+Cx9bVi/nlmfZy4ANnTYS2Zj+fj4ULduXa5fv877/3kPgL7PmF9VyIuxROTudeveHa/qXgBMmTyJ+d9+S0JCgtl+586eo9/zz3H61Cns7Ozo17+/aVtuP7MTJk3ExsaGI4cP8/H06VmOCQ4O5pPpHwHQb8BfY/V99lk8KnkQGxvLsKFDTYthQeaCTO+8/TYHDxzAzs6O0WPG5G5S/qZnr144uzgTHRXFpAkTSE//q/CNioxk/LhxpKSk3Pc4ysdS1NkYf/9+iIiIWMSTPXty9M+j+Pr58eXcr+7p2IAdOxg8cBCOjo4cDwk2taekpFCvdh0Ali5fRuMmTbIct2XTZkYOH45hGLiWc6VRo8ZUrlyZmJgYAnbsICEhAU8vT5atXJnlkRtjx7zMmtWrsbOzo3adOvR5qg+Dhw69q1jj4+Np2tD8r/k5afXwwyxe8iMAmzdtYuyYl0lOTqZcuXI0eagpbuXcCAwM5PixY0Dm84hnffFFtn19M/drpn34IZB5JXv377+brt78U27Gyun3ICK3d+7sOZ7r25fLlzPvk3VxcaFO3bpUdK9ISnIyZ8+cNRVcdiXs+N/nM+nyRNcsfeQ2P3w0bRpz52Tm3Iru7rRq1YrEpER2bNtOamoq3t7eLF+9CicnJ9MxB/bvZ9TwEVy9epWyZcvy8COP4ODgwMGDB4kID6dEiRK89/77PPPcX6skr1m9mrFjXsa1nCv7Dh7Mdh5GDR/Bpo0bGTxkCG/+621T++5duxg+9CVu3LiBRyUPWrZsRUpKCjt2bCcxIZFOj3XCf4s/zVs0Z8kvv9z1vCsfS3GihaxERIqpx3w7M3P2bKZNnUpEeDjbt20zbbOxsaFb9+5MnDLZ7BmTY155mSNHjhARHk5QYCBhLZoXSLydfX35dfkyXn1lLKdOnsR/8xbTNidnZ4YMHcIr48bleHzPXj35ePp00tPT6dixU44nWHkxlojcPa/qXixftYppH37IunVrSUhIMHsEj52dHe07dOCl4cNo9fDDZn3k9jM7acoU6jdowNtvvEl0VJRpUSVbW1ue6N6ND6dNy1LwAjRr3pzfVizn1bHjOHTwIOvXrTNtq1q1KtM/+TjbGHOrdZs2fPXNN0yaMIHIi5GsXLECyFy06fU336B8hQr4b/HPs/HuhvKxWBtd6RUREU6eOEFoaCjX46/j7uGOd82aVKxY8bbHREVGkmEYVKxQEbsSdgUUaeYCNoHHj3Pu3DnSUtNwK1+eJk2b3PVjRwrrWCKSefVx/759REdFExcXR5kyZXD3cKd+gwZ3zEmQ+89sSkoKhw4eJDIyksqVq1C/fn2cXe68nkFYaCinT58mNTWVatWqUdfHJ98WU0pPT+fwoUOcP3+ekiVL0rJlS9PCXpaifCzWQkWviIiIiIiIFFlayEpERERERESKLBW9IiIiIiIiUmSp6BUREREREZEiS0WviIiIiIiIFFkqekVERERERKTIUtErIiIiIiIiRZaKXhERERERESmyVPSKiIiIiIhIkaWiV0RERERERIosFb0iIiIiIiJSZJWwdAAiIsWV/xZ/YmNjctxub29PjRo18K5Zk5IlSxZgZAVj3x/7CA8Py9Wxbdu2paK7e67HDjx+nODgYCpWrEjbdu3u6djoqCh27tyJna0dvZ7snesYROTOinueBOvMlcqTUtio6BURsZCZ//svR/88esf97O3tGT5yBKPHjMHR0bEAIisYS378gRXLlufq2PnfL7ivE7kN69cze+Ys2rRtc89Fb0hICJPGT8DR0VEncyL5rLjnSbDOXKk8KYWNil4REQtzLedK7dp1srRlZGQQExND6LlzpKamMnvmLI4cPsx3CxdaKMq8V8mjErXr1DZrj42JJTo6GgDvmjWxszO/E8fZ2Tnf4xORwqO45klQrhTJCyp6RUQsrHnzFnw596tst125coX33nmXNatXszNgJ78tXUqfp54q4Ajzx4TJk5gweZJZ+6Lvv+fdf70DwK/LfqN06dIFHZqIFDLFNU+CcqVIXtBCViIihZibmxsffzqD8uXLA7B54yYLRyQiUrgoT4rInehKr4hIIefg4ECDhg3ZtnUrwcHBZtvT09JZu3YN+/ftJzLyIjeSkqhStSrt23egs58vJUrknOrXr1vHls2biY6KolKlynR49FG6PNGV8LAwft+7F7fyFej0WCez4yIiIli5fDmBgYHExcZRvnx52rZvR6/evW87Xn65nzkAOHzoEEt/+ZWwsFBKly5Dy1at6PtMX5xy8dXAwjY3IsXBnfIkKFeC9efK6Ohofl7yE6dPneLKlSu4ubnRvGULevTsSZkyZe45Bik+9H9fERErcP16PAAu/zixiIiIoP9zzxMREWF2zM9LfqLpQw8x64vZuHt4ZNmWlJTE65Mms3rVqiztv/7yC506P4avnx+vT55C8xbNzU7k1q1Zy6SJE0lKTMzSvmrlSlYuX87sOXMoVapUrt/rvcrtHNzyxaxZfDbjUwzDMLWtX7eOn5csYc7Xc6lardpdx1LY5kakOMkpT4JyJVh/rvzlp5945+1/kZKSYnbM7M9n8vW8b6nfoMFdxyDFi4peEZFC7tKlSwQGBgJQs1YtU7thGIwaPoKIiAjq1K3DuNdeo3btOiQnJ3PgwH7+O+NTDh08yMTxE/h+8aIsfY4f9yobN2zA3t6e/gMG0KJVSwzDYJv/Vn75+WdOBIdkG8viRYt45623AXikdWu6de9OWdeyHD92nIULFrBr5y4G9R/A0uXL8mk2srqfOQA4fOgwu3buokXLFjz73POUdS1LcHAw3307j+DgYJ55ui9btm3FycnpjrEUtrkRKU5yypOgXAnWnyuPHDnCW2++iZFhMOSll/D188PW1oazZ88y/9tvCQkOYezLL7NxyxZsbXX3pmTDEBERi+jdo4fh7elljBw2PMd9Dh8+bPTp1dvw9vQyvD29jMOHDpm2nT592vD29DIa1atvXL1y1ezYdWvXGt6eXkZtb28jNTXV1P7nkT9N/f28ZInZcR/8533T9mefftrUnpiQYDRv2tTw9vQy3n/vP0ZGRkaW486cOWM0adDQ8Pb0MnYG7Lynufi7hQsWmMa/du3abffN7Rx8+sknpjGe7NnTSElJyXJcUFCQ0bBePcPb08uYO+erLNt2bN9ueHt6GfVq1zG1FdTciBQ395snDUO50jAKPldmlycNI/dz8/G06Ya3p5fx+uTJZrHHx8cbzRo3Mbw9vYyAHQG3nQcpvvSnEBERC9sZEMCjbdtlebVv3Yb6deryVK/eHDl8GICBLw6icZMmpuNiY2Lw9fNj6LCXcC3natavt7c3kHkP1/X4eFP74puP82jStCl9n33W7LhJUyZToUIFs/YfFi8m5moMXtW9mDRlMjY2Nlm2V69enYEvDgJgwXfz73EWcie3c/B3H0ydir29fZa2unXrMujFwUDmCql3UhjnRqQoyW2eBOVKsP5ceeJE5hV1V1fz2EuVKsUH06by7nv/pmLFineMQYonfb1ZRMTCkpKSsr3HCsDGxoZqDz7IqP8bTd9nnsmy7aFmzbJ9hEdGRgYXLlzg++8WZNvnmTNnAGjTtk2220uUKMEjrVuzcsWKLO379+0HoGPHTmYnPre0btOG2TNncfjgoWy357XczsEtFSpUwKdevWy3tWnbhi9nz+bChQvcuHGDkiVL5thPYZwbkaIkt3kSlCvB+nOlV/UagD/zvvmWlOQU/Lp0oelDTU0LXj3epctt4xdR0SsiYmHNWzTntQkTzNrt7e2pVbv2bRc6ycjIYPu2bewMCODUyZOEh0dw4fx50tLScjwm9Nw5ACpXrpLjPnV9fMxO5MLDwgDYsmWL6d65f7qRlATA1atXSU5OxtHRMccx8kpu5uCWOnXr5ritcuXKQOa9cGGhYdSuUzvHfQvr3IgUFfeTJ0G5Eqw7V44YNZKNGzYQER7O/HnzmD9vHk7OzjRr1oz2HdrTtVs3KlWqdMf3IcWXil4REQtzdS1Hy1at7vm45ORkxowazVZ/f1Obk5MTNWvWpI5PXWrU8OazGTPMjru1yIetrY3ZtltKlylt1nbx4kUAwkJDCQsNvWN8kRcj8fTyvON+9yO3c3BLdu/zFls7u79+vs1cQeGcG5GiJLd5EpQrwfpzpZubG2vWr+OHRYtZv24dx44dJSkxkZ0BAewMCGDqBx/Sb8AA3njrTRwcHO7YrxQ/KnpFRKzU9KlT2ervj6OjI6PHjKFT58eoW7eu6R6pkydOZHsS41HJg0uXLhEdfSnHvuPi4sza3NzciIuL45VxYxk5evQd48vpq2t5KbdzcMu1bN7nLdFRUaafK928kpGTwjg3IpJJubJo5EoXFxeGjRjOsBHDSUxI5ODBAwTsCGD92rWcP3+eRd9/j6trWca++uod+5XiRwtZiYhYqWVLfwPg1fHj+b+Xx+Dj45MXuDQMAAAF4ElEQVRlUZD4HBYjqXFzwZKQkOAc+z4ZcsKszatGdQAuXriIg4NDtq/U1FROhIRwIiTEbIGS/JDbObjl5MlTOW4LCclcOKVixYq4uLjctp/CODcikkm50rpzZWJCIlv9/dnq7296RrCzizNt27Xj9TffwH/7dnz9/ADY6r/1DjMhxZWKXhERK5SUlGQ6Sbl1YvZPmzZuzLb9yT5PAbB54yZirsaYbY+5GkPAjh1m7c2bt8jsd9Mmrl+/nm3f382bT+8ePZnw2vg7v4n7dD9zcEt0VBS/792b7baflywBoM9TT90xlsI2NyKSSbnS+nNlcnIyw4YMZdiQoZw5fdpsf7sSdrRomdmvs7PzHWOQ4klFr4iIFXJycjIt2rFl86Ys29LT01m44Hu+mfu1qS31bwuVtGnbhmoPPkhKSgpjRo8mMSHRtC0uLo6J48dz9epVszEHDBpIRXd3YmNimDxhotmVgQ3r1zPr888BGDrspft/k3dwP3Pwd5MnTOT0P06kPpo2jaN/HsXW1jbbR5X8U2GbGxHJpFxp/bnStZwrPj4+AHz4/gdmxXJsbCxLf/0VyFylWiQ7uqdXRMRKPd/vBT79ZAY//biE8LBwGjVuzNWrV9i7Zy9hoaH07NWLtWvWkJaWxptTptD7yT480b0bNjY2zJk7l/4vPM/ve/fSoV1bWrZshYODAzt3BhBzNYZqDz5oWmXzFicnJ957/z+MHfMyG9avZ98ff9Dkoaa4lXMjMDCQ48eOAdDlia7ZPjakMM3BLbXr1ObUyVN0e7wL7Tu054GyZTl44ACh50KxtbXlo08+uasFZgrj3IhIJuVK68+V4157jZHDh7N92zY6tm9Po0aNqVy5MjExmVfbExIS8PTyZPjIEXk/eVIkqOgVEbFSI0aNIiYmlu8XfMfuXbvYvWsXAOXLl+ftd95h4IuDcHNzY/68efhv8cfT08t0ElOnbh0W/vADr4z+P86cOcOG9esBsLOz47UJ40lLS+Pz//7P7HmLnX19+XX5Ml59ZSynTp7Ef/MW0zYnZ2eGDB3CK+PGFdAM3N8cADRp2pTRY8bwzltv47/lr1VNy7q68vY7/6JX7953HUthmxsRyaRcaf258jHfzsycPZtpU6cSER7O9m3bTNtsbGzo1r07E6dMpkyZMvc6NVJM2Bi37ggXERGrFB0VRVBQEPHx8VSpUoWGjRpRosRff9OMiIggLjaWmrVqmT0L0jAMjh09RlhYKCVKlKBx4yZ4VPLgP//+Nwvmf0eXJ7oy64svzMY0DIPA48c5d+4caalpuJUvT5OmTe74rMz8cj9zAHD9+nWOHD7C5cuX8PDwoEnTprl+bmZhmxsRyaRcWTRy5ckTJwgNDeV6/HXcPdzxrlmTihUr5ioGKT5U9IqIFDNBQUGcCAnBzc2Ntu3aZbtPj65PEBQUxFv/+hcvDhlcwBGKiFiecqVI0aGvN4uIFDMngkMY/+qr2Nvb479ju2mBk1uWLf2NoKAgADr7drZEiCIiFqdcKVJ06EqviEgxk5SUhG+nTkRejMSjkgejRo+mZq1aXLt2jd27drF44SIyMjJ47oXnef/DDy0droiIRShXihQdKnpFRIqhiPBwhr442OzxE5C5QMuAQQOZ8sYbWe71EhEpbpQrRYoGFb0iIsVUWloau3bu5I/ffyc2NhbXsq5UrloFXz8/KlSoYOnwREQKBeVKEeunoldERERERESKLFtLByAiIiIiIiKSX1T0ioiIiIiISJGloldERERERESKLBW9IiIiIiIiUmSp6BUREREREZEiS0WviIiIiIiIFFkqekVERERERKTIUtErIiIiIiIiRZaKXhERERERESmyVPSKiIiIiIhIkaWiV0RERERERIosFb0iIiIiIiJSZKnoFRERERERkSJLRa+IiIiIiIgUWSp6RUREREREpMhS0SsiIiIiIiJFlopeERERERERKbJU9IqIiIiIiEiRpaJXREREREREiiwVvSIiIiIiIlJk/T/xhggKZ03RGAAAAABJRU5ErkJggg==;" parent="1" vertex="1">
          <mxGeometry x="360" y="-20" width="370.75" height="320" as="geometry" />
        </mxCell>
        <mxCell id="RWK8OXjm__JFOhkUaJIX-1" value="" style="group" parent="1" vertex="1" connectable="0">
          <mxGeometry x="140" y="790" width="1132.1799999999998" height="530" as="geometry" />
        </mxCell>
        <mxCell id="D-sqYa0wRiz-SFtbxjmq-74" value="" style="swimlane;startSize=0;fillColor=#CCFFE6;gradientColor=none;swimlaneFillColor=#CCFFE6;fillStyle=auto;shadow=0;rounded=0;sketch=0;" parent="RWK8OXjm__JFOhkUaJIX-1" vertex="1">
          <mxGeometry width="1132.1799999999998" height="530" as="geometry" />
        </mxCell>
        <mxCell id="D-sqYa0wRiz-SFtbxjmq-75" value="HIT" style="text;html=1;strokeColor=none;fillColor=none;align=center;verticalAlign=middle;whiteSpace=wrap;rounded=0;fillStyle=auto;" parent="D-sqYa0wRiz-SFtbxjmq-74" vertex="1">
          <mxGeometry x="750" y="10" width="60" height="30" as="geometry" />
        </mxCell>
        <mxCell id="D-sqYa0wRiz-SFtbxjmq-79" value="" style="rounded=0;whiteSpace=wrap;html=1;fillStyle=auto;fillColor=#fff2cc;strokeColor=#d6b656;gradientColor=#ffd966;" parent="D-sqYa0wRiz-SFtbxjmq-74" vertex="1">
          <mxGeometry x="50" y="80" width="130" height="30" as="geometry" />
        </mxCell>
        <mxCell id="D-sqYa0wRiz-SFtbxjmq-80" value="" style="endArrow=none;html=1;rounded=0;entryX=0.5;entryY=1;entryDx=0;entryDy=0;exitX=0.5;exitY=0;exitDx=0;exitDy=0;" parent="D-sqYa0wRiz-SFtbxjmq-74" source="D-sqYa0wRiz-SFtbxjmq-79" target="D-sqYa0wRiz-SFtbxjmq-79" edge="1">
          <mxGeometry width="50" height="50" relative="1" as="geometry">
            <mxPoint x="190" y="99.99999999999977" as="sourcePoint" />
            <mxPoint x="190" y="70" as="targetPoint" />
          </mxGeometry>
        </mxCell>
        <mxCell id="D-sqYa0wRiz-SFtbxjmq-81" value="PTN" style="text;html=1;strokeColor=none;fillColor=none;align=center;verticalAlign=middle;whiteSpace=wrap;rounded=0;" parent="D-sqYa0wRiz-SFtbxjmq-74" vertex="1">
          <mxGeometry x="40" y="80" width="60" height="30" as="geometry" />
        </mxCell>
        <mxCell id="D-sqYa0wRiz-SFtbxjmq-82" value="PT Offset" style="text;html=1;strokeColor=none;fillColor=none;align=center;verticalAlign=middle;whiteSpace=wrap;rounded=0;" parent="D-sqYa0wRiz-SFtbxjmq-74" vertex="1">
          <mxGeometry x="120" y="80" width="60" height="30" as="geometry" />
        </mxCell>
        <mxCell id="D-sqYa0wRiz-SFtbxjmq-72" value="" style="group" parent="D-sqYa0wRiz-SFtbxjmq-74" vertex="1" connectable="0">
          <mxGeometry x="50" y="50" width="260" height="30" as="geometry" />
        </mxCell>
        <mxCell id="D-sqYa0wRiz-SFtbxjmq-67" value="" style="rounded=0;whiteSpace=wrap;html=1;fillColor=#cdeb8b;strokeColor=#36393d;" parent="D-sqYa0wRiz-SFtbxjmq-72" vertex="1">
          <mxGeometry width="260" height="30" as="geometry" />
        </mxCell>
        <mxCell id="D-sqYa0wRiz-SFtbxjmq-69" value="" style="endArrow=none;html=1;rounded=0;entryX=0.5;entryY=0;entryDx=0;entryDy=0;exitX=0.5;exitY=1;exitDx=0;exitDy=0;" parent="D-sqYa0wRiz-SFtbxjmq-72" source="D-sqYa0wRiz-SFtbxjmq-67" target="D-sqYa0wRiz-SFtbxjmq-67" edge="1">
          <mxGeometry width="50" height="50" relative="1" as="geometry">
            <mxPoint x="99.4117647058827" y="10" as="sourcePoint" />
            <mxPoint x="99.41176470588236" y="40" as="targetPoint" />
          </mxGeometry>
        </mxCell>
        <mxCell id="D-sqYa0wRiz-SFtbxjmq-70" value="VPN" style="text;html=1;strokeColor=none;fillColor=none;align=center;verticalAlign=middle;whiteSpace=wrap;rounded=0;" parent="D-sqYa0wRiz-SFtbxjmq-72" vertex="1">
          <mxGeometry x="22.941176470588236" width="45.88235294117647" height="30" as="geometry" />
        </mxCell>
        <mxCell id="D-sqYa0wRiz-SFtbxjmq-71" value="PAGE OFFSET" style="text;html=1;strokeColor=none;fillColor=none;align=center;verticalAlign=middle;whiteSpace=wrap;rounded=0;" parent="D-sqYa0wRiz-SFtbxjmq-72" vertex="1">
          <mxGeometry x="183.52941176470588" width="45.88235294117647" height="30" as="geometry" />
        </mxCell>
        <mxCell id="D-sqYa0wRiz-SFtbxjmq-31" value="" style="shape=image;verticalLabelPosition=bottom;labelBackgroundColor=default;verticalAlign=top;aspect=fixed;imageAspect=0;image=data:image/png,iVBORw0KGgoAAAANSUhEUgAAAtMAAAHTCAYAAADlHJSsAAAABHNCSVQICAgIfAhkiAAAABl0RVh0U29mdHdhcmUAZ25vbWUtc2NyZWVuc2hvdO8Dvz4AAAAmdEVYdENyZWF0aW9uIFRpbWUAU2FsIDI1IEVraSAyMDIyIDExOjI2OjE1gGIYGAAAIABJREFUeJzs3Xd4VMX6wPHvZrPpIT0QkoBAKKH33gVUesBGUSzXSxErKD+liSiKgnL1WlC5AkovohBABemgIFVBAiQhCUlIsullU3azvz8CCyFts9lkU97P8/jc5OycOe+Zcye8mcyZUej1ej1CCCGEEEKIcrOydABCCCGEEELUVJJMCyGEEEIIYSJJpoUQQgghhDCRJNNCCCGEEEKYSJJpIYQQQgghTCTJtBBCCCGEECaSZFoIIYQQQggTSTIthBBCCCGEiSSZFkIIIYQQwkSSTAshhBBCCGEiSaaFEEIIIYQwkSTTQgghhBBCmEiSaSGEEEIIIUwkybQQQgghhBAmkmRaCCGEEEIIE0kyLYQQQgghhIkkmRZCCCGEEMJEkkwLIYQQQghhIkmmhRBCCCGEMJEk00IIIYQQQpjI2tIBCPPavm0bcTdvMv3554t8tvS99+jcpQs9evZk2dIPeGPum9g7OFRqPGlpaVV2rerikxUrUCeoDd+rbFS0CgwkaNw4rK2lywkhhBC1iYxM1zJ2tnas+OhjkpKSCh0PuRzC1yu/wtXVDZ1WR2hoKLr8/BLrGT1iJAcPHKhwPJqsLNavW0dOTk6F66opgnfuIjIyAjd3N9zc3UhPS2fZ0g94+skp6PV6S4cnhBBCCDOSYbJa5v6hQ3BwcODnvXuZMHGi4fie3cH4+fvTtVtXFAoF6zZuKHJuTk4OGo0GV1dXMjMz0Gq1Rl9Xo9EQGxuLq6sr7u7uZrmXmmzgoME89czThu8vXbzI6BEjuXTxIm3atgVKbzOdVkdcfBwNGzYstv74uDgcHB1xcnKqvJsQQgghRJlkZLqWsbW15aERw9m9K7jQ8T3BuxkbNBaFQkHczZu0DAggJTkZgHat2/DdmrV079yFHdt/YPyYsURGRDJz+gy+W7MWtVpdqDzAa7NmsfzDZQCs+XY1/Xr1ZsbUafTp0ZOXZr5Afimj3nWRp5cXABkZGUDpbbZ7VzCdO3TgoaHDGDpoMAvnzefFmTMBuHD+AoMHDOSBIUPp2rETc2a/Vq5feoQQQghhXpJM10JB48Zz8o8/UKsL5u2GXA4hNDSUMUFBhjI6rc7wdb5Ox5bNm9m4dQuTnpjMth930KhxI/77xec8MeXJIuUB8vPz0efnk5WZxZJ33+H7jRvY++svHD5+jP379nHh/PkquNPqS61WExYWRlhYGIcPHWLB3Hl4enrSvn37UtssISGB12fPZvGSdzn391988vln7PjhB/Lz88nJyWHac88xcdIkzlw4z4mTJzl39izbt26z9O0KIYQQdZZM86iFunbrio+PDz/v3cukyZPZszuYjp060aRJkxLPeebZZwkMDCz3tWxsbdh/4AANfX25GXuTa9eukZ+fb0jk66pVX3/N2jWrAbBR2dAqMJBv167B3sEBrVZbYptFRETg6OjI6DFjAAgMDKTfgP4AHD18BBQKJk6aRLZGg52dLcNHjmB38C4effwxS92qEEIIUadJMl0LKRQKxgSNJXjnroJkOng3Tz41pdRzApoHlO8it96j0+v1fPXlSoJ37cLL25tWrVphb29vYuS1x5w33ig0Z/pupbVZclIyPvfMk27WrBmhoaHcuHGDpMREhg25v9DnjRvfVyn3IIQQQoiySTJdS40dN44vPvuco0eOEhkZyYiRIytc592rf1y5cgUfHx92bN/OoYMH+Xn/Pjw9PQHo3b1Hha9Vm5XWZr5+vly9coW8vDxUKhVwZ561u4c79evX59Cxo4a6kpOSSUtLq+I7EEIIIcRtMme6lmrSpAnt2rfnzTlzGDhoEK5ubuU639paZUjSXFxcUKlUnD1zBoDz584RcvkyULCOtJVSiZtbwZJ7W7dsIT4+nrzcPPPeUC1SWpv1698fOzs7dv20E4Do6GjD17379CElJYW9u/cAkJiYyL//9S+2bN5ssXsRQggh6jpJpmuxcePHERMTw9hxQWUXvkfffn15Y84cNqxfj0qlYur0acyYOo3+vfvw9sK3GDV6NABjgoJQKq3o2a0bfXv14vSpPxk+cgTz580jNTXV3LdUK5TWZjk5OXzx1UreX7KEgX37ETRqNPc1aYKVlRUeHh58/MknzJs7lwF9+tKnR088PDx4+dVXLH1LQgghRJ2l0MsuEqIE6enpODg4oFQqAYiPj0er1RZZ+1in1RERGYGvry+2trbodDqSk5MNUxhEUSW1mbOzM/Fxcfj5+xMVGYlPw4a8+vLL1K9fn3kLFhScq9MRERGBs7MzXreW3BNCCCGEZUgyLUQ1kpGRQY8uXVny/vv0HzCA06f/5PVZs1m1+ls6de5s6fCEEEIIcQ9JpoWoZg789hsrPvqYm7Gx+Pr5MmPmTIYMHWrpsIQQQghRDEmmhRBCCCGEMJG8gCiEEEIIIYSJJJkWQgghhBDCRLJpiwV9smIF6oQ7226rbFS0CgwkaNw4rK2r9tEsnL+AJk2aFNm174dt2wEIGj/ObNe6ERXF6m+/NaxOUZskJSWxdfMWzp45Q1JSEh06dmTosGF0697NUOZKyBW+X7uWrt27MXrMmCLfCyGEEKLmkJFpCwreuYvIyAjc3N1wc3cjPS2dZUs/4Oknp1DVU9k3bljPu4sXc+b06ULHfz9xgt9PnDDrtRITE9m8aZNZ66wOwsPDGT82iF07d9KtezcenzCBtNRUJk+cwPdr1xrKffD++yQmJhIYGFjs96YaPWIkBw8cqFAdQgghhCgfGZm2sIGDBhcaDb508SKjR4zk0sWLtGnbFgCNRkNsbCyurq64u7sXOl+n1REXH1dk7ee7xcfF4eDoiJOTU6mxtGnblvlz5/LTrmCU1kqT7yk7O5ukpCRDTFmZWaSkphQbY0pKCvp8PW7uxe/QWFrsOTk5aDQaXF1dTY7VnP7vtddp3LgRX61ahY2NDVAwot+jZ09enz2bXr170ywggKjISF6ZNYvmLVoAFPkeCtolIz0dXz8/FApFoeuU1CaZmRlotdpKvkshhBBC3E1GpqsZz1ubcGRkZACw5tvV9OvVmxlTp9GnR09emvkC+fn5AOzeFUznDh14aOgwhg4azMJ583lx5kxDXRfOX2DwgIE8MGQoXTt2Ys7s10pNtma++AIZ6Rn8b9WqYj9Xq9W0DAggJTnZcOy1WbNY/uEyoqOjad2iJZ+sWMHg/gMY0Kcv8958k2VLP6Bf7970792H/3vtdcN5+nw9ixYuZECfvvTo2pXp/56KJivLqNjbtW7Dd2vW0r1zF3Zs/6G8TVwp/v7rL07/+Sdz3nzTkEjfFjR+HG3atmXt6jWMHzOWsLAwXn7xRT7/73+LfK/X61kwdx4D+vRl4mOP06NLV44eOQqU3ibjx4wlMiKSmdNn8N2atUXiE0IIIUTlkGTawtRqNWFhYYSFhXH40CEWzJ2Hp6cn7du3JysziyXvvsP3Gzew99dfOHz8GPv37ePC+fMkJCTw+uzZLF7yLuf+/otPPv+MHT/8YEi0c3JymPbcc0ycNIkzF85z4uRJzp09y/at20qMxcHBgUXvLOaT//yH6OjoYsvotLpC3+fn56O/dc3c3FyioqI4fPwY365dy8b1G7gecZ2TZ06zYfMmtm7ZQlRkJFAw2m5ra8vp8+c4ceok4eHhfPP1N0bFnq/TsWXzZjZu3cKkJyZX7AGYyT+XLmHv4FDiVI3OXTpz6dIltv24g6ZNm7Li00+YMXNmke/PnT3LLz//zO+nTnL4+DFem/M6C+fPK7NNtv24g0aNG/HfLz7niSlPVuWtCyGEEHWaJNMWturrrxk7ahRjR43i1ZdeJiMjg2/XrsHewQEbWxv2HzhAixYtuBl7k5DLIeTn56NWqzl+7BiOjo6MHjMGhUJBYGAg/Qb0N9R79PARUCiYOGkS2RoNdna2DB85gt3Bu0qNZ+CgQQwaPIhFCxeadD/TZszA2tqaXr16AfDklCkolUq6de+Oi4sLUVFRhrLPPPss1tbWeHh4MGbsGA78tt/o2J959lkCAwNRqVQmxWluGZmZODo4lPi5o6MTmZkZZdbj7OxMcnIyG9avJzIigkcee4z9Bw+a/DyFEEIIUblkzrSFzXnjjSIraNym1+v56suVBO/ahZe3N61atcLe3h6A5KRkfO6Zg9ysWTNCQ0MBuHHjBkmJiQwbcn+hMo0b31dmTPMXLuSB+4fw6y+/lH0D97wn6dPAp+CLW9N8b09bAQpNf3B0dMS7fv075/k0JCkp2ejYA5oHlB1bFWrk3wi1Wk16ejrOzs5FPg8PD8O/UaMy6wlo3pxlH3/E6lX/Y+l77+Pr58f0GdPJytKY/DyFEEIIUXnMmkyvPxnHhlNxzBjgy0NtPYot89WRGHZeUDNraCMGtnDlxU1XcbJVsmRsU3OGYpLqFAvAju3bOXTwID/v34enpycAvbv3AMDXz5erV66Ql5dnGJ29Pc8awN3Dnfr163Po2FHDseSkZNLS0sq8rpeXF6/93xwWLVxIx46dcHR0LPS57ta0DoArV67g4+Nj+P6ed+VKlJOTg1arNSwBePHiRXx9fSscu6X07tsHVzc31n3/PdOmTy/0WWxsLL/t288Hy5eVWU9kRARt27Vj2487SEtLY9OGjSyYN5+58+fVuDYRQggh6gKzTvPo6O/EH+FprDsZV2KZVcdiOBuVQSf/gpUI/o7O4J/YzDLr/vpoDB0XnyJFU3mrFRgbS1VJS0vDSqnEzc0NnVbH1i1biI+PJy83j379+2NnZ8eun3YCEB0dbfgaoHefPqSkpLB39x6gYDm6f//rX2zZvNmoaz8+YQK+vn6FRqddXFxQqVScPXMGgPPnzhFy+bJJ96bVavnm668BSE1NZf++fYwcPcossVuCvb09r8x6lU8+XsH3a9eiycpCr9fz14W/ePrJKQS2bs1Dw4eXWc+B3w4w7bl/o8nKol69enTs1AmdTkcvI9rE2lolybUQQghRxcw6Mt3ax5E2DR05GJJMqkaLi33h6v+OySRcnc2o9p6Gz359uWORpb+Kk5GtIyY1hypeftmixgQFsWH9enp264a10pqBgwYxfOQI5s+bx/6+B/jiq5W8MON5/vPxx2RlZdGkaVOsrAp+P/Lw8ODjTz7h9dmzee/dd4mLi2PgoEG8/OorRl1boVDwzpJ3GTV8hOGYSqVi6vRpzJg6jQYNGuDl5cWo0aNNujdPT0/OnD7NgD59SU1NZfjIETz2+ONmid1SJk2ejKODIx8vX87iRW9ja2cLwNChw3jnvSUolWUvN/jIo49y5PBhenbrjruHB+qEBOYvXEizZs3KbJO+/fryxpw55OTkMGHixEq7TyGEEELcodCbeXeQzw9F89bOcD59vAWPdfUu9NmSPRGs2B/F2qdb82CbgvWSfw9PQ2WloEvjgnmmF2MySdFo6dPMhZPX0zh1PY2eTVxYdTyWrafj+WJSS9o2dKRlfQf+CE9DoYDu99UrdJ0j11JwtrWmo/+ddXgzcnTsuqDmemI2CgV0bVyPQS3dsLorjx/80Vlc7K35YXo7czZJhei0OiIiI/D19cXW1hadTkdycjLOzs7Ex8Xh5+9PVGQkPg0b8urLL1O/fv1COwvqdDoiIiJwdnbG6675yxURHx+PVqstdW3r8tTl5OiEg2PRl/cqI/aqkpCQQHJSMs0CmhmVRN8rIyODm7GxNGzoW6htymqT9PR0HBwcTLqmEEIIIcrP7Ml0XFouHd85xeCWbqx7tnWhz3q+f5rkrDz+XtgDlbIgi703gX1x01VOR6QxtqMXH/4SibezDc297TkWmmqoZ2q/hiwe05Rh/zmH0krBnhc6FLpOlyV/0rahI2ueKlimLDRBw/BPz5On09OygQNpGi1X4zUMbuXG+mfbGBLq6phMlyQjI4MeXbqy5P336T9gAKdP/8nrs2azavW3dOrc2dLhCSGEEELUCWZfzaN+PRv6N3fl4JXCUz0uxmQSptbwbB8fQyJdkoikHLacjue7Z1rTzteRhi62fLwvivf2RhDydk/cHMoX9pI9ESitFBx/vQseTgUv6606FssbP4RyJjKdro2Lrr5Q3Tk5OfHfLz5nxUcfs+Sdd/D18+WD5cskkRZCCCGEqEKVsjTeI128ORCSzJ6/E3m8W8HyZz9dUBs+K0uuNp8vJ7WkcyPzJLnd7nNmVHtPQyIN0M63YIWKkLisGplMAwwaPJhBgwdbOoxqbeH8BQwdNoy+/fpaOhQhhBBC1EKVkkyPaOeBo62Sny6o7yTT59UEeNkblSDbqazo5G++BHdaf18ycnTsvZhIWEI2EUnZHL6aYrb679anZy/ibt6slLqFadZ9952lQ6jRXpk1i+dfmFl2QSGEEKIOqpRk2l5lxch2Hmw/m0CKRktMSg6hCRreeLCxUefbWlsZvV5xce6dBv7l4WjeCb6OTg+tGjjQ3NueUe09WbE/qoQaTKdOSGDD5k00aNDA7HWL8pv1yqsMGTqUh4Y/ZOlQaqSvvlxJQkKCpcMQQgghqq1K2wHx0S7ebPoznj1/JxJxawWNhzubf0WG4l6fTMq8sxZ1mFrDwp3hjOngyYfjAwxzuP+JzayUZBrAx8cHP3//SqlblI+dnR3uHu5G7T4oiqrnUo/MzCxLhyGEEEJUW5WWTPcJcKWhiy0/nlcTmZhNr6Yu+LvbmfUadtZWRKfmFjp25GoKWbk6w/eXYjLR6+GBNh6F1r3+PVw2txBCCCGEEBVj1h0QC1WsgPGdvTgQksy1BI1RLx6Wxsu54OXBdX/cJDIpG4AOfk5EJWXz+aFobiTnsOfvRF7adLVQ0tyygSMKBXz3+00uxWYSk5rDyiMxfPBLJAAxKTmFkm8hqoOMHB26/Dq0Q5EQQghRQ1XayDQUTPX49MANbK2tGNXeo0J1DWrphoeTireDrxOXlsviMU15dWgjTkWk89bOcN7aGY6DjZLljwTwzdEYw3nNve1586H7WLo3goHLzwLQtqEjO59vz8wNV/jwl0g8HFU808enQvFVlrNRGZy6noZKqaBPMxda1C+6uYm567JUudMR6ZyOTEehKPhF6d7NeKqrXJ2ezw/eoHczF0PMSZl5XEvQlHpei/oOuN71i9/1xGyW7LnO2agMIhKzsbG2IsDLnqd7+/BEzwaFNhgSQgghRPVg9k1bKpMuX09iZh7ujiqs78osQuKyyNXmE+jjWOj43RIz8ghTa/BwUtHU0x6APJ2e2NQcGrralnheebVsFsD+gwfMMmd6cfB1Pj1wA5VSgS5fjx5YGtSMp3qXP/E3ti5LlMvR5jPxm0scuZaCjVKBTl/wrAe3cmP1lEDsVKb/AeXJSZMZPXYMDz/yiMl1lGXhznC+OBTN/BH38cIgPwB2nFPz7+8vl3reumdbMzSwYCfQnRfUvLTpKjnafB5q60Hbho7kavX8cimJC9EZ3N/KjXV3bTBUVT5cupTMzCzeentR1V5YCCGEqCEqdWTa3JRWCrydbYocb2nEaK2Hk6rQOtMAKqWCRmaex20uO86p+fTADab0asCCEU3I1ebzypZrvLkjjEAfR3o0MX7U1ti6LFVu9tZrHA9L5bMJLRjdwRO9vmAFliV7IliyJ4K3Rzcxc+uaz4GQZFYeji5yvGfTekV2AL3tg58jiUvLpYNfwXb3N9NyeWHjVVztrVnzdKDhOMDrDzTirZ3hfH4ompWHo5k+wLdybkQIIYQQJqm0OdOiYr48HI2fqy3vBzXD2U6Jh5OKzye2wFqpMExjuRqv4dd/kohIzC50blRSNr/+k0SYWmN0XZYql5GjY/vZBB7u7MUjXbyxtbbCTmXFy/f708HPid1/J1ZaG1eUOiOPmRuv8GyfhkU+a1DPhqGB7kX+y8jRcTEmk9VPBRp+MXx/bwRZuTreHdu0UCJ925sPNcbTScWW0/GVfk9CCCGEKB9JpqshdUYeZ6PSGdbGHeVdf9d3slUyoLkrv4Ukk6fTo1IqeO67EB7/5iI52nygYP7uxP9dYuaGK9irlEbXZaly0ck56PXQs6lLkXbwcFKhzsgza9uai14PL2y8QlNPe14Y7GfUOZFJ2czaco3nB/oW2rzol0tJNHK3Y0S74t8rsLG24o//68q2ae3MErsQQgghzEeS6WooNEGDXg8BXvZFPmvmbU96to649Fzu87Bj0agmhCZoeG9vBADLf40k5GYWH4wPwMfFxui6LFWuZQMHYj7ow6Tu9QuVUWfk8ef1dMO279XNyiPR/BGexmcTWqA0coehhTvD8XRSMWvonTWv07K1qDPyypyq5GynxM2hRs3KEkIIIeoESaaroeSsgtFYVwdVkc/cbx1LvDViO6VXA+5v5cbKwzGsOXGTT3+7wcNdvBnTwbNcdVmqXHF+D0/jwU/Ok5WrY97w+4otY0l/x2TyTvB13g9qZvSc+xNhqQT/lcjrDzQu9EJlZFIOAA1di74LIIQQQojqT5Lpasjq1khncQut3F57+O7VR1Y82px6dkpe23aNBvVseD+oabnrslS5u6kz8pi15RpjP7+AVqdny9S25XrRsipo8vL593eXeaCNB492NX7t9LeDr9PQxdbwS85t9rcS65QsbXGnCSGEEKKak78bV0PujgUjt0nFJFjJt47dvTJJ/Xo2BPo4cjw0lS6Nnalnd+exGluXJi/fIuVuC/4rkVc2XyVXp2fW0EbMHORnSDSrk88O3iBMrWFi9/qsOxkHQJqm4H7ORKaz7mQcA1u44utqazjn/I0MTkek89aoJqiUhX+B8HGxwdpKQURS4ZdI7/Wf325wLiqdlZNbYaOUBaeFEEKI6qLCyXRylpYnv70EwFeTW+HjYtyfq9/dfZ0wdTarnmxllnK1SYv69qiUCi7GZBb57GJMJp5OqkJLBK45cZPjoam0qO/Aj+fVjOuUyENtPcpVl4ONlUXKAez+O5Fn1/7DgBZurHi0udH/H7KErNx87G2ULN8XZTiWf2uk/ddLSRy8ksKqJ1oVSqZXH49FoYDHixnJdrBR0rWxM7+Hp3ElLqvYDW2ycnV8vC+KAC97SaSFEEKIaqbCQ3/bzsTzR3gaf4Sn8cPZBKPPuxKv4dyNDLOVq03q2VnTs6kLv/6TRGbOna3OY1NzORGWyrDW7obNOyISs1m4M5yeTeqx+4X2+Lna8urWa4ZVMIyty1LlcnV6Xt8WSp8AV9Y/27paJ9IAC0bcR/i7vQr99+eb3QCY82Bjwt/txeBWbobyeTo9O86radvQyfBXgnvNG3EfCgXM+zGs2K3t3w6+Tlaujqd6N6icmxJCCCGEySqcTG84FU/bho7Ur2fDZlkH12xmDfEnNUvLc99f5u+YTP6MSOep1ZewU1kx49bGHfl6mLnxCtp8PcsfaU49O2s+erQ5iRl5zNp6rVx1WarcgZBk4tNz8XZS8fmhaD49cKPIfzVnj86i/orOIDNHR7/mRZf+u637ffWY0suHg1dSGP7pBb44FM3Ra6ns+yeZKav/4X/HYhnU0o0J3eqXWIcQQgghLKNC0zwuxWbyV3QGi8c0JSIxm2+OxnApNpPWPoWXM0vP1rH/cjKXb2bSxNOeoI6exdZnTLmLMZmkaLT0aebCyetpnLqexvMD76zzeyYynbNRGaRptHRp7Ey/AFfuXbksKimb3ReTiE/LpaGrLaPaexTZWdGYMpWpdzMXlo5vxhs/hLHvn7NAwfJoKye3NEwF+PJQwfJscx5oTHPvgiXoBrZwZdKt+byb/oznsa7eRtVl7DXNXe5afBYA284msK2Ev2zMGOBr9PJz1c0f4WkA9A9wLbXcB+Oa0cHPiUU7w1m4M9xw3M3BmucH+vF/DzYqtF63EEIIIaoHhb645RaMtOCncL45GsP5+d0JU2sY9dkFZgz05a2Rd7Z/DlNrmPjNJcLUGtwcrEnL1tGlkTMONlaEqrM5/WbXcpV7cdNVTkekMbajFx/+Eom3sw1/L+xOrjaf17aFsuFUHPXsrNGjJz1bx6j2nnwxsQU21gWD8NvPJjBzwxWc7ZR417MhIjEbR1slG55tQ0d/J6PLlKRlswD2HzyAn7+/qc1aiDojjws3MrBWKujo71To5cLKqstS5SrDk5MmM3rsGB5+5JEqu2Z56LRa8vV6VKqCKSDafD2hCRrC1Rpc7K3p0rieRedJf7h0KZmZWbz19iKLxSCEEEJUZyZnNdp8PVvPxDOwpStezio8nVT4uNiw/UwCC0Y0MczpfW1bKHHpueyY3o5eTV1I0Wh5adNV9l5MxP+uNXqNLQcQkZTDltPxfPdMa8OmHp8djGbDqTiWjmvGlF4+KIDt5xJ4fn0Ia36vx3N9C7Z8fuOHUMZ28uKzx1ugUEBSZh6jP/+LhTvD+XFGO6PLVBVPJ1WhObhVUZenkwr1uV9oGdiKenYdzFKfue6hvKysrFBaKS1ybWPMfnUWN2/GsmHzZqBgucCW9R3K3MRFCCGEENWDycn0vn+SUWfk8UiXghUKFAoY3d6TlUdiOHothf7NXQlXZ3Pkagqzhzaid7OCOaNuDtb857HmtH4ryVCXseVuy9Xm8+WkloYtmfN0er48HM3Yjp483dvHUG58Jy9+Oq9m9fFYnuvbkOQsLclZWpxslYapH+6OKj6b0ILolILNM4wpU5ZRw0dgZVX9lnUrj7S0NKytrXFwqNlJnUaj4eyZM7zz9tuWDqVYGRmZ6PN1dOnQ0dKhFCs7O5uJkyZZOgwhhBCi2jI5md5wKg5rKwX17Kw5HpoKgM+t5cA2n46nf3NXriUUzIft0ti50LluDta0auBAWnbBygXGlrvNTmVFJ/87ZaNTckjO0qJAYVj79za9Hq4laMjV6XFzsKZzI2dWH4/lZHgaA1u40ifAhQHNXeng52S4ZlllSrP9xx3FblRS0zwybjx9+/XlpVdesXQotdr8ufNIVKv5fOWXlg6lRPc1aVJ2ISGEEKKOMimZTsrMY98/SWjz9Uz45mKRz4P/SuRBF7NxAAAgAElEQVTD8flk39q4w8a66JxPTyeVIUk2ttxtttZWhV4qjE0tGDE+ci2FczfSi9Rxn4cdiRl5+LjY8NPz7dlwMo5Nf8bx9dEYPj8UjbOdkgUjmjClV8HSY8aUKUmbtm1L/bymsLKywtXNjbbtqnZaS13j6OhIelqatLMQQghRQ5mUTG89k0CeTs+iUU1o1aDwNID9l5P56kgMu/9OpIlHwVzn2JTcInXEpd05dnuDi7LKlaR+vYJVNmYO9GPGQN9Sy9ooFUzp1YApvRqQlavj8NVU3t4Vzpzt17g/0A0/V1ujygghhBBCCGHSxN6Np+Lwclbx734NGdTSrdB/zw/0Q6GALafjae/nRP16Nuz6S13o/MikbEITNIbvjS1Xkkbudrg5WLM/JLnIZzM2XGHQRwXLsm05HU/D148ZduVzsFHyYBt3pvb3JV8PGdk6o8oIIYQQQggBJiTTF2My+Tsmk6COXsWue+vjYkP3++px6EoKSZl5zBjgy96LSbyz+zqhCRqOh6YyZfU/hc61tlIYVa4k1lYKZg9rxJGrKby5I4zLN7O4Gq/hrV3hbD0db3hJckALV5RWCmZtvcbx0FRuJOfw86Ukvj0ei7+7Hc297Y0qI4QQQgghBJgwzWPjqYIX/MZ39i6xTFBHL/4IT2P72QSmD/AlPVvHl4ej+eS3GwA81NaDtg0dOR6WZjjH2HIl+VefhuRp9by3N4JvjsYABXOrXxvWiOn9C6Z+eDvbsPbpQF7cdJWxX/xlOLedrxPfPx2I0kphVBkhhBBCCCGggpu2lIcuX8+l2Ey8nW0Mc5wrUq4keTo9IXFZaHJ1tGzgUOwGIbp8PVfiskjN1uFTz4ZG7nZFdkk0pkxt1qZlK4aPHMGHy5dbOpRabfKEidyMjWXfwQOWDkUIIYQQJqiyreiUVgra+Za9tJyx5UqiUipo29Cx1DJKKwWBPhUvI4QQQggh6raavbOIqDIajYbHH3mE3/btt3Qotd6Xn3/O+XPnLB2GEEIIIYwgybQok0aj4aGhwzh/7jyNGje2dDi12ruL32Hdd9/j5V3yOwlCCCGEqD6qbJqHqJk0Gg3Dhz1AXNxNNm/dRkDzAEuHVGstW/oBe3fvZt3GDTRs2NDS4QghhBDCCDIyLUqk1WoZPuwBbt6MZfPWbbTr0N7SIdVay5Z+wI87drBu4wYZ/RdCCCFqEBmZFiX6bd9+cnNzJJGuZMlJSZJICyGEEDWUjEyLIjQaDbm5uWg0WaUm0hHh4Sz/8MMixw8dOsT77y7h+NHjlR1qjRcVGUlGZmapiXRKcjL7fv212HN3/vQTR48cITc3t7JDFUIIIUQxZGRaFHL7ZUO9Xs+AgYNKHZF+bfZrXP7nErNee81wbPKEifzx+++4ubmz+n//w8XdjSPHjmFjU/41w2u7ZUs/ICEhAR8fn1JHpFd9s4qjRw4zZOhQw7GVX3zJF599RsdOnYiKigRg45YteHl5VXrcQgghhLhDRqaFwe1EOi7uJjY2tri5uxVb7qUXX6RDm3acOX260PGDv/3G7ydO8M6Sdzl55k9+P/0nqUnJvD5rVlWEX6PcniPduk0brK2L/5123fff88i48Xzx2WeFjt+MvcmyDz5gw5bNrP5uLb/s24+Dg2ORckIIIYSofJJMC6BwIr1567ZSd3vs17cvj0+aQKPGjQod37t3L9ZKJY9NmACAq6sr9zVpyvFjJyoz9Brn7pcN7ezsSizXtm1bnn3uXwSNH1fo+KWLF2natCmBgYEAKK2V9O3Xl+vh1yszbCGEEEIUQ6Z5iCKJdFkvGz786KMAXA8LQ52QYDju4upK/j2702dkpJOZmW7+oGuo8qza0aFjRzp07Ej0jRtcu3rVcHzwkPsZPOR+w/eZmZkcOniQocOGVVrcQgghhCiejEwLgkaNJi4ujm07dlRo1Y6nnn4agOEPPsTWzZt5ccZM4uJuUuowdx3y2af/5ccdO1i/aaPZVu04fOgQw4c9gK+vH1OnTTdLnUIIIYQwniTTgqCHx/Pjzp20btOmQvX4+Piwas1q0tNSWbhgIf/88w+dOnfB0cHJTJHWbD169mTDls34N2pUduEy5Obm8vILLzL7lVeZ+dKLfP2/VTg4OpghSiGEEEKUh0zzEEydNs0s9USEhxNz4wZHjt9ZEq9nt+4Etm5llvpruq7dupqlHq1Wy9NPTsHLy4v9hw7i7OxslnqFEEIIUX6STAuzuXr1KnPfeBN3d0+GPjCUHdt3kJSoZs6bqy0dWq2yOziYG1FRfPjRcrIyM8nKzARAZWODu7u7haMTQggh6hZJpoXZDBk2jC5duzJ96r9xcLAnS5PN008/TevWrS0dWq1y5vQZoqOj6d+7T6HjXbt1ZeOWLRaKSgghhKibFHr9PcsvCAG0admK4SNH8OHy5eU+NyoqitOnTtOtRzd8fX0rIbraY/KEidyMjWXfwQOWDkUIIYQQJpCRaWF2/v7++Pv7WzoMIYQQQohKJ6t5CCGEEEIIYSJJpoUQQgghhDCRJNNCCCGEEEKYSOZMC2Fhuvx8UlNTLR2GEEIIUWvY2dlha2tbJdeSZFoIC3JwsCcqMpIuHTpaOhQhhBCi1nBzd+P3U6dQKpWVfi1JpoWwoOemTqV5ixaWDkMIIYSoNY4dPcbff/2FVquVZFqI2q5b9+50697d0mEIIYQQtUZ29iL+/uuvKruevIAohBBCCCGEiSSZFkIIIYQQwkSSTAshhBBCCGEiSaaFEEIIIYQwkSTTQgghhBBCmEiSaSGEEEIIIUwkybQQQgghhBAmknWmhRA1ytYzCaw5EVtqmUbudnw2oXpvhvPpgRsMbOFKO18nS4ciapHa0D/ORmVw6noaKqWCPs1caFHfwdIhCVEqGZkWQtQosak5/BGeRlq2zmx1fn00ho6LT5Gi0ZqtztL8Hp7G4uDrXIjOrJLribqjMvoHVF0fWRx8nQf+c45Fu8J544dQ+i07w+rjpf9yIISlyci0EKJGem9sU3o3czFLXRnZOmJSc9DrzVJdsXK1+VyOy+JsZAYf/hJZeRcSAvP2D6iaPrLjnJpPD9xgSq8GLBjRhFxtPq9sucabO8II9HGkR5N6lXdxISpAkmkhRK11LDQVV3trmnvbs+OcmqvxWfi62hLUyQsX+4Iff6cj0rmaoAHgt5Bk2jZ0pGV9By7GZJKi0dKnmQsnr6dx6noaPZu4kJSVx5BW7igUd66Tq9Nz6EoyPi62tG3oWGws/9zMYuiKc5V+z0KUR3XqI18ejsbP1Zb3g5qhtFIASj6f2ILWb/3BN0djJJkW1ZYk00KIWuv1bddoUd+B2NRcLt/MwtlOSVxaLh/ti2LfKx3xdrbhnd3XORaaCsD0dSFM7deQxWOasvJIDKcj0hjb0YsPf4nE29mGjBwdy3+NYvcLHeja2NlwncNXUpi06hIfPRJQYqIQ6OPImbndADgemsrMjVcqvwGEKEN16SPqjDzORqXzdG+fW4l0ASdbJQOau/JbSDJ5Oj0qpaLIuUJYmiTTQoga6XhYKkmZecV+1ifAFTeHgh9vwX8l8mhXb3ZMb4edyoqdF9Q8u/Yy3x6PZc4Djflhejs+3hfFe3sjCHm7p+E8gIikHLacjue7Z1rTzteRrNx8lv8axc4L6kKJws4LamysrRjdwbPEeG2UCvzcbAHwclaZowmEKJGx/QOqRx8JTdCg10OAl32Rz5p52/PzpSTi0nPxc7U1tUmEqDSSTAshaqQPfi553vGume3pfl/Bn4QdbZV8OD4AO1XB+9aj2nvi5aziYkxWmdfI1ebz5aSWdG50Jyno5O/EzvNqFo1qAoA2X8/ei4k82MadenbyI1VUD8b2D6gefSQ5qyDxd3Uo+oum+61jiRl5kkyLakl+8gshaqRlDwfQwa/4ZeXuHt1q4W2PvarwwkXujiqycste7cBOZUUnf+dCxx7u4s3cHWGcjcqgk78TR6+lkpyl5dEu3ibchRCVw9j+AdWjj1jdmmCtL+YNR11+wTFrK5niIaonSaaFEDVSgJd9icnC3dwci450GftPsq21VaGXqACCOnqx8Kdwdl5QG0bgPJxUDG7lZmStQlQ+Y/sHVI8+4n4rhqSsokvvJd865uEk06NE9STrTAshRDl4OqkY2NKVnRfUaPP1BP+dSFBHLxk1E+IWU/pIi/r2qJQKLsYUXXv9Ykwmnk4qvJ1tKjNsIUwmybQQQpTTw529iUjM5qvDMSRl5skUDyHuUd4+Us/Omp5NXfj1nyQyc+5ML4lNzeVEWCrDWrsjv6+K6kqmeQghaqTvfr/JbyHJxX5mo7Ti9QcaGV3X7dU11v1xk9EdPGnkbldq+YfaeuBoq+S9vRE097ano79sCS6qF3P2D6iaPjJriD8Pr/yb576/zJsP3Ud2Xj5zd4Rip7JixgDfcsUrRFWSZFoIUSNtO5tQ4meOtspyJQuDWrrh4aTi7eDrxKXlsnhM01LL26usGNHOg81/xvOIjEqLasic/QOqpo/0bubC0vHNeOOHMPb9cxYAZzslKye3pEV9h3LFK0RVUuiLe3VW1HltWrZi+MgRfLh8uaVDEaJK6PL1JGbm4e6oMmr+80f7olj2SyRn5nWjQT2Zyylqv6rqI+qMPC7cyMBaqaCjv5MsOSnKbfGiRaz5djUXQy5ja1v5yynK/0OFEAJQWimMfsFJm69nw6k4HmzrIYm0qDOqqo94yuo4ooaRZFoIIcph+roQbqblciM5h9VTAi0djhDVjvQRUdfIah5CCFEOSVla9MDnE1vQpqGjpcMRotqRPiLqGhmZFkKIctj0XBtLhyBEtSZ9RNQ1MjIthBBCCCGEiSSZFkIIIYQQwkQyzUOIKvLWznA+PxRt6TCEqLaUVgrWPdO61JUcEjPy6PH+adKytVUYmRA1S0d/J355qaOlw6gzJJkWooqEqbOxU1nJ1tNCFCMpS8uuC2oikrJLLafOzCMtW0vXxs609pGX24S416GrKYSrS+9HwrwkmRaiCjnbKVn2cIClwxCi2vk7JpNdF9RGlx/T0Yup/RpWYkRC1EzPfXeZg1dSLB1GnSJzpoUQQgghhDCRJNNCCCGEEEKYSJJpIYQQQgghTCTJtBBCCCGEECaSZFoIIYQQQggTSTIthBBCCCGEiSSZFkIIIYQQwkSSTAtRRRQKUKCwdBhCVEuKe/63ouWEqKsK/q0RVUk2bRGiijzVqwGDW5a8TbIQdVlzb3tmDvJjSKB7qeWaeNrzwiA/Hmhdejkh6qonejSg+331LB1GnSLJtBBVZJAk0kKUyMbaigUj7iuznEqpYL4R5YSoq/o1d6Vfc1dLh1GnyDQPIYQQQgghTCTJtBBCCCGEECaSZFoIIYQQQggTSTIthBBCCCGEiSSZFkIIIYQQwkSSTAshhBBCCGEiSaaFEEbbvm0bX3z2WbGfLX3vPX795RfS0tJYMHcemqysSo2lqq5jCZ+sWMGCufMM/y1etIgtmzej1WoBSElJYcHceeTm5prtmuZoz9r8TMytuvSl2v7MpC+JqiDJtBDCaHa2dqz46GOSkpIKHQ+5HMLXK7/C1dUNnVZHaGgouvz8YusYPWIkBw8cqHAsmqws1q9bR05OToXrqm6Cd+4iMjICN3c33NzdSE9LZ9nSD3j6ySno9XoyMzNZv24dulsJgTmU9dyMUZufiblVl75U25+Z9CVRFWTTFiGE0e4fOgQHBwd+3ruXCRMnGo7v2R2Mn78/Xbt1RaFQsG7jhiLn5uTkoNFoyMzMMIwKGUuj0RAbG4urqyvu7nVj57uBgwbz1DNPG76/dPEio0eM5NLFi7i63dkAKDs7m/i4OPwbNUKhMG4T4ZSUFDLS0/H18zOc4+buVuxzi46Oxs3VDQdHh0LH6+IzMSdT+9LtfuTq6lruvlRXn1l17kt19ZnUNjIyLYQwmq2tLQ+NGM7uXcGFju8J3s3YoLEoFAribt6kZUAAKcnJALRr3Ybv1qyle+cudO3YiciISGZOn8F3a9aiVqsLlQV4bdYsln+4zPD9mm9X069Xb2ZMnUafHj15aeYL5FdgxKem8vTyAiAjI8NwbOWXXzKgT19GPDScsaNGk56eDsDMGTOY/eqrhnI6nY7e3Xuw86efWDB3HgP69GXiY4/To0tXjh45ClDkuR08cIAeXboyfNgDdGzXjs8+/a+hPnkmFVfevnR3P9qx/QfGjxlbrr4kz+wOY/tSSf1o186d6PX6CvcleSa1h4xMCyHKJWjceCZPmIBarcbT05OQyyGEhoYyJijIUEan1Rm+ztfp2LJ5Mxu3biEgIIAHhw7ljblzGTJ0KGq1ulBZgPz8fPS3/kHJysxiybvv8OOuXbRq1YqEhAQG9evPhfPn8fHxqZobthC1Wk1YWBgAN6KiWP/9Ojw9PWnfvj1Jt/6RjomO4dgfv6PT6Rj+wAP8+MMPTH7ySUaNHs2c2a+Rl5eHSqXi1MmTZGZm4unpyS8//8zvp05i7+DAlk2bWDh/HvsPHgTuPLeEhASenzad5R9/zIPDH+LE8eNMmfwEDw5/CJ8GPnX2mZhbefrSvf3oqWee5v6BA43qS3W5H4HpfamkfjRk6FDOnT1bob7Uf8CAEp9Jx06dLNJOwnQyMi2EKJeu3bri4+PDz3v3AgV/lu7YqRNNmjQp8Zxnnn2WwMBAVCpVua5lY2vD/gMHaNGiBTdjbxJyOYT8/HzUanWF7qEmWPX114wdNYqxo0bx6ksvk5GRwbdr12DvcOdPxNOen4G1tTW2trZ06tyZiIhIAAYNHoyVlRVHjxwBYM/uPQwfMQIvLy+Sk5PZsH49kRERPPLYY4Z//O8WvHMXbu5uPDj8IQB69e7NFytXYm9vX6efibmVty9JPzKNqX2ppH5kZ2eHs7NzhfqSi0u9Ov1MahsZmRZClItCoWBM0FiCd+5i0uTJ7AnezZNPTSn1nIDmAcZfQH/Xl3o9X325kuBdu/Dy9qZVq1bY29ubGHnNMueNNwrN8yxOg/oNDF/b2NiAXm/4evjIEfy8Zy8DBg7kl717+c9/PyWgeXOWffwRq1f9j6XvvY+vnx/TZ0znkcceK1RvdHQ0rVoFFjp2/9AhAOTl5dXZZ2Ju5e1L5epHYOhLdbkfgel9qaR+BFS4L+Xl5bH4rUV19pnUNpJMCyHKbey4cXzx2eccPXKUyMhIRowcWaH67n7r/cqVK4Y/Pe/Yvp1DBw/y8/59eHp6AtC7e48KXas2Ke0dqTFjg5j23HOMGjMGGxsbunXvTmREBG3btWPbjztIS0tj04aNLJg3n6EPPFDoXA8Pdw7ds0rEuu+/p3efPvx58qQ8EzOqir4k/ahsJfWl4voRUOG+FH3jhjyTWkSmeQghyq1Jkya0a9+eN+fMYeCgQYXeiC+LtbWKtLQ0AFxcXFCpVJw9cwaA8+fOEXL5sqFsWloaVkolbm4Fy4Rt3bKF+Ph48nLzzHtDtVDXbl1xdnbm3cVvEzR+HAqFggO/HWDac/9Gk5VFvXr16NipEzqdrsi5g+8fQkRkBKf//BOAfb/+yjuL3sbezl6eiZlVRV+SZ2a64voRUOG+lJebJ8+kFpFkWghhknHjxxETE8PYcUFlF75L3359eWPOHDasX49KpWLq9GnMmDqN/r378PbCtxg1erSh7JigIJRKK3p260bfXr04fepPho8cwfx580hNTTP3LdUqt6cQXAm5wtigcQA88uij+Pv707Nbdwb1H8AzU6Ywf+FCXF1dC53bomUL3l78Dk898SR9e/Xixedn8vY7i2ng00CeSSWo7L4kz8x0xfUjqHhfmjpjeinPJLWqb1NUkEKv1+vLLibqmjYtWzF85Ag+XL7c0qGIWig9PR0HBweUSiUA8fHxaLVaGjZsWKSsTqsjIjICX19fbG1t0el0JCcnG/40Kkq2ft06dv20k/WbNhY6npGRwc3YWBo29C2yfvTd8vLyiIqKws/Pr2Ae6S3yTKoPY/uSPDPTldSPoGJ9SZ5J5Vm8aBFrvl3NxZDL2NraVvr1ZM60EKLKOTs7F/re29u7xLJKayVNmza9871SKf/YlCEtLY0L5y/wv2++4bU5c4p87uTkREDz5mXWo1KpCrX9bfJMqg9j+5I8s/Irqx9BxfqSPJPaQ6Z5CCFELRN38ybvvP02/fr354EHH7R0OELUSNKPhLFkZFoIIWqZ5i1asPfXXywdhhA1mvQjYSwZmRZCCCGEEMJEkkwLIYQQQghhIpnmIUQt9cmKFagT7mxNq7JR0SowkKBx47C2rtquv3D+Apo0aVJkF7Iftm0HIGj8uOJOM8mNqChWf/st8xYsMFud5SVtb7m2Nzd5ltKPoGrbHqpH+wvjyci0ELVU8M5dREZG4Obuhpu7G+lp6Sxb+gFPPzmFql4Rc+OG9by7eDFnTp8udPz3Eyf4/cQJs14rMTGRzZs2mbXO8pK2rz3kWVpOXW17qB7tL4wnI9NCVLHt27YRd/Mm059/vshnS997j85dujB02DCzXGvgoMGFRlIuXbzI6BEjuXTxIm3atgVAo9EQGxuLq6sr7u7uhc7XaXXExccVu/7zbfFxcTg4OuLk5FRqLG3atmX+3Ln8tCsYpbXS5HvKzs4mKSnJEFNWZhYpqSnFxpiSkoI+X4+be9Fd5cqKOycnB41GU2QTBmNJ25fc9mXFbkzb16R+BGU/z7r8LEtTG9seas7PMWEcGZkWoorZ2dqx4qOPSUpKKnQ85HIIX6/8CldX47cTLi9PLy+gYKMBgDXfrqZfr97MmDqNPj168tLMF8jPzwdg965gOnfowENDhzF00GAWzpvPizNnGuq6cP4CgwcM5IEhQ+nasRNzZr+GVqst8dozX3yBjPQM/rdqVZHP1Go1LQMCSElONhx7bdYsln+4DIDo6Ghat2jJJytWMLj/AAb06cu8N99k2dIP6Ne7N/179+H/XnvdcK4+X8+ihQsZ0KcvPbp2Zfq/p6LJyjIq7nat2/DdmrV079yFHdt/KHcbl6S6tj2U3v7mbPuyYi9P29eUfgSlP095luVTU9seasfPMVE8SaaFqGL3Dx2Cg4MDP+/dW+j4nt3B+Pn707VbV7NdS61WExYWRlhYGIcPHWLB3Hl4enrSvn17sjKzWPLuO3y/cQN7f/2Fw8ePsX/fPi6cP09CQgKvz57N4iXvcu7vv/jk88/Y8cMPhn+kcnJymPbcc0ycNIkzF85z4uRJzp09y/at20qMxcHBgUXvLOaT//yH6OjoIp/rtLpC3+fn56O/6x/F3NxcoqKiOHz8GN+uXcvG9Ru4HnGdk2dOs2HzJrZu2UJUZCRQMFJla2vL6fPnOHHqJOHh4Xzz9TdGxZ2v07Fl82Y2bt3CpCcm14m2L6v9zdH2xsRenravCf0IKPV5yrOsW21vrvavyp9jwjiSTAtRxWxtbXloxHB27woudHxP8G7GBo1FoVCY7Vqrvv6asaNGMXbUKF596WUyMjL4du0a7B0csLG1Yf+BA7Ro0YKbsTcJuRxCfn4+arWa48eO4ejoyOgxY1AoFAQGBtJvQH9DvUcPHwGFgomTJpGt0WBnZ8vwkSPYHbyr1HgGDhrEoMGDWLRwoUn3M23GDKytrenVqxcAT06ZglKppFv37ri4uBAVFWUo+8yzz2JtbY2Hhwdjxo7hwG/7jY77mWefJTAwEJVKZVKcIG1/b9sbG7uxbV8T+hFQ6vOUZ1m22tb2ULN+jgnjyJxpISwgaNx4Jk+YgFqtxtPTk5DLIYSGhjImKMis15nzxhtF3j6/Ta/X89WXKwnetQsvb29atWqFvb09AMlJyfjcM3evWbNmhIaGAnDjxg2SEhMZNuT+QmUaN76vzJjmL1zIA/cP4ddfytgMoZj3i3wa+BR8cStPuv0nXwAbGxvD146OjnjXr3/nPJ+GJCUlGx13QPOAMu+jLDW67aFI+1e07Y2NvTxtX937EZT+POVZlq22tT3UrJ9jwjiSTAthAV27dcXHx4ef9+5l0uTJ7NkdTMdOnWjSpEmVxbBj+3YOHTzIz/v34enpCUDv7j0A8PXz5eqVK+Tl5RlGNW7PUQRw93Cnfv36HDp21HAsOSmZtLS0Mq/r5eXFa/83h0ULF9KxYyccHR0Nn+nu+nPolStX8PHxKXSusYONOTk5aLVaw/JZFy9exNfXt0Jxm1N1bHsovf0r2vYVjb041b0fQenPU55lxdTEtofa83NM3CHTPISwAIVCwZigsQTvLPiz3J7g3QSNM+9oWlnS0tKwUipxc3NDp9WxdcsW4uPjycvNo1///tjZ2bHrp51AwYszt78G6N2nDykpKezdvQcoWMbp3//6F1s2bzbq2o9PmICvr59hZMfFxQWVSsXZM2cAOH/uHCGXL5t8b1qtlm++/hqA1NRU9u/bx8jRoyoct7lUp7YH87Z/SW1vjtjvVd37EVDq85RnWTG1ue2h+v8cE3dIMi2EhYwdN44/T53i6JGjREZGMmLkyCq9/pigIJRKK3p260bfXr04fepPho8cwfx588jJyeGLr1by/pIlDOzbj6BRo7mvSROsrAp+ZHh4ePDxJ58wb+5cBvTpS58ePfHw8ODlV18x6toKhYJ3lrxrmNeqUqmYOn0aM6ZOo3/vPry98C1GjR5t8r15enpy5vRpBvTpy4A+fenZqyePPf54heM2l+rU9mDe9i+p7c0Re3Gqcz9KTU3Fzs6uxOcpz7JianPbQ/X/OSbuUOireuVzUSO0admK4SNH8OHy5ZYOpVYbPzaIhPh42rRtyxdfrazy6+u0OiIiI/D19cXW1hadTkdycjLOzs7Ex8Xh5+9PVGQkPg0b8urLL1O/fv1CO3LpdDoiIiJwdnbG6655f6aKj49Hq9WWurZyeetzcnTCwdGh0HFzx22K6tb2YN72L6ntwfyxV9d+5OnpSU5OTpnPU56l6Wp729+ur7r+HKuuFi9axJpvV3Mx5DK2traVfiXekdwAACAASURBVD0ZmRbCgsaNH0dMTAxjq/hP07cprZU0bdrU8MNGqVTi6elJXl4eDw4dxk87fsTZuR6HDh7k2JGjRUb9lMqC8831g9zb29ts/wDdrq+4BMDccZuiurU9mLf9S2p7MH/s1bUfAUY9T3mWpqvtbX+7vur6c0wUkJFpUSwZmRYHfvuNFR99zM3YWHz9fJkxcyZDhg61dFh1grR97SLP03Kk7eumqh6ZlmRaFEuSaSGEEELURDLNQwghhBBCiBpC1pkWohIsW/oBwcHBZRc0Uk5ODvm6fOwd7MsuLCpdfn4+mRkZONerZ+lQajWdVkdCQgLuHu6FNrOoiLTUVJzq1cPKjDskCtNlZmSislGZ7fmKknXr1o0Pli+zdBi1kiTTQlSCU6dOoVar6dy5k1nquxEVRZZGQ6NG/mapT1RMeno6CQnxtGnbxtKh1GqxsbHk5eWiUGC2/++fOHGDZs2aYu9Q/At1omr9c+kSTo4ONLhnYxNhXhcvXuL3EycsHUatJcm0EJXEz8+PNd9/b5a6vvjsM65du8byjz82S32iYs6cPs2LM2ea7fmK4n23Zg2LFr7F4MFDePvdxWaps32bNixZupSA5s3NUp+omH8/+ywDBg5k0hNPWDqUWu2ZKU9x7epVS4dRa0kyLYQQQghRh7344oucPXu2zHIjR45Eo9Gwf/9+du3ahYuLS4ll33zzTY4cOVLkeIMGDejZsyfPP/88dnZ2FYq7upAXEIUQQgghhEF0dDRHjx4lKSmpyGchISEcPXoUrVZbah3//PMPR48excnJCVdXV1xdXbGxseHEiRPMnj2bvv/P3n2HNXW2YQC/IYS9lwJOEBT3wjpb66p7VFv3XrVqrbWt1j1arat11FX3wL36WUfrpmprRXELDjaypyxDQr4/rFTLCuEkh4T7d11eV0lenvNw0sDN4X3f07o1cnJyNPUlaBWvTBMRERGVY2vWrHnr49WrV+Pzzz/HsmXL0K1bt7eeGzhwYIlqHz58GBYWFnkf5+bmYvLkyVi/fj0OHjyIwYMHq994GcEwTSSyTRs2os27bVC7jnYWs929cxe3bt6EVGqE5i1awKNGjRJ9fnJSMoKDnxU5poanJ2xsbPDL8ePY5+tb5NhJn32GxMRElca1btNG5Zqt27TBzu07cPrU27uqSCRGqOHpifoN6qNnr16QSqVF1tKk0r4W6tRSZZyQtbRt7cVItPWyRT03S60cLyAiHTdC0yCVGKCVhw28Kqi/sFHVWqqME7IWANwMe4Gb4S9gYAA0qGSJZtXE28mmtOc8KSMHT+OzihzjVcEctmZGOHwrHjv/jC5y7LSOVdDWy1blsQnpOSrX1EeGhoYYOHAg1q9fj+DgYLHbEQTDNJGIbvx9A8uXLoW9vZ1WwvTypUuxacNGGBkZITc3F0qlEvMXLcTgIUNUrnHt2lVMmTS5yDGbt23F++3aISY6Bv43/FGzVk1YWVkVOl7VcSUdGxkRAf8b/vBp1gxWVq/CVVZWNk6d/BW+u3djz65dWLtuHSpV1v4uKUK8FiWtpco4IWtp218haVh0MhT2Fp5aCdOLToZi7cVISCUGUOQqoQSwtI8HRrQs+c4UqtZSZZyQtV7KczFoy0P88TQFxhIDKJSAIleJdrXssGO4N0yl2p0tKsQ593uSinF7Aosc4zu6Njp62yM69SWuh6TB28UC1qaSIj9H1bElqamvbt++DQBo0qSJyJ0Ig2GaSMtkMhmePH6Mu3fvYs2Pq7R23JO//opNGzZi0ODB+PqbGZDJZJg5fQYWzp+PmjVroalPU5Xq+Pj4YPO2rQU+t/rHVYiLi0PdevXeenzeggVo9s47hdZ8cP+BSuNKUvNNC79dBE8vr7ce2+vri28XLMT4sWNx4tQpGBpqLxQI9VqUpJYq44SspS0yeS4CYzMREJ6O5b+Ha+24x28nYO3FSAxvURFzu1WHTJ6LqYeeYubxYHi7WOCd6qpfuVW1lirjhKwFAF8efoprwalYN9ALPRs4QqkENvpFYfHpMCw+HYaFPasLf3JLeZ6K09zdGr6jaxf43LLfwhGbJkODSm//MraktztaehS+2K4kY+9FpZe4pi7bv39/3kLDrKws3L9/Hz///DMGDRqELl26iNydMLgAkUjLHgcFoVf3Hpgzcxbi4+O1dtxtW7bC1dUV8xYugKWlJezt7bFy1Y+QGkmxa+cOAMCzZ89w8cIFRIS/HUoiIyNx8cIFhIaEwrlCBbzfrl2+fxkZGXj06CE2/LwJTk5OWvu61DVo8GCMHD0KQYFBOHb0qFaPLdRroWotVccJWUtbHsVkosOPt/HVkaeIeyHT2nE3+kWhkq0Jvu/jAStTCRwspVg/yAtGEgNsufIcAPAkLgtnHyUhLDH7rc+NSMrG2UdJCE7IUrmWquOErJX+UoGjAfHo19gJHzVxhomRIUylhvi8fWU0qGSJU/cTNXqO/0uoc17R2hgdve3z/Ut/qcCD5xnYMcIbzla8iYxQxowZgyFDhmDIkCEYO3YsVq9eDZlMBhcXF2RnZxdfQAcwTBNpWc1atXD56hVcvnoFy1eu1MoxExMTcffOHbTr0AESyb9/VrSwsEDL1q3gd+ky5HI5pEZG+GzSZIwaPgIvX74EAOTk5GDsqNH46otpMDMreBujyIgIzJrxDcaOG48GDRpo5WsSwsjRowEAv//2m9aOKeRroWotVcbFxsQIVqu4Vf5C8naxwK1ZPrg1ywc/DfAq/hMEkJCeg4CIF+hUxx4Sw3/vpGhpIsF7nra4EJSMHIUSUokBxu4OwoAtD/BSngsAkCmUGLTtISbtewwzqUTlWqqMi06VCVYrR6FEVPJLKJVAc/f8V08dLKVISNfeTgxCnvOChCdlY9qhp5jY1g2NqxQ9fYxKJiYmBunp6UhPT0dKSgoePHiAKVOmYOXKlRj9z/dgXcdpHkRaJpVK4ebmBgBwdHLUyjFDgkOgVCrh7u6e7zl3d3dcOHcecXFxqFK1KmbOnoU5M2fhx5UrMWPmTKxdvQZPHj/Gmp9+QoWKFQusv+S7xXBwdMSkzwqeS339r+sFbrHk4eHx1vQLVceVdGxhHB0dYWNjg9DgEJXGC0HI18L/hr9KtZ5HPS923PXr1wWrFRcXB1dXVzXPUMkYSwxQyc4EAOBkpZ3FpM/is6BUAjWczPI95+Fsht8eJiH2hQzVHEyxoEd1fHXkKZacCcP87tWx8mw4gmIysXloLbjYGON6SJpKtV4H26LGXQtOFaxW7AsZalY0x/NlrfKNSUjPgX/oC9Rzs8j3nKYIec4LMu9ECBwtpZjWsUqBz18LTkVSRv5fHjydzVGzorlaY0tSU5dZWlq+tZuHjY0NVq5ciZs3b+LgwYPYunUrzMzyv666hGGaqBxISUkGANjY5r/CZGtnBwBISkyEq6srBg4ahHO/n8X2rdtQpWpVbNq4Ab369EbX7t3yfS4A3Pj7b/x25gxWrvqx0A34Vxdy58aJkydh6rRpJR5X0rFFca5QAVFRkSqPLy0hXwtVa6kyLvjZM8Fqve5fXyVnvgpAtub5w7v9P48lpuegkq0JhreoiDMPErHJ7zmqO5hh7YVI9GvijF4NHEtUS5VxT+MyBav1uv//+iskDZP2PUamTIHZXavle15ThDzn//VncCpO3kvE+kE1C11Quey3gufjf9GhMmZ0rqrW2JLU1EeVKlWCQqFAamoqwzQRlX2Ghq/+tKnMVeZ7LlehAABIjP79drBk2VJ07fQB5s6aDVdXV8xfuLDQ2kuXfI+KLhXRrXv3Qsd8u3gx6tarm+9xZ2dntcaVdGxREhMStDrHW8jXQtVaqowzNjYWrNab/esjQ4NX0wyUyvznQPHPeTF6YyrCqo898e6KW/jqyNN/5vz+e1Vf1VqqjDOWGApW683+gVdXo5ecDoPv3zGoaG2CQ+PrlmiRZWkJec7/a+HJULjamBQatgFgRb8a+RYlAkAF6/xXulUdW5Ka+iY+Ph5nz55F5cqVUbGQv3jqEv3+jkdEAAA7u1f7lSb/c1XxTcnJKQAAB3v7vMecnZ3hVbMm/r5+HQ0bNyp0C7r79+7hdkAAvpk1E0ZFBCh3D/d8O3yUZlxJxxbmxYsXSEpK0toe34Cwr4WqtbKzsood5+7hIVitN/vXR/YWr66EJmXmnxue/M9jDpb/XkGtYG0MbxcLXHuWiiZVrWBt+u97RdVaWTm5xY7zdDYTrNab/Z+8l4ipB59AplBiWscqmPR+JZhpeUs8Ic/5m+5EpuNm2AvM71EdUolBgWOAV9NLCgq+pRlbkppl0cKFC2Funn86Sps2bdC1a9e8j1euXAkTk1d/5cjNzUVUVBQOHTqE+Ph4HDt2TGv9ahLDNFE5UMPTE0ZGRgh8+Cjfc4GPHsHBwQGOb1yd3evri7+vX4dHjRo49etJ9OjZEx07dcr3ub57fGFgYIAP+/bTaP+acnD/fgBAz969tHZMIV8LVWuZmZsXO65Fy5aC1XLUgd1cSsOrghmkEgM8eJ6R77kHzzPgaCl9azeInX/G4NqzVHhVMMcvdxLwYaNEdKnrUKJa5saGxY5r7WkrWK3X/Z+6n4jRux7hPS87rPrYs9A5x5om5Dl/045r0TAwAAY0LdlftCj/XRNfk8vlb4XpefPmvfW8m5sbmjZtijlz5qB58+Ya7VFbuJsHUTlgZWWFZu+8g4sXLiAzIzPv8diYGPz993W0a98+b5/liPBwLPluMXya+eDwsaNwdXXFrBnfIDHx7W2w5HI5Tv56At61a8PO3k6rX48Q7ty5gw3rN8DBwaHIKSpCE/K1ULWWKuNsbGwEq6XNPbvFYG1qhObuNjj7KAkZLxV5j0enyvBncCo61bbH6xkHYYnZmHciBM2rW+PU5PqoZGuCLw4/zdsJQ9VaqoyzNROulqHBq10wvj7yDK1q2GLv6NqiBWlA2HP+Wo5CieN3ElDX1TLvyje9MmXKFCiVyny3EgeAffv2QalUFvpv+fLlAIBjx44V+HxkZCROnjypN0EaYJgmKjcmfTYZqWmp+GzSJDx6+BABt25hwvjxMDUxxZhxYwG8+hPcV9OmQSGX49slS2BlZYXFS79HUlISZn8z8616Dx48QGZGJlq2ainGl1MiB/cfwKYNG7Fpw0asXb0GEz+ZgEEf94eRRIJdvr55f4LUFiFfC1VqqTpOyFr6blqHykjNlGPsnkDcf54B/7AXGLHjIUylhvj0vVe79eQqgUn7H0Oeq8TKjzxhbWqEHz72RGJ6DqYdflqiWqqOE7LWxaBkxL2QwdlSivWXo7D2YmS+fwVMYdYYIc858OrmKRkvFWjjqf83TiHN4jQPonKi2TvvYOGib7Fg3jxcungRwKsti1atXQOPGjUAvLoZh/8Nf3z+xRfw+GcObes2bfBR//44dOAAjh45gg/79gUA3LxxAwDQslX+rbPKmu3btuX9t6GhIZycndGlW1dM/mwKqlbT/qp5IV8LVWqpekwha+m7lh42WNrXA98cC8a5RwEAACtTCTYNqQmvCq/mkW68HIXrIWmY/kHVvPnMbb1sMbhZBfj+HYsD/nHo39RZpVqqHlPIWq93BzkSEI8jAQXfYOrT99wgMSh8rrGQhDznAHA9JA0A8G4NW630T/rLQFnQ0lgq9+rUrIWu3btp7aYi+qZ/v4+QlpaG078LczOQDevW4enTp1hZyHZwJZGYmIgH9+9DIjFC/Qb1C11cSIW7dfMmPps0CVf+/LNUdYR8LVStpco4IWuVxu6dO7Fg3nwMGjwEC79bJEjN+nXq4Ojx46jh6SlIvYT0HNyNTIeRxAANK1sWutBNyFqqjBOyliaNGz0a77Vti8FDh6r8OWL3rItGDR+Bp0+ewO/aVbFb0YpFCxZg5/YdeBAUqJW/PPL/QCINCQ0JwfvvvlfkGJlMBoVCUewemy/S0iDLkRVbj7Tj5cuXSExM0KnXQ66QIykhEfb2DjCS6sa3/vT0dADA/345jj/+8CtybFpaGqysrGBQzFXSrKwsjBg2DFKpbm8/Fh8fD0tLS53fnzchPg63AwKwZfMWsVtRWWpqKqBUwsZWd65oJ8THw85O99a26Ard+I5KpGO6dO0KU9PifxuOCA9H9kslqlSpXOS4rMxMyHJyYGOj23P74mJjERcXV+ot7cSmUChgY2MDZ2fd2bUiKSkJ0VHPYWtnA3sd2bpOniPHk6dPUK1atWJD47WrV1GjhkehNw56zcTYGE7OTjq9SFIulyMiPByODg7Ffu8o66ytLGFiagYzs6Jft7Lk3t1kyOVynTr3VapURoOGjcRuQ28xTBNpwIhRIzFi1Mhix61ZtQrR0TFYsvR7LXQlvrmzZmOvry+279ql02FGF126eBFjRo7CZ59/XuA2h7quVg1PLF+5ElWq6v+d41JSUtC0YSN079EDX07/Wux2yp0BH32ElJRU7NyzR+xWqIzgTzMiIiIiIjUxTBMRERERqYlhmoiIiIhITQzTRCSqiPBwHNi3X+w2yiWlUokd27YjPr7gPYRJtxw6cABhoWFit1EucZfh8o1hmohEEx4WhkH9ByAqKkrsVsodpVKJBfPmY8e2bVwMqgfWrFqNFcuWw9BQOzdQoX+FhISgdYuWCAoMErsVEgl38yAiUURFRWHY4CHo3LUrvvhymtjtlCtKpRKLFizAhXPnsPfAfjg4OIjdEpXCpg0b4bt7N3bv3YvKVaqI3U65EhYahiEDB6F7jx6oWaum2O2QSHg5goi0LioqCoP7D0DHDz7ArDmzxW6nXHkdpM/9fhZ7D+xHpcq6s1cu5bdpw0Zs27IFu/fuhVdNL7HbKVeioqIwfMgQdOveHd/Mmil2OyQiXpnWE8eOHMXNm/6C1ZPLc3A7IACzZ/IbhCbdv3cf3rVri92G1g0dOIhBWiSHDhxAUGAQg7QeCAgIwNMnTxikRSCXyzF4wEB0/OADzJw9S+x2SGQM03pir68vHBwc4FHDQ5B6BgYGkEqlOn/HvbKuVetWaPPuu2K3oTXpGRkAgA6dOhUapFOSk+Hv748OHTvmey44OBiPA4PgXbs2qlbT/5tzCOn1Aqk7d+7g6PHjBQbpgs59XFwcEhMT3xrn5uYGa2trzTZMxbp7+zaO/PJLoUG6sPcS30elI5PJEBkRiaHDhhb4fYzvo/KHYVqP9OjVE926dxek1o5t21Gnbl18NX26IPWIoqKicOHsWQAo8krO1i1bceUPv3wBYO3qNdi2ZQuaNG2KJ48fo6Z3LWzYtAkSiUSjfesDpVKJfXv3AgCmTptW6BXpgs79jyt/wC/HjsFI+u+Pi2UrVqBzly6abZoKtWPbdgBAj569irwiXdDryfdR6URHRyMoMAgWlhaYWcgFAb6Pyh+GaSLSuNdzpN0qV0ZQYGCBY3z37MHxo8cQcOsW6tWv99Zzz54+xdrVq3Hg8CE0atwY2dnZ6NSuPfbv3YvBQ4dq40vQWUqlEgvnz8ftWwEAAEdHx3xjijr3YaGh+HnrFrRu00Yr/VLRXi82BAB7B/sCxxT2evJ9VDox0TEYPGAgrK2tYGNrBwODt3dO4fuo/OICRCLSqDcXGzZp0qTQcXXr1sXosWPQp++H+Z4LCAhAxYoV0ahxYwCAqakp3mvbFhcvXNRY3/rgdZA+f/Ycpn8zo9BxRZ37sLAwVHd3h0Kh0GSrpILXiw03bt5c5LjCXk++j9QXEx2DwQMHoHmL5qharVqBY/g+Kr8YpolIY0qya0eDhg3RuUsX1KpVK99zlpaWkMlkbz2WnJyM58+5P3Vh3gzSew/sh0MBV6RfK+zcZ2dnIz4uDl9P+xJ1atZCs8ZN8NOatbxBhQje3LWjuLUxhb2efB+pJyEhAcOHDkWzd5rj28WLCx3H91H5xTBNRBoRFxeHAf0+QqfOnUu9a0er1q1haGiI+XPn4c7t29i9cxf8/C7n+zMrvfLfIK3urh1xsbFwdXPDxwP64+ad21j901rs2LYNO7fvELZhKtLmTT9j25Yt2LOvdLt28H1UcgkJCRgycBAaN26M75YsVusGR3wf6T+GaSLSCAMDA3wy8VNBto2ysrKC74H9SEpKxOyZs/DwwQMMHzESLi6uAnSqX4QK0gBQpWpVXPrDD71694aFhQVatGyJIcOG4szpUwJ2TMVxcXXB3gP74elVuu3v+D4qmcTERAwZOAgNGjTAd98vUftOoXwf6T8uQCQijXBycsLgIUMEqZWSnIyU5GSs+emnvMc+GTsOjZs0FqS+PtmxbRsuXriIfYcOws3NrVS1AgMDkZqSgneaN897zNzcIt9UAdKs7j16CFKH7yPVJSYmYvCAgahfvz6WLFuqdpAG+D4qD3hlmojKvPj4eHzctx8eBz0GANy7ew83b/qj38cfi9xZ2dO1WzccPna01EEaAMLDwjBy2HAEBwcDeBXGDh88iI6dOpW6Nmkf30equ30rAM1btCh1kAb4PioPeGWatGLBvHkI+GdrLiq/nj9/rtbneXp5YcLEiejVvTu8a3sjPDwCCxctgrOzs8Ad6r4KFSsKVqtDx47o1bs3OnfoCHcPD8TFxqJdh/YYPXasYMcg7eH7SHXtO3ZA+44dBKnF95H+Y5gmrfj1xAko5ApUqcq7bVHRRo8dW+APmS++nIbRY8cgPCwcVatV5Z3DNOC/597Q0BBLli3FlKlTERcXB0/PGjAzNxexQyqJgt5LfB9pHt9H5Q/DNGlNi5YtsW7jBrHbIBFdOH8BF86fU/vPpjY2NvluhkCaV9GlIiq6CHfFm8TF95E4+D7SXwzTRKQ17dq3Q7v27cRug4iISDBcgEhEREREpCaGaSIiIiIiNTFMExERERGpiWGaiIiIiEhNDNNERERERGpimCYiIiIiUhO3xiMqgbt37uK3M6fFboOoxMLCwgAAx48dw+0A/bsbaW5urtgtEFE5xTBNVAInf/0Vf/hdRuMmTcRuhahEMjMyAAAZGRlITU0VuRvhDR0+DM4VKojdBhGVQwzTRCXUslUrzJ47V+w2iErk0sWL8Lvsh8FDhqBjp05it0NEpDc4Z5qIiIiISE0M00REREREamKYJiIiIiJSE8M0EREREZGaGKaJiIiIiNTEME1EREREpCaGaSIiIiIiNXGfaSqQXJ6Dq3/8geFDhghSL/3FC/j73xCsnlhCQ0OhVCrx5PFjwWq+07w5Pp00SZBax48ew7GjRwSpRfolKSkJALBm1Srs2bVL5G6oNHJy5GK3QERvYJimgikNkJGZhfDwCEHKKXKVyBSwnljSUtMAQLCvIz4uDlGRUYKF6dOnT+GvP/+Cq5ubIPVIf2RlZQEA4uPjkZ6eIXI3VFpVqlZFg0YNxW6DiMAwTYUwkhqh0wedsHzlSkHq+TRujGbN3sG6jRsEqSeWJd8thkIhF+wOiEMGDkJMdLQgtV6zt7fHRb/LgtYk3Xfp4kWMGTkKi777jndAJCISEOdMExERERGpiWGaiIiIiEhNDNNERERERGpimCYiIiIiUhPDNBERERGRmhimiYiIiIjUxDBNRERERKQm7jNdzmxcvx5/XrtW7DhnZyc8DgwU7I6FL168gP8N1e6AOH7CBLRs1UqQ44rlyePHuHD+QrHjnj9/jhdpadi0YaMgxw0LDUNWZqZK9Ro3aQyfZs0EOS4REVF5xTBdzvhd9kOVKlXQsFEjrR43NTUVlSpVRus2bYocd/DAfty7e0/nw/Qvx3/BqZMnUadunSLHSaVGsLC0wP379wQ5rqGhIaxtbIqtFxYahoBbtximiYiISolhuhxq3qIFen/YR6vHHDBooErjrv/1l4Y70Z42bdpgwbeLxG6jQLt27MS1q1fFboOIiEjncc40EREREZGaGKaJiIiIiNTEME1EREREpCaGaSIiIiIiNTFMExERERGpibt5UIlERkbit9OnixxTvbo72nVor6WO9BPPMxERkW5gmKYSCQkOxpLvFhc5pnPXLgx5pcTzTEREpBsYpqlE3CpVwphxY4scU7NmLS11o794nomIiHQDwzSViLu7O2bMnCl2G3qP55mIiEg3MExTiYSEhODIwUNFjvGs6YVevXtrqSP9xPNMRESkGximqUQiIyKwccOGIsd07tqFIa+UeJ6JiIh0A8M0lUh1d3d8M6vo6QfVq7trqRv9xfNMRESkGxim9URWZiays7M1fpxKlSph9NiiF8ZR6fE8ExER6QbetEVPREREIvDRI7HbICIiIipXGKb1iFKpFLsFIiIionKFYZqIiIiISE0M00REREREauICRH2i4iyP3Tt34vz5c0WOCQ8Lg52dHaysrQVoTHV3Am7Du3ZtrR5TU548eYL9e/cVOSY5KQkyWQ4qVKygpa5euXXzplaPR0REpK8YpvWEq5srvGp6FTtuzNixiIuLK3bck6AncHJ0RhOfpkK0p7JWrVqjzXvvavWYmuBV0wthYaG4evVKkeOePH6M7OyXqFe/npY6+9f77dpp/ZhERET6hmFaT1haWsLC0rLYce06tFep3pnTp+HzTjN8PKB/aVsrl3r26oWevXoVO27NqlWIjo7BkqXfa6ErIiIiEhrnTBMRERERqYlhmoiIiIhITQzTRERERERqYpgmIiIiIlITwzQRERERkZoYpomIiIiI1MQwTURERESkJu4zrSfi4+MRF1v8zVhUFRMdg5iYGMHq6Yu0tDTI5Tlit0FERERlBMO0njA1NYW5hblg9XJzFZDL5YLV0xdJSYlQyBVit0FERERlBMO0nrCysoKlCndAVJWrmxsqVaokWD19Ua1adSgU/CWDiIiIXuGcaSIiIiIiNTFMExERERGpiWGaiIiIiEhNDNNERERERGpimCYiIiIiUhPDNBERERGRmhimiYiIiIjUxH2my7g9u3YhMDCw2HER4eE4sG8//rx2TZDjPn36BMeOHsXdu3eKHTt46FB4e3sLclyxhIeF4drV4s9d/XbCewAAIABJREFUUOAjKBS52L93nyDHvX/vHlJT01Sq59PMBx41aghyXCIiIhIGw3QZd+jgIXh6ecLT06vIcSNHjxb0uEOHDVdp3NHDh+Ht7a3zYXrH9u04f/YcqlWvVuxYQ0MDnD51UrBjm5qaFFsvMjIS/v43sOKHHwQ7LhEREZUew7QO+KBzZ3Ts1EnsNgp00/+G2C0IQqlUoluP7vh6xgyxWynQhnXr8PTpU7HbICIiov/gnGkiIiIiIjUxTBMRERERqYlhmoiIiIhITQzTRERERERqYpgmIiIiIlITwzQRERERkZoYpomIiIiI1MQwTURERESkJoZpIiIiIiI1MUwTEREREamJYZqIiIiISE0M00REREREamKYJiIiIiJSE8M0EREREZGaGKaJiIiIiNTEME1EREREpCaGaSIiIiIiNTFMExERERGpiWGaiIiIiEhNDNNERERERGpimCYiIiIiUhPDNBERERGRmhimiYiIiIjUxDBNRERERKQmhmkiIiIiIjUxTBMRERERqYlhmoiIiIhITQzTRERERERqYpgu46RSKXJkOWK3USiZTAZjY2Ox2yg1iUQCuVwhdhuFUihyITGUiN0GERER/QfDdBlnYWGOjMwMsdso1IsX6bC0tBK7jVIzN7dAVmam2G0UKiMjHZZWlmK3QURERP/BMF3GOTo5IS42Tuw2ChUfFwdHJ0ex2yg1W1sbJCUlid1GoZKTkmFjYyN2G0RERPQfDNNlnLu7B4KfPRO7jQJlZWYiOjoa1d3dxW6l1KpVq47Q0BCx2yhUcHAwqlWvLnYbRERE9B8M02Vc7Tq1cef2bbHbKNC9e/fg5OwMR0fdvzLtVdMLwc+CkZWVJXYr+SgUCjx5/BheXl5it0JERET/wTBdxvk0a4aIyAhER0eL3Uo+165eRYsWLcRuQxCVKleGs7Mzbt28JXYr+dy/fx8SiQQ1a9USuxUiIiL6D4bpMs7S0hLNmzfHqV9/FbuVfE6fOo12HdqL3YZg2rz3Ls6d/V3sNvK5cO4cWrVuDUNDvl2JiIjKGv501gF9PuyLI4cPQ6lUit1Knjt37iA2JgbtO3QQuxXB9OrdB7+eOIGcnLKzFWFubi5+OXYcvXr3FrsVIiIiKgDDtA7o0q0rUlJSceniRbFbyfPzho34eMAAmJqait2KYJr6NIWDgyOOHz0qdit5zv7+O+QKOd5t+57YrRAREVEBGKZ1gImJCUaNHo3VP66CQiH+jUUe3L8Pv8uXMWbsGLFbEZSBgQEmfPopNqzfUCauTufm5mLd2p8wdtx4GBkZid0OERERFYBhWkcMHT4M6S9eYP/evaL2kZubi7mz52D02DFwrlBB1F40oXvPHrCwsMCWn38WuxUc3H8A6enpGDBooNitEBERUSEYpnWEiYkJFnz7LZZ9vxTPnj4VrY9NGzYgNSUFn3z6qWg9aJJEIsGi777FhvXrERQYJFofUVFRWL50KebOnwcTExPR+iAiIqKiMUzrkFatW2HosGGY9OlEpKWlaf34V/64gvXr1mPNup/0aq70fzVs1Ahjxo7FZxMnIj09XevHl8lkmDJpMrr36IG277+v9eMTERGR6himdczUaV+gcpXKGD9mjFZvMHLv7j1M/vRTfLv4O9SuU0drxxXLxMmTUblKFXwydhxkMpnWjpubm4tpU6cCAGbOma214xIREZF6GKZ1jMTICGt++glGRlIMHzIUKSkpGj/m9b/+wvAhQzBl6tRys0WbRCLB2vXrIJPJMG70GGRmZGr8mDk5Ofhy6hd4HPQYW7Zt5fQOIiIiHcAwrYNMTU2xdcd2OFdwxoe9euP+vXsaOY5SqcTO7TswZtRozJ43FyNGjdTIccoqMzMz7Ni1CwAwsH9/RISHa+xYCQkJGDV8BEJCgrH3wH7Y2tlp7FhEREQkHIZpHWVsbIy169ah/4ABGNh/ANasWoXs7GzB6oeFhmH0iJHYunkzdu7ehQ/79hWsti4xtzDH5m1b0dSnKXp174GjR44IfvOc82fPoWfXbnBycoLvvv1wcHAQtD4RERFpDsO0DjMwMMD4CZ9g/8EDuHzxEj5o3wF7fX1LNcf3+fPnWDBvHrp36YLKVarg1zOn0bhJEwG71j1SqRRz5s3Dih9/xKqVP2Dgxx/j7+vXS133/r17GDNyFL6ZPh1fTZ+OH1avgrmFuQAdExERkbbwThB6oE7dujh07ChOnzqFDT+tww/LV6Bb9+7o+EEnNGnaFGZmZkV+fmxMDK5cuYKTJ37Fn9eu4YPOnXHk+HF41fTS0legG9q1b4cWLZpj88+b8en4T1CtenX0/agfunTpovK0jPT0dJz7/SyOHjmC27cDMHDQYKz48QfY2tpquHsiIiLSBIZpPWFoaIhu3bujW/fuuHXzJn45dhyzZnyDuLg41KhRA9U93GFnZw9LSwvk5uYiLS0Nz6OeIyQ4GNHR0ahbrx46ffABFn//PSq6VBT7yymzzMzN8dnnUzB67BgcP3oURw4dxvw5c1HL2xsNGzWCh4cHnCs4w8rKGgCQnv4CCfHxCA4Oxt07d3H37h14eXqh94d9sHrtWtjZc260LlIqlfC/cQMymfh3ylTVw4cPAQCPHj6CubmFyN0Q6a60tDRkZmbi6pWrYrdSIjVr1YSjo6PYbeglA6XQE0CpTImMiMCjR48QGhKKlJRkHD92HDVr1kSdunXh6uaK6tWro269erC0tBS7VZ2VkJCAP69dw4P79xEcHIy42DhERUUiV5GLylWqwMHBAe4eHqhduzZatGzJX1b0QGRkJNq/1xbWNtawtLQSux2VyF7KEBsbA+cKFbhTDFEpJCYkIDc3F07OzmK3orKI8HB8MmECvpz+tditaMWiBQuwc/sOPAgK1Mr3O16Z1nOVKldGpcqV8z6+HXAbPXr2RJ++H4rYlX5xdHREj5490aNnz7zHVixbjhdpaVjw7SIROyNNqVSpEkaMGgX/Gzdw8MhhSCQSsVtSSVZmJszMOS+fqDTkcjmUSiWkUqnYrajk8KFD+GH5Coz9ZLzYregtLkAkIlLDtK++REZGBrZt2Sp2KypjkCYqPSMjI50J0nGxsVjy7XdY8O0i2NjYiN2O3mKYJiJSg7GxMb5fthRrVq3Ck8ePxW6HiCifb6bPQPsOHdCxUyexW9FrnOZBRKSmho0aYdCQIZjx9XSdmu5BRCUnk8kQcOsWYmNjkZmRCVs7W3h4eMDTq2zufHX40CE8evgQp8/+LnYreo9hmoioFKZ99SV6duuObVu2Yuz4cWK3o7K4uDhc+eOPcntDJiJVyeVyLF28BAcO7EdmRma+5ytVroy58+ahXYf2InRXsNfTO75fvozTO7SA0zyIiEpBV6d7RISHY97sOcjNzRW7FaIybdzoMThy+DA+nTgRv/x6An/e+Bt3HtzH5atXsGP3Lvg088En48bhl2PHxW41D6d3aBevTBMRlZKuTvfIysrC72d+Q+euXcRuhahMehz0GH6XL+PwsaNo2KjRW89ZWFjAzc0Nrdu0gZWVFbZu2YJefXqL1Om/OL1D+ximiYgEUBane7Rt3abQ516+fAkAmDplCi5fuoQly5Zqqy0inZGYmACJRALv2rWLHFe/fgOcOX1GS10VjtM7xMEwXc7IcnIQGRmJ+/fuid0K0tPT4VGjBpycnASpFx0djYjwcJiXge2/4uPjYWhgIHYbpEWvp3sMHTQYbd9vWyYWJb373nsqjTMxNdVwJ0S6qYanJwwMDLBtyxZMmDixwDEvXrzAXl9f1C4mcGsDp3eIg2G6nDEzNcHBAwdw9MgRsVtBclIyWrRsgQ0/bxKk3qwZ3yDg1i3Y2ol/i+6MjAw0adJE7DZIy15P9/hm+gwcOHxI9OkeC7/7VtTjE+k6JycnzJ47B4sWLMSJ//0Prdu8iwoVnGFqZoYXaWl49uwZLl64CAtzcyz+fomovR45fBiPHj3C6d9/08rxNqxbh8uXLmHj5s2wtbXN93xQYBDmzZmN/gMGok/fDzH9y69gYWmBufPna6U/bWKYLmd2+fqK3UKeOTNnwc7eXrB6nl5ecPdwx+y5cwWrSVRSZXG6BxGpb8iwYahZyxv79+3FL8eOITExEQAgkUhQ3d0dAwYMwKixY2Av4M+zkoqLjcXiRd9qdXpHaEgo/G/4Qy6XF/h8evoL+N/wz/sL2cOHD2FtbZ33/M7tO7D55004eeaMzk9JYZgmIhJQWZzuQUSl49PMBz7NfAAACrkCWdlZsLCwgEEZmc6nC9M7jp/431vnKyMjHTHRMVDqwY5C3BqPiEhgb+7uoVAoxG6HiAQkMZLA0tKyzATp17t3zJo7R+xWinTr5i3cvXMHAHA7IADPnj0DAPj5+eHpkyditlZqvDJNRKQBnO5BRJqkVCpx584dLF64CF9/MwNpqalIS00VrL6RVAoXFxfB6i2cPx/W1tbw3b8Py5cuw/W//gIAfDHlc4wcNarM/zJQFIZpPVPSBQEA9HpRgNB4fklVnO5BRJr06OFD9OvTB1ACs2fOEry+VCrFRT8/VHSpWOS47Vu3wsLCIt/jUVFRhX6O7/59WP/TT/hhxUr4B5SNjQNKg2Faz5R0QQCg34sChMbzSyWhqzdzIaKy78GDB3B2csbps7+L+rNk04aNgteMiY6BvYM9jI2NBa+tCQzTpNeLAsoCnt/yjdM9iEhocbGx+P67xWXi5iwX/S7D0dEx3+M3b97CiKFDS1wvKysL/fv1w5bt23TmL3pcgEh6vSigLOD5Ld9eT/dYs2oVnjx+LHY7RKQHvpk+Ax06diwTu3eYmZsX/M+s5DeDWrpkCbp07FTkFJGyiGGasHD+fCxfugwAsHzpMvxy7DiAV4sCDuzbX+J6aWlpyM7OFrRHIWVlZiI9PV1rxxP6/JLu4e4eRCSUQwcP4tHDh5g5Z7bYrQjuw7598dOG9bCyshK7lRLhNA89pc6CAECYRQFLlyyBna0dvpz+dYk/Vxs2//wzUlJSSrUgUMzzS7qJ0z2IqLTK0vQOTXg9rcNIqlvxVLe6JZVpYkGAquQ5cmzbuhXV3Kuj30cfidZHQVKSk+F32Q+1a9cuVR0xzy/pJu7uQUSlVZamd5SWo6MTAODggYPo2q0rKlWuLHJH6mOY1lNCLwh4TdUVti1btcLKZcuxe+cujB47Bu07dCjwSq62xMfH4/DBg9i9cxdkMlmpw7Qmzq9CrkBqWqqot6QlzeLuHkSkrtfTO06f/V3sVgTR5r13YW9vj2Xff4/4uDjuM01lz+sFAPkeV2NBwGslWWHboGFD/LRhPY4cOoSN69djxldfo3mLFnineXPUb1AfdevVU7sPVURGRiLoUSACAgJw7eoVPHjwAK1atca3ixcjICAAqSkppaov9Pk9fOgQVv/wI8zNzeHk7IzNW7cUWJ90H6d7EFFJlcXpHUtXLMfSFcsLfb5J06Z4GhqS9/GJUyffet7FxQV/3vgbSUlJsLfT7YtIDNOkkqVLluD0yVMlWmFramqKwUOHYvDQoQgPC8P58+dx098fe/fswfPnzyGVSlHRxQXx8fFwc3ODnZ0t7O0dYO9gDwsLCxgYGLy1PzMAZGRmQp6Tg6ysbKSmpiAlJQVpqamIfh4Nv8uXkZiYiCOHDiMrKwseNTxQt249jBg1Ci1btcq7khwQECDouSmt2JgYfP/dYvxy8le4ubnhm6+n48cffsTM2cJvwk/i43QPIiopfZre8SaJRAInJyex2yg1hmlSyYd9+6Jb9+4YOmiwWp9fpWpVjBw1CiNHjQIAJCcl4+nTpwgPD0N42Kt/d27fRnJyMlKSk5GWlgaFQgFZTg6yMjMBvArnJiYmAAAra2vY2NjAxsYGtna2cHZ2Rv+BA1ChYkW4u7ujhqcnpFKpMF+8hl26eAnvNG8ONzc3AMDHA/pj2tQvGKb1GKd7EJGq9G16hypu3LoldgslwjBN+RS0KEDoFbZ29nbwaeYDn2Y+gtTTJf89v5GRkXCrVCnveTc3N0RFRUKpVL51sxfSL5zuQUTFKYvTOyg/7jNN+by5KGDn9h1it6N3/nt+84VmAwNAKV5/pB28mQsRFUdfp3foG16Z1jMlXRAA6PeiAKFp4vweOLAff167lvd8dHQ0XFxceFW6HOB0DyIqTHmc3qGrGKapQPqyKKCsevP8vte2LX5YvgJxcXFwdnbG0cNH0K5De5E7JG2ZOu0L9OzaDWtWreLVp3IuNzcX165ehY+PD0xM1d95iXRfVlYWlnz7HVb8+COnd+gAhmkSnIGBAZTKsjtPQZmbW6au+rq5uWHK1Kno26s3HP7ZcWT3Xl+RuyJtMTU1xdIVy/HJ2HHYs2u32O2QiORyBTIy0mFmbgZjadF7+ZP+696jB9q1byd2G6QChmkqEVVW2BpJjaBQyLXQjXpkOTnF3nRG24YOH4Z+H3+ExMREVHpjMSKVD40aN8b1m/5it0Eiu3XzJj7u2w/zFy5E3379xG6HiFTEBYgkOGNjY+Tk5IjdRqFycmSQGpe9bfPMzMwYpImIiHQMwzQJTio1Ro6s7IZpmUxW5q5MExERkW5imCbBmZiYIDs7W+w2CvXy5cu8m78QERERlQbDNAnOxsYaKakpYrdRqJTkFNjY2ordBhEREekBhmkSnJ29PVKSy26YTk5O5v7ZREREJAiGaRKcra0dkpOSxG6jUMnJybC145VpIiIiKj2GaRKcg4M9EhMTxW6jUEmJibDjlWkiIiISAMM0Cc7VzQ0JCQl4+fKl2K3kk5KSgvT0dLhVchO7FSIiItIDDNMkOEdHR5iamiIqKkrsVvKJjIiArZ0dLC0txW6FiIiI9ADDNAnOwMAArq6uiIyIELuVfCIjIlG5Mm+MQkRERMJgmCaNqFqtKkJDQsVuI5/QsFBUqVJV7DaIiIhITzBMk0bUrOWNwMBHYreRT+DDR6jlXUvsNoiIiEhPMEyTRnh7eyPwURkM04GBqOXtLXYbREREpCcYpkkjatX2xuOgx1AoFGK3kufly5cICQlmmCYiIiLBMEyTRlSrVg1SqRRBgYFit5Ln/r17sLO1g4uLi9itEBERkZ5gmCaNMDQ0ROMmTXDj7xtit5Ln7+vX4fNOM7HbICIiIj3CME0a49PMBzdu/C12G3lu/H0DPj4M00RERCQcI7EbIP3l06wZtm3ZitzcXBgaivt7W05ODm76++OrGdNF7YOIiMQXGBiIkGfBYrdBGqLtrXkZpkljGjZqBCWUuHP7Nho1bixqL9f/+guWVlaoVYvb4hERlXdTJk7Cs2fPxG6DNMjExARGEolWjsUwTRojkUjwXtu2OH/uvOhh+vy5c+jQoQMMDAxE7YOIiMQny8lBnbp18fWMGWK3QhpSqVIlSIy0E3MZpkmj2rfvgNWrVuHLr78SrQelUomL5y9g/qKFovVARERli62tDVq1biV2G6QHuACRNKrt+20R/fw5Hj54IFoP/jf8kZ6ejpat+E2TiIiIhMUwTRplZm6OLl274uiRI6L1cPTIEfTs3QvGxsai9UBERET6iWGaNO7Dfn3xy/HjkMlkWj92VmYmTp88iT4f9tX6sYmIiEj/MUyTxvk0awYHB0f875dftH7sw4cOo1r16qhXv57Wj01ERET6j2GaNM7AwACjx47B5o2bkJubq7XjKhQKbN+2DWPGjdXaMYmIiKh8YZgmrejVuzdevHiBSxcuau2Yv50+A4Vcji5dumjtmERERFS+MEyTVhgbG2P8hAlY+v33UMjlGj+eXC7HDytWYNJnk7W2zyQRkdDkcjkOHTig1b/qlVcKhUIrP59I/zBMk9YMHjoECrlcKzt77Nm1GxIjI3zYlwsPiUg3yeVyTP50Inz3+ELJMK1RmRmZGDJwEDZv3ix2K6SDGKZJa4yMjPDl9K+xYtlyJCcla+w4cbGxWLt6NWbNmc2r0kSkk14H6cjISOzYtZPfyzQoKzMTY0ePBgAMHz5c5G5IFzFMk1Z17tIFPu80w7y5czR2jHlz5qJdh/Z49733NHYMIiJNyc3NzQvSu333wNbOTuyW9FZWZibGjBqN3NxcbNuxHWbm5mK3RDqIYZq0bsGiRfjr2p84duSo4LX3+vrizp07mD13ruC1iYi0Yc+u3QzSWpCrUDBIkyAYpknrHBwc8OOaNZg3dw7u3L4tWF3/G/5Y8t1i/Lh6FWxsbASrS0SkDQqFAgCQlJzEIK1hSqUSDx8+ZJAmQTBMkyhatW6FL6Z9iQnjxuPZs2elrvfo0SNMGD8Oc+fNxTvNmwvQIRGR9sjlcvy4YiUAYNy4cYUG6ZTkZJw7e/atx+Li4vDo0aO3/qWlpWm8Z12VlZmJ+Ph4ACgySBd0rgEgIjwcJ/73P1z54w9R7uxLZQ9XNJBoRowaiZSUZAz6uD92+u5BrVq11Kpz7+49jBw2DGPHj8dH/fsL3CURkWbJ5XJ8NnES4uLiAADmFhaFjt26ZSuu/OGHDh075j3248of8MuxYzCS/vsjfdmKFejMPfbzeT1HWqlUonbt2kVekS7oXG/asBEb1q1Dw0aNEBERDgDYf+gQnJycNN47lV28Mk2i+vyLLzBqzBj079tPrS3z9u3di8EDB2DylCkYP+ETDXRIRKQ5r4N0REQE5syfV+g43z178NGHfbFh3bp8z4WFhuLnrVtw98GDvH8M0vm9udjQ2dkZhhJJgeMKO9cx0TFYsWwZ9h06iB27d+H3c+dhbm5R4GtC5QuvTJPoxk/4BLXr1MZXX0zDmdOnMe3Lr1CzVs0iP+f+vXtYsWw5njx5gs1bt3JqBxHpnDeD9G7fPQgODi50bN26deHg4IDz587h6ZMnbz0XFhaG6u7uUCgUkBQSEMu7/+7a0bVz4b9sFHauHz54AHd3d3h7ewMAJEYStG7TGkGBQRrvn8o2hmkqE9q8+y5O/f4bNvy0Dv369EHjJo3RvkNH1KtfDy4urlBCiejnz3Hn9m2cP3ced+7cwZChQ7Bq7RrY2tqK3T4RUYn8N0gXt9iwQcOGaNCwIaIiI98KeNnZ2YiPi8PX077ETX9/WFtbY9iIEZg4eRIMDAw0/WXohJJuf1fYuW7XoT3adWif93FGRgYuX7qEjp06aax30g0M01Rm2NvbY9bcORg7fhzOnD6DC+fPYeOGDUhMSAAAODg6ombNmujStQtWrV0DR0dHkTsmIiq5kgbposTFxsLVzQ0fD+j/aqrHnTuY/OlEWFpaYsSokQJ2rbt27twJqdQIGzdvhqmpqSA1/S5fxpyZs+BVsybGfzJBkJqkuximqcxxrlABw0YMx7ARr+5EtXD+fJiYmGD6N9+I3BmROA7fisfOP6PzPW5hIkGtCuYY3coFle1fhYQJvkGoYG2M+T2qa6W3zw48gaWJBIt7u+tUbTHNnT0bUVFR2L3Xt9R/WatStSou/eGX93GLli0xZNhQnDl9imH6H+M/+QTjP/lEkCv1MpkMX0/7EteuXsVXM6bjo48/FqBD0nVcgEhEVMZFp77E9ZA0KHKVsDEzgo2ZEaxNjZCYnoMNflFovfwWboa9AADcjUpHYGym1nq7H5WOR9EZOldbTP0++kiQIA0AgYGBuP7XX289Zm5uwS3b3mBgYCBIkJbL5Rg57NVFnvOXLzFIUx5emSYi0hGzu1ZDS4+3b0j0d2ga+my4h1m/BOPMZw203tPZzxtybm4JNW7SRLBa4WFh+HzyZ/j1zGm4u7sjJTkZhw8eRJ++Hwp2DHrl1MmTiIyIwPIfViIzIwOZGa9+0ZMaG8Pe3l7k7khMDNNERDqsWTVr1HW1wL2odMhzlXmPyxRKHA+Ix+O4TFSyNUGfRk6wMXv1Lf9m2AskZeagQy17vJmDZQolLj9OhouNCeq6vtrrOCIpG6ceJCEuTQZXWxP0qO8AZyvjvM+5EfYCUkMDNKlqlfeYIleJP4PTcDcyHblKJVp62KBxlX+fB4D0lwr8ejcBoYnZMDAAmla1xvs17WDIXF4iHTp2RK/evdG5Q0e4e3ggLjYW7Tq0x+ixY8VuTe/cunkLUVFReLdlq7ceb+rTFPsPHRKpKyoLGKaJiHRchiwXUokhJP8k4/RsBfptvIeAiHQ4WEgRnfYSP5yLwLmpDeFsZYxzgUlYeTYCpyY3QNM3QrDf4xQM3voQP3xUA3VdLXA0IB6T9j2GlakEztbGCEvMxoqz4dg3ug4aVrYEAMw89gw2ZkY4NqEeACAxPQdj9wTiytNU2FtIkZ2Ti6xToZj+QVV80aEyAOBZfBa6rr2DHIUSNSuaIy1LjpVnI9Culh32jq7DQF2E0WPHvhWUDQ0NsWTZUkyZOhVxcXHw9KzBW2ML5L/nev7CBZi/cIGIHVFZxTnTREQ6KlcJbL8WjcexmXi/pm3eVea/Q9NQxcEUjxc1x+05Pjg0ri5i0mTYfu3VIsa+jZ0BACfuJrxV78TdBBgbGaJng1c75Xxz7Bl6N3JC4ILm+OPLxrg92wcOFlLMOxFSaE/Tjz2Df9gL7BtTB4EL3kHQwnfQ0dsey38PR3BCFgBg8ekwSAwNcOObpjg9uQGuft0ES/p44EJgMm6FvxD6NJULFV0qon6D+gzSRCLglWkiIh0xYW8QTKWvroHkKoGE9BxkvFSgmoMp5nf/d/cOK1MJlvetAbN/xrapYQs7cyM8eP5qYWINJzM0qmyJE3cSsOCfXT/kuUqceZCIznXsYW1qhORMOZIz5bA0keSFdHsLKdYN9EJUyssC+wtNzMaJuwn45F03tK/1ars3EyNDfNO5KsKTsvHweQbcHc3gU80KPeo7wsFSmve59dxeTSsJis1862o5EVFZxzBNRKQj6rpaooL1v/OVLU0kqONqga51HWBl+u+d7zydzfOCNAAYGAAVrI2RKVPkPdaviTNmHQ9GQEQ6GlW2xJWnqUjOlOPjJq+uWtuZG6FxFSvsuBaNv0PS0NbLFq1q2OA9T1s0qGRZYH/3o9JwhyGmAAAS+ElEQVShVALver69S0UdVwv4fdk47+NP3nVD+ksFzjxIRHB8NsKSsuH3JKV0J4eISCQM00REOmJiW7d8u3kUxNa8+G/tfRo6Yd7/QnDibkLeVWoHSyna1fr3BiL/m1gf+/6OxQH/WGy+8hzrL0fBylSCud2qY3iLivlqRqe92o7t9ULHwmz0i8K3J0OhUAK1KprD09kMPeo7YtX5iGL7LkxkZCRSkpPV/vyy4PXtxCMjI3H/3j2Ru9FvMpkM6enpZfo8u7t7wNyC03Z0AcM0lXnm5hYwMTERuw0iveJoKUXbmrY4cTcBM7tUxcn7ifiwkROM3lj9ZywxwPAWFTG8RUVkyhTwe5KKhb+GYPrRp2jvbYdKtm+/Lyv8s8tHQvrbexy/3iXEy9kcCqUS806EoFcDRyzvWyMveD+KzihVmO76wQeQGEpgaKi7S4EUild/Odi2eQt2bd8hbjOllJGRAalUCmNj4+IHi+BFejqSEhMwfMhQsVspUHZ2NgYOHoTZc+eK3QqpgGGayryp077gPrZEGtCvsTM+8Q3Cz37PkZSRkzfFAwAO3YzDlANPcPbzhqjjagFzYwk617FHbJoMXx15ivRsRb569StZwtAAOPMgCZ3rOOQ9fv5REobveATf0bXxMicXSiXwQR2Ht65g/xWSVqqvJUeWgxNnT6FqtaqlqiO2uNhYOFeoIHYbpTZy2HB07tIF/QcOELuVAoWGhMLU1BQVXfL/haUsWLFsOV6kle49QdrDME1lnkQiKX4QEZVYl7oOsDCRYMmZMHg6m+VtdwcA73nZQmJogGmHn2Jut2qoYm+KB9EZ2H4tGpXtTeHpbJavXjUHU/RvWgH7bsSimoMputd3RERSNmYcewZPZzO8X9MOIQmv9pXe/VcMvCuaw9bcCCfuJuZdlX6e8hKZMgXMjcvn+14fgrQuqFa9mtgtkB5hmCYiKqfMpIboVs8BB/3j8NEbV6UBwNnKGLtGeuOzA0/Qe8O/80rruVliz0hvSArZDHpZXw8YGxng+zNhWHw6DABQ380Sm4fWgpGhATydzTCzSzUsPROGtisDAAB1XS1wYmJ9TNr3GMt/D4eDhRSjWrlo6KsmIhKWgVKpVBY/jEgzNqxbh8uXLmHj5s2wtbXN93xQYBDmzZmN/gMG5t0ed/qXX8HC0gJz58/XcrdE+ueHcxFY8Xs4bs32QUXr/PNbFblKPI7NRGq2Ai7WxqhibwpVZl1lyhQIis2Ci41xgXUT03MQnJAFB0sp3B1fXeXOUSgRnfoSrrYmb83dVoW3pxfOnD2r89M89EVZn+ZR1r2e5rHg20Vit0Iq0N2VGqQXQkNC4X/DH3K5vMDn09NfwP+GP6Kjn+c99vDhQwQFBuV9vHP7DrRu0QKpqaka75dIn8hzldh3Ixad6zoUGHgBQGJoAG8XCzSvbo2qDqoFaQAwN5agUWXLQus6WErhU806L0gDgFRigCr2piUO0kRCSH+pgCKX1xep5DjNg3TO8RP/e2tBYkZGOmKiY6DMzRWxKyLdMsE3CDFpMkQmv8SO4d5it6MzAiLScSM0DVKJAVp52MCrQsm2LkvKyMHT+Kwix3hVMIetmREO34rHzj+jixw7rWMVtPWy1djYskqmUGL9pUi09LBBs2rWAEp2bl8LTczG4tOhCIhIR1hiNoyNDFHDyQwjW7pgaPOKvLU9qYRhmnTOrZu3IJUaoWGjRrgdEIBnz54BAPz8/FC7dm3U8PQUuUOisi8pUw4lgPWDvFDH1ULsdnTCopOhWHsxElKJARS5SigBLO3jgREtVZ/f7fckFeP2BBY5xnd0bXT0tkd06ktcD0mDt4sFrE2LXpCpqbFl1XenQrHhchTmdKuWF6ZLcm4B4MTdBEw58AQv5bnoUtcBg5tVgEyuxO8Pk/DVkac48yARvqPrMFBTsRimSecsnD8f1tbW8N2/D8uXLsP1v/4CAHwx5XOMHDUKs+bOEblDorLvwNg6YregU47fTsDai5EY3qIi5narDpk8F1MPPcXM48HwdrHAO9WtVarT3N0avqNrF/jcst/CEZsmy3eHySW93VW6WY8mx5YlF4OSsckvKt/jJTm3MWkyTN7/BLZmRtg50vutc/71B1Uw/0QI1l+Owia/KEx4z00zXwjpDYZpKhO2b90KC4v8V8eiovJ/w3yT7/59WP/TT/hhxUr4B9yCrZ1dkeOJiNSx0S8KlWxN8H0fj392MpFg/SAv1J5/HVuuPMc71a3xJC4LoYlZ8HI2R1UH07zPjUjKRmBsJjyczODuaIaK1vb56h+7HY8HzzPw66T6cLYqmzc6KQsS0nMwaf9jjG7lis1Xnr/1XEVrY5XP7fdnwpApU2DdQK98v7wAwMwuVXHwZhwO3YxjmKZiMUxTmbBpw0axW/h/e/ceHWV953H8PZPJZDLkTi5MCIEACReFglCPeIHYra1dpEVRrNQWaUu7gtJzpKy2y1G07akXtO32YMWyLS52uQgoRSgqugg0FtKAFgi3XEgCCZkkk3syZDKZ/WOSoXEmF2aBJPB5ncMfeX7f55knD+fAZ37n93x/IiIBVTa4OFxSz4JbbZ1aAkaEhTAjPYaPTlbjcnsIDTGwcN1JbNFm9iydTJjJSIvbw7w/5GKva2HP0psCXr/Y4WTpW3kszhzKTamRV+vXGnA8Hnh8wylGxofz+JdS/MJ0IF092/dzHaTGWZg5YXDA88wmIweemkqrXkiUXlCYln7hf/d+THx8vN/xnJxDPPLt/rndq4hcH/IrmvF4YHSC/0Y1oxLDeS/XQXl9CyMGW3h2VhrLtuTxy11FrLgnjZc/KObk+SZ+/+2x2KIDzzg/s72Q+IhQlt6VGnA8q6AWR6PL73h6opUxQ6xXpbY/WL3vHAcK69izdDIhvWwrE+jZ1jlbqWxwcde47r+4RA7Q9eRy9SlMS78QbrUSbvX/xzs83BKgWkTk6qlu8gbOGGuo31hc+7GqBhcpMWHMnzaEXceqWL23lLTB4fz2o7PcPyWRb3zBf7IA4JOCWnYcqeLVeWOwhAbuVvvie8UBjz/x5WE8dffwq1Lb146WNvLzHWd45YF0UuMsVNT7fwn4vK6ebbHjAgDJMVpOI5eHwrSIyABS3dTKd/6YC8DrD3c92xnIL3aeoaDSyX99Z+xlqbteGNtnQQPtcdbRl/ife2P/em4601ceYtmWvPZ11iO7vPZzO86QHB3WZdgGWHn/6IDrepMC9PC+UrV9qdnVxg/WneCrNwxm7tTEnk9o19WzDW8P1jVNgfc3ELlUCtMiIgPIlkN2DhTWAfD24QoWZfb+5ahT9maOljZetrrrRdwg7+yzI0D4qm4/Njji4qx1UpSZcbZBZOXXMmV4JFGWwP/Vfna2gZyielbMSiM0pOtlC6MTwgOG3qtZ25dW7TlLQWUz825O4k8HywGoa/Y+90PF9fzpYDmZGTEMjQnzndPds7VFmzEZDRQ5nN1+7m8+OsunJfWsfngs5m7+fkS0A6IMePHxCQBs2riJsyUlfXw3IlfW+mw7NyYPIinKzKYce1/fznUhIymc0BADxwJ8wThW2kh8RGinDhxvfHKerPxaMpKsbPuskr8crQp43bVZZRgM8M1LmG29HjW1tBFuDuHl3SUs31bA8m0FPL+rCIAPch0s31bAyfNNnc7p7tlazSFMHR7JpyUNnCpv8hv3fqabX+0uocRxQUFaeqSZaRnw7pgxnbi4OF58/nkq7Hb1mZZrVm5ZI0fONfCzb4ykqMrJmv2l5JY1Mt7m31ay3unmwxPVnDjfSFp8OPdOCryMoDd1x0obqWlu5bZR0Rw8U0f2mToWZ6b4xg8V13O4pIG65lamDI/kjtExftuOlzic7DzmwF7XQnJMGLMmDu4UQHsa70tRFhO3jIzmg+MOGi+4GRTmfTGtrLaFTwpqmTs10bexR1GVk2e2F3JLWhRvfm88mSsP88TmPL44Ior4f5q9drk9vPNZJTcmR/hmviWwp2eO4OmZIzodq6h3ccOzB3jy7uE8fmdKp7HePNvlM0cwa9U/WL6tgLWPjMNq7vyy4XM7ztDU4uaRW4dc1t9Frk0K09KnXlj5Ei+sfKnL8SlTp5J3prDTse07d3T62Waz8Un2QRwOB3Gx/j1GRa4VG7LtmIwG7puUQEFlM2v2l7Ipx86Ke9I61RVUNjNvTS4Flc3EWk3UOd2s+9t5rGZjUHWr95WSU1TH7EkJvPR+MYmRZhZnptDS2sayLfmszy4nymLCg4d6p5tZE+P53bwMzCbvdbYeruCx9aeItISQGGWmqMrJyg+KWf+9G5g0LKLH8f5g6ZeHcf/qoyx88wQ//doInK42/uOdfCyhRha19yFu88BjG07R2ubh5QfSibKYeGVuOnNfP8rSzXm88cjFbduPnGug8YKbO9IH3qYp/V1vnu3NI6KYP83G2qwy/vW3/+DBqYlMGBqB09XGugPn+cvRKu4cE8tDX0y6incuA5XCtFwTQkJCSEhI6OvbELliWts8bD5kJ3NMDAmRocRHhGKLNrP1UAVPz0zrtOXxsi35lNe38M6jE5g2Mpqa5lZ+tPE0u45VMSzOcsl1AEWOC7yVY2fdd8czYah3JnzVnnOszy7nhftGMX+aDQOw9dMKFv/PSd74WxQLb08G4Cdv5zN7cgKrvpmBwQCORhdff/UIz2wvZNuiCT2O9we3jormhTmj+MnbBew+fhjwtk5b/fAYMpK8nYhe+9jbuu3Jrw4nPdHbRi8zI4Zvta/13fh3Ow+2LzvoWPc+fXRMH/w217bePtsX7xvFF1IieHZ7Ic9svzhpE2s1sTgzhafuTu3UV1ykKwrTIiIDwO7j1VQ2uHhgijeMGQzw9YnxrN5Xyv68Gqane4NDYaWTfadr+PFdqb6tomOtJn7zYDrjVzh81+ttXYeW1jZe+9YY38YXLreH1/aeY/akeBbcavPVzZmcwJ8/q2RtVhkLb0+muqmV6qZWIsJCfEs/4gaFsuqhDM7VXOhx/FKUlZVivILhJ9MGOxckc8LeQogRxieZiTA3UFLcAMCskTBrSSrgoaT4Ytu5J24J44lbUgGn7/g9aXDPklSgnpLi+oCfN3sUzF6SCtRSUlzb7b1dqdpgOZ3NVFc7Oj2Hyy1nSSrQ5vcZvXm2HaYPgfe/n0xRtYuS2lYizQYm2CyEGsFeevaK3XtP6mprMfSyl7b0PYVpEZEBYH12OSajgSiLiax8bwCytXcv2JRj94XpvArvC1VThnfekCLWamLsECt1Tvcl1XWwhBqZPOxibUcQNmDwdVjo4PFAXkUzLW4PsVYTN6VGsjarjIOFdWRmxHDb6GhmpMf4Okn0NN5bDz8075Lq5crKPpjNyhe7XsYn3Xv8R0v6+haklxSmRUT6OUeji93HHbS2eXhozTG/8R1HqnhpThvhoUacrjYAzCb/Wa34iFBfSO5tXYcwk7HTS4Vltd5Z4315NXx61n/2b8RgC1UNLmzRZv68eCLrD5az8e/l/H5/Ka9+fI5ISwhPz0xj/rQhPY73xvHTp3pVJ1dHc1MTYRYLRqOahsm1T2FaRKSf23yoApfbw7Oz0hj7uW2ePzxRzev7Stl5tIo5kxN8vXbLalr8rlNed/FYb+u60rGxx2OZKT32ujaHGJg/bQjzpw2hqcXN3tO1PPduIU9uzeNfxsX6dg7sblwGlkA72opcq/SVUUSkn9uQXU5CZCg/uCOZO8fEdvqzODMFgwHeau85PTElgqQoM+8eqex0jWKHk/yKZt/Pva3rSmqchViriQ9PVvuNLVp/ijtf8b6k91aOneR//6uvR7PVHMLdN8Txw+lDafPAH/5a1u14w+dmyEVE+huFaRGRfuxYaSNHSxu5d1JCwM4CtmgzN4+I4uNTNdjrWzAZDSyaMZRdxxz8fOcZ8iuaycqvZf7a453O721dV0xGAz/+Sir7Ttfw03cKOHG+idP2Zla8W8jmHLvvRckZGTGEGA0s3ZxHVn4tZ6sv8F6ugz9mlTEszsLC25O7He/oiiEi0l9pmYeISD+2Idv7ct+cm7reJe/eSQkcKKxj6+EK/m36UB6dMZR6p5vX9p7jPz/ydiT42o2DuTF5EFkFdb7zelvXle/floyr1cMvdxWxZn8p4F1bvewrqTw63bv0IzHSzH8vGMeSjaeZ/bsjvnMnDI3gzQXjsEV3P67WZCLS3xk8Ho+nr29CREQuP3ebh9yyRhIjzb41zv+fuq643B5OljfR3OJmzBArURb/eRp3m4dT5U3UOt3Yosykxlk6vdDY07iISH+lMC0iIiIiEiStmRYRERERCZLCtIiIiIhIkBSmRURERESCpDAtIiIiIhIkhWkRERERkSApTIuIiIiIBElhWkREREQkSArTIiIiIiJBUpgWEREREQmSwrSIiIiISJAUpkVEREREgqQwLSIiIiISJIVpEREREZEgKUyLiIiIiARJYVpEREREJEgK0yIiIiIiQVKYFhEREREJ0v8BiYkuey6qORAAAAAASUVORK5CYII=;" parent="D-sqYa0wRiz-SFtbxjmq-74" vertex="1">
          <mxGeometry x="300" y="90" width="642.18" height="414.79" as="geometry" />
        </mxCell>
        <mxCell id="RWK8OXjm__JFOhkUaJIX-2" value="&lt;font style=&quot;font-size: 29px;&quot;&gt;&lt;b&gt;TLB&lt;/b&gt;&lt;/font&gt;" style="text;html=1;strokeColor=none;fillColor=none;align=center;verticalAlign=middle;whiteSpace=wrap;rounded=0;shadow=0;sketch=0;" parent="D-sqYa0wRiz-SFtbxjmq-74" vertex="1">
          <mxGeometry x="600" y="100" width="60" height="30" as="geometry" />
        </mxCell>
        <mxCell id="D-sqYa0wRiz-SFtbxjmq-30" value="TLB" style="rounded=0;whiteSpace=wrap;html=1;fillColor=#d80073;strokeColor=#A50040;fontColor=#ffffff;" parent="RWK8OXjm__JFOhkUaJIX-1" vertex="1">
          <mxGeometry x="490" y="19.910000000000082" width="220" height="30" as="geometry" />
        </mxCell>
        <mxCell id="D-sqYa0wRiz-SFtbxjmq-63" value="VIRTUAL ADDRESS" style="text;html=1;strokeColor=none;fillColor=none;align=center;verticalAlign=middle;whiteSpace=wrap;rounded=0;" parent="RWK8OXjm__JFOhkUaJIX-1" vertex="1">
          <mxGeometry x="146" y="19.909999999999968" width="60" height="30" as="geometry" />
        </mxCell>
        <mxCell id="D-sqYa0wRiz-SFtbxjmq-64" value="" style="endArrow=classic;html=1;rounded=0;exitX=1;exitY=0.5;exitDx=0;exitDy=0;entryX=0;entryY=0.5;entryDx=0;entryDy=0;" parent="RWK8OXjm__JFOhkUaJIX-1" source="D-sqYa0wRiz-SFtbxjmq-63" target="D-sqYa0wRiz-SFtbxjmq-30" edge="1">
          <mxGeometry width="50" height="50" relative="1" as="geometry">
            <mxPoint x="220" y="130" as="sourcePoint" />
            <mxPoint x="270" y="80" as="targetPoint" />
            <Array as="points">
              <mxPoint x="206" y="35" />
            </Array>
          </mxGeometry>
        </mxCell>
        <mxCell id="D-sqYa0wRiz-SFtbxjmq-65" value="" style="endArrow=classic;html=1;rounded=0;exitX=1;exitY=0.5;exitDx=0;exitDy=0;entryX=0;entryY=0.5;entryDx=0;entryDy=0;" parent="RWK8OXjm__JFOhkUaJIX-1" source="D-sqYa0wRiz-SFtbxjmq-30" target="D-sqYa0wRiz-SFtbxjmq-66" edge="1">
          <mxGeometry width="50" height="50" relative="1" as="geometry">
            <mxPoint x="800" y="110.09000000000003" as="sourcePoint" />
            <mxPoint x="880" y="35" as="targetPoint" />
            <Array as="points" />
          </mxGeometry>
        </mxCell>
        <mxCell id="D-sqYa0wRiz-SFtbxjmq-66" value="PHYSICAL ADDRESS" style="text;html=1;strokeColor=none;fillColor=none;align=center;verticalAlign=middle;whiteSpace=wrap;rounded=0;" parent="RWK8OXjm__JFOhkUaJIX-1" vertex="1">
          <mxGeometry x="880" y="19.909999999999968" width="60" height="30" as="geometry" />
        </mxCell>
        <mxCell id="RWK8OXjm__JFOhkUaJIX-4" value="" style="group" parent="1" vertex="1" connectable="0">
          <mxGeometry x="690" y="690" width="340" height="30" as="geometry" />
        </mxCell>
        <mxCell id="RWK8OXjm__JFOhkUaJIX-5" value="" style="rounded=0;whiteSpace=wrap;html=1;fillColor=#cdeb8b;strokeColor=#36393d;" parent="RWK8OXjm__JFOhkUaJIX-4" vertex="1">
          <mxGeometry width="340" height="30" as="geometry" />
        </mxCell>
        <mxCell id="RWK8OXjm__JFOhkUaJIX-6" value="" style="endArrow=none;html=1;rounded=0;entryX=0.5;entryY=0;entryDx=0;entryDy=0;exitX=0.5;exitY=1;exitDx=0;exitDy=0;" parent="RWK8OXjm__JFOhkUaJIX-4" source="RWK8OXjm__JFOhkUaJIX-5" target="RWK8OXjm__JFOhkUaJIX-5" edge="1">
          <mxGeometry width="50" height="50" relative="1" as="geometry">
            <mxPoint x="130.00000000000045" y="10" as="sourcePoint" />
            <mxPoint x="130" y="40" as="targetPoint" />
          </mxGeometry>
        </mxCell>
        <mxCell id="RWK8OXjm__JFOhkUaJIX-8" value="PAGE OFFSET" style="text;html=1;strokeColor=none;fillColor=none;align=center;verticalAlign=middle;whiteSpace=wrap;rounded=0;" parent="RWK8OXjm__JFOhkUaJIX-4" vertex="1">
          <mxGeometry x="240" width="60" height="30" as="geometry" />
        </mxCell>
        <mxCell id="RWK8OXjm__JFOhkUaJIX-14" value="" style="rounded=0;whiteSpace=wrap;html=1;shadow=0;sketch=0;fontSize=29;fillColor=#CCFFE6;" parent="RWK8OXjm__JFOhkUaJIX-4" vertex="1">
          <mxGeometry x="-5" width="175" height="30" as="geometry" />
        </mxCell>
        <mxCell id="RWK8OXjm__JFOhkUaJIX-10" value="&lt;font color=&quot;#FF0F4F&quot;&gt;PTN&lt;/font&gt;" style="text;html=1;strokeColor=none;fillColor=none;align=center;verticalAlign=middle;whiteSpace=wrap;rounded=0;" parent="RWK8OXjm__JFOhkUaJIX-4" vertex="1">
          <mxGeometry x="12.5" width="60" height="30" as="geometry" />
        </mxCell>
        <mxCell id="RWK8OXjm__JFOhkUaJIX-11" value="PT Offset" style="text;html=1;strokeColor=none;fillColor=none;align=center;verticalAlign=middle;whiteSpace=wrap;rounded=0;" parent="RWK8OXjm__JFOhkUaJIX-4" vertex="1">
          <mxGeometry x="77" width="60" height="30" as="geometry" />
        </mxCell>
        <mxCell id="RWK8OXjm__JFOhkUaJIX-12" value="" style="endArrow=none;html=1;rounded=0;entryX=0;entryY=1;entryDx=0;entryDy=0;exitX=0;exitY=0;exitDx=0;exitDy=0;" parent="RWK8OXjm__JFOhkUaJIX-4" source="RWK8OXjm__JFOhkUaJIX-11" target="RWK8OXjm__JFOhkUaJIX-11" edge="1">
          <mxGeometry width="50" height="50" relative="1" as="geometry">
            <mxPoint x="-240" y="200" as="sourcePoint" />
            <mxPoint x="-240" y="170" as="targetPoint" />
          </mxGeometry>
        </mxCell>
        <mxCell id="RWK8OXjm__JFOhkUaJIX-7" value="VPN" style="text;html=1;strokeColor=none;fillColor=none;align=center;verticalAlign=middle;whiteSpace=wrap;rounded=0;" parent="1" vertex="1">
          <mxGeometry x="760" y="660" width="60" height="30" as="geometry" />
        </mxCell>
        <mxCell id="RWK8OXjm__JFOhkUaJIX-15" style="edgeStyle=orthogonalEdgeStyle;rounded=0;orthogonalLoop=1;jettySize=auto;html=1;exitX=1;exitY=0.5;exitDx=0;exitDy=0;fontSize=29;" parent="1" source="D-sqYa0wRiz-SFtbxjmq-13" edge="1">
          <mxGeometry relative="1" as="geometry">
            <mxPoint x="980" y="625" as="targetPoint" />
          </mxGeometry>
        </mxCell>
        <mxCell id="RWK8OXjm__JFOhkUaJIX-23" style="edgeStyle=orthogonalEdgeStyle;rounded=0;orthogonalLoop=1;jettySize=auto;html=1;exitX=1;exitY=0.5;exitDx=0;exitDy=0;fontSize=16;fontColor=#FF0F4F;" parent="1" source="RWK8OXjm__JFOhkUaJIX-22" edge="1">
          <mxGeometry relative="1" as="geometry">
            <mxPoint x="850" y="600" as="targetPoint" />
            <Array as="points">
              <mxPoint x="1210" y="625" />
              <mxPoint x="1210" y="600" />
            </Array>
          </mxGeometry>
        </mxCell>
        <mxCell id="RWK8OXjm__JFOhkUaJIX-22" value="&lt;font style=&quot;font-size: 10px;&quot;&gt;PAGE TABLE ADDRESS&lt;br&gt;&lt;/font&gt;" style="text;html=1;strokeColor=none;fillColor=none;align=center;verticalAlign=middle;whiteSpace=wrap;rounded=0;shadow=0;sketch=0;fontSize=29;fontColor=#FF0F4F;strokeWidth=4;" parent="1" vertex="1">
          <mxGeometry x="980" y="610" width="120" height="30" as="geometry" />
        </mxCell>
        <mxCell id="RWK8OXjm__JFOhkUaJIX-24" style="edgeStyle=orthogonalEdgeStyle;rounded=0;orthogonalLoop=1;jettySize=auto;html=1;exitX=0.5;exitY=1;exitDx=0;exitDy=0;fontSize=16;fontColor=#FF0F4F;" parent="1" source="RWK8OXjm__JFOhkUaJIX-22" target="RWK8OXjm__JFOhkUaJIX-22" edge="1">
          <mxGeometry relative="1" as="geometry" />
        </mxCell>
        <mxCell id="RWK8OXjm__JFOhkUaJIX-26" value="HIT" style="text;html=1;strokeColor=none;fillColor=none;align=center;verticalAlign=middle;whiteSpace=wrap;rounded=0;fillStyle=auto;" parent="1" vertex="1">
          <mxGeometry x="860" y="600" width="60" height="30" as="geometry" />
        </mxCell>
        <mxCell id="RWK8OXjm__JFOhkUaJIX-27" style="edgeStyle=orthogonalEdgeStyle;rounded=0;orthogonalLoop=1;jettySize=auto;html=1;exitX=0;exitY=0.5;exitDx=0;exitDy=0;fontSize=16;fontColor=#FF0F4F;entryX=0.5;entryY=1;entryDx=0;entryDy=0;" parent="1" source="D-sqYa0wRiz-SFtbxjmq-13" edge="1" target="D-sqYa0wRiz-SFtbxjmq-6">
          <mxGeometry relative="1" as="geometry">
            <mxPoint x="660" y="270" as="targetPoint" />
            <Array as="points">
              <mxPoint x="235" y="625" />
            </Array>
          </mxGeometry>
        </mxCell>
        <mxCell id="RWK8OXjm__JFOhkUaJIX-43" style="edgeStyle=orthogonalEdgeStyle;rounded=0;orthogonalLoop=1;jettySize=auto;html=1;exitX=1;exitY=0.5;exitDx=0;exitDy=0;fontSize=16;fontColor=#FF0F4F;entryX=1;entryY=0.5;entryDx=0;entryDy=0;fillColor=#d80073;strokeColor=#A50040;strokeWidth=4;" parent="1" source="D-sqYa0wRiz-SFtbxjmq-66" target="D-sqYa0wRiz-SFtbxjmq-18" edge="1">
          <mxGeometry relative="1" as="geometry">
            <mxPoint x="1330" y="520" as="targetPoint" />
            <Array as="points">
              <mxPoint x="1340" y="825" />
              <mxPoint x="1340" y="535" />
            </Array>
          </mxGeometry>
        </mxCell>
        <mxCell id="RWK8OXjm__JFOhkUaJIX-28" value="MISS" style="text;html=1;strokeColor=none;fillColor=none;align=center;verticalAlign=middle;whiteSpace=wrap;rounded=0;fillStyle=auto;" parent="1" vertex="1">
          <mxGeometry x="440" y="630" width="60" height="30" as="geometry" />
        </mxCell>
        <mxCell id="wVACm5CXHguE5bNul-mR-2" style="edgeStyle=orthogonalEdgeStyle;rounded=0;orthogonalLoop=1;jettySize=auto;html=1;exitX=1;exitY=0.5;exitDx=0;exitDy=0;entryX=0;entryY=0.5;entryDx=0;entryDy=0;" edge="1" parent="1" source="D-sqYa0wRiz-SFtbxjmq-15" target="D-sqYa0wRiz-SFtbxjmq-14">
          <mxGeometry relative="1" as="geometry" />
        </mxCell>
        <mxCell id="wVACm5CXHguE5bNul-mR-3" value="FETCH" style="text;html=1;strokeColor=none;fillColor=none;align=center;verticalAlign=middle;whiteSpace=wrap;rounded=0;fillStyle=auto;" vertex="1" parent="1">
          <mxGeometry x="440" y="555" width="60" height="30" as="geometry" />
        </mxCell>
      </root>
    </mxGraphModel>
  </diagram>
</mxfile>
